<svg width="180" height="150" viewBox="0 0 180 150" fill="none" xmlns="http://www.w3.org/2000/svg">
<g filter="url(#filter0_d_1_366)">
<rect x="4" y="2" width="172" height="142" rx="10" fill="white"/>
<rect x="4.5" y="2.5" width="171" height="141" rx="9.5" stroke="#E9EBEF"/>
<path d="M44.25 37.75V40.75C44.25 41.5784 43.5784 42.25 42.75 42.25H39.75" stroke="#5A89EA" stroke-width="1.5" stroke-linecap="round" stroke-linejoin="round"/>
<path d="M39.75 19.75H42.75C43.5784 19.75 44.25 20.4216 44.25 21.25V24.25" stroke="#5A89EA" stroke-width="1.5" stroke-linecap="round" stroke-linejoin="round"/>
<path d="M21.75 24.25V21.25C21.75 20.4216 22.4216 19.75 23.25 19.75H26.25" stroke="#5A89EA" stroke-width="1.5" stroke-linecap="round" stroke-linejoin="round"/>
<path d="M26.25 42.25H23.25C22.4216 42.25 21.75 41.5784 21.75 40.75V37.75" stroke="#5A89EA" stroke-width="1.5" stroke-linecap="round" stroke-linejoin="round"/>
<path d="M26.291 38.5C26.6738 35.0839 29.5625 32.5009 33 32.5009C36.4375 32.5009 39.3261 35.0839 39.709 38.5" stroke="#5A89EA" stroke-width="1.5" stroke-linecap="round" stroke-linejoin="round"/>
<path d="M28.876 26.986V27.986C28.9148 29.1374 28.6162 30.275 28.017 31.259" stroke="#5A89EA" stroke-width="1.5" stroke-linecap="round" stroke-linejoin="round"/>
<path d="M37.124 26.986V27.986C37.0852 29.1374 37.3838 30.275 37.983 31.259" stroke="#5A89EA" stroke-width="1.5" stroke-linecap="round" stroke-linejoin="round"/>
<path d="M28.888 27.205C30.4684 27.1938 31.9672 26.5013 33 25.305C34.0328 26.5013 35.5316 27.1938 37.112 27.205" stroke="#5A89EA" stroke-width="1.5" stroke-linecap="round" stroke-linejoin="round"/>
<path fill-rule="evenodd" clip-rule="evenodd" d="M33 31C35.2782 31 37.125 29.1532 37.125 26.875C37.125 24.5968 35.2782 22.75 33 22.75C30.7218 22.75 28.875 24.5968 28.875 26.875C28.875 29.1532 30.7218 31 33 31Z" stroke="#5A89EA" stroke-width="1.5" stroke-linecap="round" stroke-linejoin="round"/>
<path d="M24.92 78.2C23.8667 78.2 23.06 77.9 22.5 77.3C21.9533 76.7 21.68 75.8533 21.68 74.76V67.24C21.68 66.1467 21.9533 65.3 22.5 64.7C23.06 64.1 23.8667 63.8 24.92 63.8C25.9733 63.8 26.7733 64.1 27.32 64.7C27.88 65.3 28.16 66.1467 28.16 67.24V68.72H26.08V67.1C26.08 66.2333 25.7133 65.8 24.98 65.8C24.2467 65.8 23.88 66.2333 23.88 67.1V74.92C23.88 75.7733 24.2467 76.2 24.98 76.2C25.7133 76.2 26.08 75.7733 26.08 74.92V72.78H28.16V74.76C28.16 75.8533 27.88 76.7 27.32 77.3C26.7733 77.9 25.9733 78.2 24.92 78.2ZM29.4763 64H31.6763V69.7H34.0363V64H36.2363V78H34.0363V71.7H31.6763V78H29.4763V64ZM39.5747 64H42.5547L44.8347 78H42.6347L42.2347 75.22V75.26H39.7347L39.3347 78H37.2947L39.5747 64ZM41.9747 73.36L40.9947 66.44H40.9547L39.9947 73.36H41.9747ZM46.7041 66H44.4041V64H51.2041V66H48.9041V78H46.7041V66ZM55.4723 64H57.6723V78H55.4723V64ZM59.32 64H62.08L64.22 72.38H64.26V64H66.22V78H63.96L61.32 67.78H61.28V78H59.32V64ZM72.7583 64H75.7383L78.0183 78H75.8183L75.4183 75.22V75.26H72.9183L72.5183 78H70.4783L72.7583 64ZM75.1583 73.36L74.1783 66.44H74.1383L73.1783 73.36H75.1583ZM84.0088 66H81.7088V64H88.5088V66H86.2088V78H84.0088V66ZM90.3559 64H93.3359L95.6159 78H93.4159L93.0159 75.22V75.26H90.5159L90.1159 78H88.0759L90.3559 64ZM92.7559 73.36L91.7759 66.44H91.7359L90.7759 73.36H92.7559ZM96.6833 64H99.9233C101.017 64 101.837 64.2933 102.383 64.88C102.93 65.4667 103.203 66.3267 103.203 67.46V68.84C103.203 69.9733 102.93 70.8333 102.383 71.42C101.837 72.0067 101.017 72.3 99.9233 72.3H98.8833V78H96.6833V64ZM99.9233 70.3C100.283 70.3 100.55 70.2 100.723 70C100.91 69.8 101.003 69.46 101.003 68.98V67.32C101.003 66.84 100.91 66.5 100.723 66.3C100.55 66.1 100.283 66 99.9233 66H98.8833V70.3H99.9233Z" fill="#030303"/>
<path d="M24.822 93.939C25.81 93.939 26.6637 94.1253 27.383 94.498C28.111 94.862 28.6657 95.3863 29.047 96.071C29.437 96.7557 29.632 97.5617 29.632 98.489C29.632 99.4163 29.437 100.222 29.047 100.907C28.6657 101.583 28.111 102.103 27.383 102.467C26.6637 102.822 25.81 103 24.822 103H22.001V93.939H24.822ZM24.822 102.025C25.992 102.025 26.8847 101.717 27.5 101.102C28.1153 100.478 28.423 99.607 28.423 98.489C28.423 97.3623 28.111 96.4827 27.487 95.85C26.8717 95.2173 25.9833 94.901 24.822 94.901H23.184V102.025H24.822ZM31.8034 94.719C31.5781 94.719 31.3874 94.641 31.2314 94.485C31.0754 94.329 30.9974 94.1383 30.9974 93.913C30.9974 93.6877 31.0754 93.497 31.2314 93.341C31.3874 93.185 31.5781 93.107 31.8034 93.107C32.0201 93.107 32.2021 93.185 32.3494 93.341C32.5054 93.497 32.5834 93.6877 32.5834 93.913C32.5834 94.1383 32.5054 94.329 32.3494 94.485C32.2021 94.641 32.0201 94.719 31.8034 94.719ZM32.3754 95.876V103H31.1924V95.876H32.3754ZM35.5746 97.033C35.7826 96.6257 36.0773 96.3093 36.4586 96.084C36.8486 95.8587 37.321 95.746 37.8756 95.746V96.968H37.5636C36.2376 96.968 35.5746 97.6873 35.5746 99.126V103H34.3916V95.876H35.5746V97.033ZM45.7412 99.165C45.7412 99.3903 45.7282 99.6287 45.7022 99.88H40.0082C40.0516 100.582 40.2899 101.132 40.7232 101.531C41.1652 101.921 41.6982 102.116 42.3222 102.116C42.8336 102.116 43.2582 101.999 43.5962 101.765C43.9429 101.522 44.1856 101.202 44.3242 100.803H45.5982C45.4076 101.488 45.0262 102.047 44.4542 102.48C43.8822 102.905 43.1716 103.117 42.3222 103.117C41.6462 103.117 41.0396 102.965 40.5022 102.662C39.9736 102.359 39.5576 101.93 39.2542 101.375C38.9509 100.812 38.7992 100.162 38.7992 99.425C38.7992 98.6883 38.9466 98.0427 39.2412 97.488C39.5359 96.9333 39.9476 96.5087 40.4762 96.214C41.0136 95.9107 41.6289 95.759 42.3222 95.759C42.9982 95.759 43.5962 95.9063 44.1162 96.201C44.6362 96.4957 45.0349 96.903 45.3122 97.423C45.5982 97.9343 45.7412 98.515 45.7412 99.165ZM44.5192 98.918C44.5192 98.4673 44.4196 98.0817 44.2202 97.761C44.0209 97.4317 43.7479 97.1847 43.4012 97.02C43.0632 96.8467 42.6862 96.76 42.2702 96.76C41.6722 96.76 41.1609 96.9507 40.7362 97.332C40.3202 97.7133 40.0819 98.242 40.0212 98.918H44.5192ZM46.8608 99.425C46.8608 98.6883 47.0081 98.047 47.3028 97.501C47.5974 96.9463 48.0048 96.5173 48.5248 96.214C49.0534 95.9107 49.6558 95.759 50.3318 95.759C51.2071 95.759 51.9264 95.9713 52.4898 96.396C53.0618 96.8207 53.4388 97.41 53.6208 98.164H52.3468C52.2254 97.7307 51.9871 97.3883 51.6318 97.137C51.2851 96.8857 50.8518 96.76 50.3318 96.76C49.6558 96.76 49.1098 96.994 48.6938 97.462C48.2778 97.9213 48.0698 98.5757 48.0698 99.425C48.0698 100.283 48.2778 100.946 48.6938 101.414C49.1098 101.882 49.6558 102.116 50.3318 102.116C50.8518 102.116 51.2851 101.995 51.6318 101.752C51.9784 101.509 52.2168 101.163 52.3468 100.712H53.6208C53.4301 101.44 53.0488 102.025 52.4768 102.467C51.9048 102.9 51.1898 103.117 50.3318 103.117C49.6558 103.117 49.0534 102.965 48.5248 102.662C48.0048 102.359 47.5974 101.93 47.3028 101.375C47.0081 100.82 46.8608 100.17 46.8608 99.425ZM56.6422 96.851V101.05C56.6422 101.397 56.7159 101.644 56.8632 101.791C57.0106 101.93 57.2662 101.999 57.6302 101.999H58.5012V103H57.4352C56.7766 103 56.2826 102.848 55.9532 102.545C55.6239 102.242 55.4592 101.743 55.4592 101.05V96.851H54.5362V95.876H55.4592V94.082H56.6422V95.876H58.5012V96.851H56.6422ZM71.9674 95.746C72.5221 95.746 73.0161 95.863 73.4494 96.097C73.8827 96.3223 74.2251 96.6647 74.4764 97.124C74.7277 97.5833 74.8534 98.1423 74.8534 98.801V103H73.6834V98.97C73.6834 98.2593 73.5057 97.7177 73.1504 97.345C72.8037 96.9637 72.3314 96.773 71.7334 96.773C71.1181 96.773 70.6284 96.9723 70.2644 97.371C69.9004 97.761 69.7184 98.3287 69.7184 99.074V103H68.5484V98.97C68.5484 98.2593 68.3707 97.7177 68.0154 97.345C67.6687 96.9637 67.1964 96.773 66.5984 96.773C65.9831 96.773 65.4934 96.9723 65.1294 97.371C64.7654 97.761 64.5834 98.3287 64.5834 99.074V103H63.4004V95.876H64.5834V96.903C64.8174 96.5303 65.1294 96.2443 65.5194 96.045C65.9181 95.8457 66.3557 95.746 66.8324 95.746C67.4304 95.746 67.9591 95.8803 68.4184 96.149C68.8777 96.4177 69.2201 96.812 69.4454 97.332C69.6447 96.8293 69.9741 96.4393 70.4334 96.162C70.8927 95.8847 71.4041 95.746 71.9674 95.746ZM83.294 99.165C83.294 99.3903 83.281 99.6287 83.255 99.88H77.561C77.6043 100.582 77.8426 101.132 78.276 101.531C78.718 101.921 79.251 102.116 79.875 102.116C80.3863 102.116 80.811 101.999 81.149 101.765C81.4956 101.522 81.7383 101.202 81.877 100.803H83.151C82.9603 101.488 82.579 102.047 82.007 102.48C81.435 102.905 80.7243 103.117 79.875 103.117C79.199 103.117 78.5923 102.965 78.055 102.662C77.5263 102.359 77.1103 101.93 76.807 101.375C76.5036 100.812 76.352 100.162 76.352 99.425C76.352 98.6883 76.4993 98.0427 76.794 97.488C77.0886 96.9333 77.5003 96.5087 78.029 96.214C78.5663 95.9107 79.1816 95.759 79.875 95.759C80.551 95.759 81.149 95.9063 81.669 96.201C82.189 96.4957 82.5876 96.903 82.865 97.423C83.151 97.9343 83.294 98.515 83.294 99.165ZM82.072 98.918C82.072 98.4673 81.9723 98.0817 81.773 97.761C81.5736 97.4317 81.3006 97.1847 80.954 97.02C80.616 96.8467 80.239 96.76 79.823 96.76C79.225 96.76 78.7136 96.9507 78.289 97.332C77.873 97.7133 77.6346 98.242 77.574 98.918H82.072ZM87.3775 103.117C86.8315 103.117 86.3418 103.026 85.9085 102.844C85.4752 102.653 85.1328 102.393 84.8815 102.064C84.6302 101.726 84.4915 101.34 84.4655 100.907H85.6875C85.7222 101.262 85.8868 101.553 86.1815 101.778C86.4848 102.003 86.8792 102.116 87.3645 102.116C87.8152 102.116 88.1705 102.016 88.4305 101.817C88.6905 101.618 88.8205 101.366 88.8205 101.063C88.8205 100.751 88.6818 100.521 88.4045 100.374C88.1272 100.218 87.6982 100.066 87.1175 99.919C86.5888 99.7803 86.1555 99.6417 85.8175 99.503C85.4882 99.3557 85.2022 99.1433 84.9595 98.866C84.7255 98.58 84.6085 98.2073 84.6085 97.748C84.6085 97.384 84.7168 97.0503 84.9335 96.747C85.1502 96.4437 85.4578 96.2053 85.8565 96.032C86.2552 95.85 86.7102 95.759 87.2215 95.759C88.0102 95.759 88.6472 95.9583 89.1325 96.357C89.6178 96.7557 89.8778 97.3017 89.9125 97.995H88.7295C88.7035 97.6223 88.5518 97.3233 88.2745 97.098C88.0058 96.8727 87.6418 96.76 87.1825 96.76C86.7578 96.76 86.4198 96.851 86.1685 97.033C85.9172 97.215 85.7915 97.4533 85.7915 97.748C85.7915 97.982 85.8652 98.177 86.0125 98.333C86.1685 98.4803 86.3592 98.6017 86.5845 98.697C86.8185 98.7837 87.1392 98.8833 87.5465 98.996C88.0578 99.1347 88.4738 99.2733 88.7945 99.412C89.1152 99.542 89.3882 99.7413 89.6135 100.01C89.8475 100.279 89.9688 100.63 89.9775 101.063C89.9775 101.453 89.8692 101.804 89.6525 102.116C89.4358 102.428 89.1282 102.675 88.7295 102.857C88.3395 103.03 87.8888 103.117 87.3775 103.117ZM94.1695 103.117C93.6235 103.117 93.1338 103.026 92.7005 102.844C92.2672 102.653 91.9248 102.393 91.6735 102.064C91.4222 101.726 91.2835 101.34 91.2575 100.907H92.4795C92.5142 101.262 92.6788 101.553 92.9735 101.778C93.2768 102.003 93.6712 102.116 94.1565 102.116C94.6072 102.116 94.9625 102.016 95.2225 101.817C95.4825 101.618 95.6125 101.366 95.6125 101.063C95.6125 100.751 95.4738 100.521 95.1965 100.374C94.9192 100.218 94.4902 100.066 93.9095 99.919C93.3808 99.7803 92.9475 99.6417 92.6095 99.503C92.2802 99.3557 91.9942 99.1433 91.7515 98.866C91.5175 98.58 91.4005 98.2073 91.4005 97.748C91.4005 97.384 91.5088 97.0503 91.7255 96.747C91.9422 96.4437 92.2498 96.2053 92.6485 96.032C93.0472 95.85 93.5022 95.759 94.0135 95.759C94.8022 95.759 95.4392 95.9583 95.9245 96.357C96.4098 96.7557 96.6698 97.3017 96.7045 97.995H95.5215C95.4955 97.6223 95.3438 97.3233 95.0665 97.098C94.7978 96.8727 94.4338 96.76 93.9745 96.76C93.5498 96.76 93.2118 96.851 92.9605 97.033C92.7092 97.215 92.5835 97.4533 92.5835 97.748C92.5835 97.982 92.6572 98.177 92.8045 98.333C92.9605 98.4803 93.1512 98.6017 93.3765 98.697C93.6105 98.7837 93.9312 98.8833 94.3385 98.996C94.8498 99.1347 95.2658 99.2733 95.5865 99.412C95.9072 99.542 96.1802 99.7413 96.4055 100.01C96.6395 100.279 96.7608 100.63 96.7695 101.063C96.7695 101.453 96.6612 101.804 96.4445 102.116C96.2278 102.428 95.9202 102.675 95.5215 102.857C95.1315 103.03 94.6808 103.117 94.1695 103.117ZM97.9975 99.412C97.9975 98.684 98.1448 98.047 98.4395 97.501C98.7341 96.9463 99.1371 96.5173 99.6485 96.214C100.168 95.9107 100.745 95.759 101.377 95.759C102.001 95.759 102.543 95.8933 103.002 96.162C103.462 96.4307 103.804 96.7687 104.029 97.176V95.876H105.225V103H104.029V101.674C103.795 102.09 103.444 102.437 102.976 102.714C102.517 102.983 101.98 103.117 101.364 103.117C100.732 103.117 100.16 102.961 99.6485 102.649C99.1371 102.337 98.7341 101.899 98.4395 101.336C98.1448 100.773 97.9975 100.131 97.9975 99.412ZM104.029 99.425C104.029 98.8877 103.921 98.4197 103.704 98.021C103.488 97.6223 103.193 97.319 102.82 97.111C102.456 96.8943 102.053 96.786 101.611 96.786C101.169 96.786 100.766 96.89 100.402 97.098C100.038 97.306 99.7481 97.6093 99.5315 98.008C99.3148 98.4067 99.2065 98.8747 99.2065 99.412C99.2065 99.958 99.3148 100.435 99.5315 100.842C99.7481 101.241 100.038 101.548 100.402 101.765C100.766 101.973 101.169 102.077 101.611 102.077C102.053 102.077 102.456 101.973 102.82 101.765C103.193 101.548 103.488 101.241 103.704 100.842C103.921 100.435 104.029 99.9623 104.029 99.425ZM110.163 95.759C110.778 95.759 111.315 95.8933 111.775 96.162C112.243 96.4307 112.589 96.7687 112.815 97.176V95.876H114.011V103.156C114.011 103.806 113.872 104.382 113.595 104.885C113.317 105.396 112.919 105.795 112.399 106.081C111.887 106.367 111.289 106.51 110.605 106.51C109.669 106.51 108.889 106.289 108.265 105.847C107.641 105.405 107.272 104.803 107.16 104.04H108.33C108.46 104.473 108.728 104.82 109.136 105.08C109.543 105.349 110.033 105.483 110.605 105.483C111.255 105.483 111.783 105.279 112.191 104.872C112.607 104.465 112.815 103.893 112.815 103.156V101.661C112.581 102.077 112.234 102.424 111.775 102.701C111.315 102.978 110.778 103.117 110.163 103.117C109.53 103.117 108.954 102.961 108.434 102.649C107.922 102.337 107.519 101.899 107.225 101.336C106.93 100.773 106.783 100.131 106.783 99.412C106.783 98.684 106.93 98.047 107.225 97.501C107.519 96.9463 107.922 96.5173 108.434 96.214C108.954 95.9107 109.53 95.759 110.163 95.759ZM112.815 99.425C112.815 98.8877 112.706 98.4197 112.49 98.021C112.273 97.6223 111.978 97.319 111.606 97.111C111.242 96.8943 110.839 96.786 110.397 96.786C109.955 96.786 109.552 96.89 109.188 97.098C108.824 97.306 108.533 97.6093 108.317 98.008C108.1 98.4067 107.992 98.8747 107.992 99.412C107.992 99.958 108.1 100.435 108.317 100.842C108.533 101.241 108.824 101.548 109.188 101.765C109.552 101.973 109.955 102.077 110.397 102.077C110.839 102.077 111.242 101.973 111.606 101.765C111.978 101.548 112.273 101.241 112.49 100.842C112.706 100.435 112.815 99.9623 112.815 99.425ZM116.621 94.719C116.395 94.719 116.205 94.641 116.049 94.485C115.893 94.329 115.815 94.1383 115.815 93.913C115.815 93.6877 115.893 93.497 116.049 93.341C116.205 93.185 116.395 93.107 116.621 93.107C116.837 93.107 117.019 93.185 117.167 93.341C117.323 93.497 117.401 93.6877 117.401 93.913C117.401 94.1383 117.323 94.329 117.167 94.485C117.019 94.641 116.837 94.719 116.621 94.719ZM117.193 95.876V103H116.01V95.876H117.193ZM122.68 95.746C123.547 95.746 124.249 96.0103 124.786 96.539C125.323 97.059 125.592 97.813 125.592 98.801V103H124.422V98.97C124.422 98.2593 124.244 97.7177 123.889 97.345C123.534 96.9637 123.048 96.773 122.433 96.773C121.809 96.773 121.311 96.968 120.938 97.358C120.574 97.748 120.392 98.3157 120.392 99.061V103H119.209V95.876H120.392V96.89C120.626 96.526 120.942 96.2443 121.341 96.045C121.748 95.8457 122.195 95.746 122.68 95.746ZM130.462 95.759C131.078 95.759 131.615 95.8933 132.074 96.162C132.542 96.4307 132.889 96.7687 133.114 97.176V95.876H134.31V103.156C134.31 103.806 134.172 104.382 133.894 104.885C133.617 105.396 133.218 105.795 132.698 106.081C132.187 106.367 131.589 106.51 130.904 106.51C129.968 106.51 129.188 106.289 128.564 105.847C127.94 105.405 127.572 104.803 127.459 104.04H128.629C128.759 104.473 129.028 104.82 129.435 105.08C129.843 105.349 130.332 105.483 130.904 105.483C131.554 105.483 132.083 105.279 132.49 104.872C132.906 104.465 133.114 103.893 133.114 103.156V101.661C132.88 102.077 132.534 102.424 132.074 102.701C131.615 102.978 131.078 103.117 130.462 103.117C129.83 103.117 129.253 102.961 128.733 102.649C128.222 102.337 127.819 101.899 127.524 101.336C127.23 100.773 127.082 100.131 127.082 99.412C127.082 98.684 127.23 98.047 127.524 97.501C127.819 96.9463 128.222 96.5173 128.733 96.214C129.253 95.9107 129.83 95.759 130.462 95.759ZM133.114 99.425C133.114 98.8877 133.006 98.4197 132.789 98.021C132.573 97.6223 132.278 97.319 131.905 97.111C131.541 96.8943 131.138 96.786 130.696 96.786C130.254 96.786 129.851 96.89 129.487 97.098C129.123 97.306 128.833 97.6093 128.616 98.008C128.4 98.4067 128.291 98.8747 128.291 99.412C128.291 99.958 128.4 100.435 128.616 100.842C128.833 101.241 129.123 101.548 129.487 101.765C129.851 101.973 130.254 102.077 130.696 102.077C131.138 102.077 131.541 101.973 131.905 101.765C132.278 101.548 132.573 101.241 132.789 100.842C133.006 100.435 133.114 99.9623 133.114 99.425ZM31.491 113.876L29.268 121H28.046L26.33 115.345L24.614 121H23.392L21.156 113.876H22.365L24.003 119.856L25.771 113.876H26.98L28.709 119.869L30.321 113.876H31.491ZM33.2761 112.719C33.0507 112.719 32.8601 112.641 32.7041 112.485C32.5481 112.329 32.4701 112.138 32.4701 111.913C32.4701 111.688 32.5481 111.497 32.7041 111.341C32.8601 111.185 33.0507 111.107 33.2761 111.107C33.4927 111.107 33.6747 111.185 33.8221 111.341C33.9781 111.497 34.0561 111.688 34.0561 111.913C34.0561 112.138 33.9781 112.329 33.8221 112.485C33.6747 112.641 33.4927 112.719 33.2761 112.719ZM33.8481 113.876V121H32.6651V113.876H33.8481ZM37.3073 114.851V119.05C37.3073 119.397 37.3809 119.644 37.5283 119.791C37.6756 119.93 37.9313 119.999 38.2953 119.999H39.1663V121H38.1003C37.4416 121 36.9476 120.848 36.6183 120.545C36.2889 120.242 36.1243 119.743 36.1243 119.05V114.851H35.2013V113.876H36.1243V112.082H37.3073V113.876H39.1663V114.851H37.3073ZM44.1356 113.746C44.673 113.746 45.1583 113.863 45.5916 114.097C46.025 114.322 46.363 114.665 46.6056 115.124C46.857 115.583 46.9826 116.142 46.9826 116.801V121H45.8126V116.97C45.8126 116.259 45.635 115.718 45.2796 115.345C44.9243 114.964 44.439 114.773 43.8236 114.773C43.1996 114.773 42.7013 114.968 42.3286 115.358C41.9646 115.748 41.7826 116.316 41.7826 117.061V121H40.5996V111.38H41.7826V114.89C42.0166 114.526 42.3373 114.244 42.7446 114.045C43.1606 113.846 43.6243 113.746 44.1356 113.746ZM53.5639 115.202C53.8065 114.777 54.1619 114.431 54.6299 114.162C55.0979 113.893 55.6309 113.759 56.2289 113.759C56.8702 113.759 57.4465 113.911 57.9579 114.214C58.4692 114.517 58.8722 114.946 59.1669 115.501C59.4615 116.047 59.6089 116.684 59.6089 117.412C59.6089 118.131 59.4615 118.773 59.1669 119.336C58.8722 119.899 58.4649 120.337 57.9449 120.649C57.4335 120.961 56.8615 121.117 56.2289 121.117C55.6135 121.117 55.0719 120.983 54.6039 120.714C54.1445 120.445 53.7979 120.103 53.5639 119.687V121H52.3809V111.38H53.5639V115.202ZM58.3999 117.412C58.3999 116.875 58.2915 116.407 58.0749 116.008C57.8582 115.609 57.5635 115.306 57.1909 115.098C56.8269 114.89 56.4239 114.786 55.9819 114.786C55.5485 114.786 55.1455 114.894 54.7729 115.111C54.4089 115.319 54.1142 115.627 53.8889 116.034C53.6722 116.433 53.5639 116.896 53.5639 117.425C53.5639 117.962 53.6722 118.435 53.8889 118.842C54.1142 119.241 54.4089 119.548 54.7729 119.765C55.1455 119.973 55.5485 120.077 55.9819 120.077C56.4239 120.077 56.8269 119.973 57.1909 119.765C57.5635 119.548 57.8582 119.241 58.0749 118.842C58.2915 118.435 58.3999 117.958 58.3999 117.412ZM67.484 113.876V121H66.301V119.947C66.0757 120.311 65.7594 120.597 65.352 120.805C64.9534 121.004 64.5114 121.104 64.026 121.104C63.4714 121.104 62.973 120.991 62.531 120.766C62.089 120.532 61.738 120.185 61.478 119.726C61.2267 119.267 61.101 118.708 61.101 118.049V113.876H62.271V117.893C62.271 118.595 62.4487 119.137 62.804 119.518C63.1594 119.891 63.6447 120.077 64.26 120.077C64.8927 120.077 65.391 119.882 65.755 119.492C66.119 119.102 66.301 118.534 66.301 117.789V113.876H67.484ZM75.6175 113.876L71.3275 124.354H70.1055L71.5095 120.922L68.6365 113.876H69.9495L72.1855 119.648L74.3955 113.876H75.6175ZM83.3067 117.165C83.3067 117.39 83.2937 117.629 83.2677 117.88H77.5737C77.617 118.582 77.8553 119.132 78.2887 119.531C78.7307 119.921 79.2637 120.116 79.8877 120.116C80.399 120.116 80.8237 119.999 81.1617 119.765C81.5083 119.522 81.751 119.202 81.8897 118.803H83.1637C82.973 119.488 82.5917 120.047 82.0197 120.48C81.4477 120.905 80.737 121.117 79.8877 121.117C79.2117 121.117 78.605 120.965 78.0677 120.662C77.539 120.359 77.123 119.93 76.8197 119.375C76.5163 118.812 76.3647 118.162 76.3647 117.425C76.3647 116.688 76.512 116.043 76.8067 115.488C77.1013 114.933 77.513 114.509 78.0417 114.214C78.579 113.911 79.1943 113.759 79.8877 113.759C80.5637 113.759 81.1617 113.906 81.6817 114.201C82.2017 114.496 82.6003 114.903 82.8777 115.423C83.1637 115.934 83.3067 116.515 83.3067 117.165ZM82.0847 116.918C82.0847 116.467 81.985 116.082 81.7857 115.761C81.5863 115.432 81.3133 115.185 80.9667 115.02C80.6287 114.847 80.2517 114.76 79.8357 114.76C79.2377 114.76 78.7263 114.951 78.3017 115.332C77.8857 115.713 77.6473 116.242 77.5867 116.918H82.0847ZM86.0512 115.033C86.2592 114.626 86.5539 114.309 86.9352 114.084C87.3252 113.859 87.7975 113.746 88.3522 113.746V114.968H88.0402C86.7142 114.968 86.0512 115.687 86.0512 117.126V121H84.8682V113.876H86.0512V115.033Z" fill="#030303"/>
</g>
<defs>
<filter id="filter0_d_1_366" x="0" y="0" width="180" height="150" filterUnits="userSpaceOnUse" color-interpolation-filters="sRGB">
<feFlood flood-opacity="0" result="BackgroundImageFix"/>
<feColorMatrix in="SourceAlpha" type="matrix" values="0 0 0 0 0 0 0 0 0 0 0 0 0 0 0 0 0 0 127 0" result="hardAlpha"/>
<feOffset dy="2"/>
<feGaussianBlur stdDeviation="2"/>
<feColorMatrix type="matrix" values="0 0 0 0 0 0 0 0 0 0 0 0 0 0 0 0 0 0 0.15 0"/>
<feBlend mode="normal" in2="BackgroundImageFix" result="effect1_dropShadow_1_366"/>
<feBlend mode="normal" in="SourceGraphic" in2="effect1_dropShadow_1_366" result="shape"/>
</filter>
</defs>
</svg>
