<svg width="180" height="168" viewBox="0 0 180 168" fill="none" xmlns="http://www.w3.org/2000/svg">
<g filter="url(#filter0_d_1_365)">
<rect x="4" y="2" width="172" height="160" rx="10" fill="white"/>
<rect x="4.5" y="2.5" width="171" height="159" rx="9.5" stroke="#E9EBEF"/>
<path d="M44.25 37.75V40.75C44.25 41.5784 43.5784 42.25 42.75 42.25H39.75" stroke="#5A89EA" stroke-width="1.5" stroke-linecap="round" stroke-linejoin="round"/>
<path d="M39.75 19.75H42.75C43.5784 19.75 44.25 20.4216 44.25 21.25V24.25" stroke="#5A89EA" stroke-width="1.5" stroke-linecap="round" stroke-linejoin="round"/>
<path d="M21.75 24.25V21.25C21.75 20.4216 22.4216 19.75 23.25 19.75H26.25" stroke="#5A89EA" stroke-width="1.5" stroke-linecap="round" stroke-linejoin="round"/>
<path d="M26.25 42.25H23.25C22.4216 42.25 21.75 41.5784 21.75 40.75V37.75" stroke="#5A89EA" stroke-width="1.5" stroke-linecap="round" stroke-linejoin="round"/>
<path d="M26.291 38.5C26.6738 35.0839 29.5625 32.5009 33 32.5009C36.4375 32.5009 39.3262 35.0839 39.709 38.5" stroke="#5A89EA" stroke-width="1.5" stroke-linecap="round" stroke-linejoin="round"/>
<path d="M28.876 26.986V27.986C28.9148 29.1374 28.6162 30.275 28.017 31.259" stroke="#5A89EA" stroke-width="1.5" stroke-linecap="round" stroke-linejoin="round"/>
<path d="M37.124 26.986V27.986C37.0852 29.1374 37.3838 30.275 37.983 31.259" stroke="#5A89EA" stroke-width="1.5" stroke-linecap="round" stroke-linejoin="round"/>
<path d="M28.888 27.205C30.4684 27.1938 31.9672 26.5013 33 25.305C34.0328 26.5013 35.5316 27.1938 37.112 27.205" stroke="#5A89EA" stroke-width="1.5" stroke-linecap="round" stroke-linejoin="round"/>
<path fill-rule="evenodd" clip-rule="evenodd" d="M33 31C35.2782 31 37.125 29.1532 37.125 26.875C37.125 24.5968 35.2782 22.75 33 22.75C30.7218 22.75 28.875 24.5968 28.875 26.875C28.875 29.1532 30.7218 31 33 31Z" stroke="#5A89EA" stroke-width="1.5" stroke-linecap="round" stroke-linejoin="round"/>
<path d="M24.94 78.2C23.8733 78.2 23.06 77.9 22.5 77.3C21.94 76.6867 21.66 75.8133 21.66 74.68V67.32C21.66 66.1867 21.94 65.32 22.5 64.72C23.06 64.1067 23.8733 63.8 24.94 63.8C26.0067 63.8 26.82 64.1067 27.38 64.72C27.94 65.32 28.22 66.1867 28.22 67.32V68.52H26.14V67.18C26.14 66.26 25.76 65.8 25 65.8C24.24 65.8 23.86 66.26 23.86 67.18V74.84C23.86 75.7467 24.24 76.2 25 76.2C25.76 76.2 26.14 75.7467 26.14 74.84V72.1H25.04V70.1H28.22V74.68C28.22 75.8133 27.94 76.6867 27.38 77.3C26.82 77.9 26.0067 78.2 24.94 78.2ZM29.6325 64H35.6325V66H31.8325V69.7H34.8525V71.7H31.8325V76H35.6325V78H29.6325V64ZM40.0781 78.2C38.9981 78.2 38.1715 77.8933 37.5981 77.28C37.0248 76.6667 36.7381 75.8 36.7381 74.68V67.32C36.7381 66.2 37.0248 65.3333 37.5981 64.72C38.1715 64.1067 38.9981 63.8 40.0781 63.8C41.1581 63.8 41.9848 64.1067 42.5581 64.72C43.1315 65.3333 43.4181 66.2 43.4181 67.32V74.68C43.4181 75.8 43.1315 76.6667 42.5581 77.28C41.9848 77.8933 41.1581 78.2 40.0781 78.2ZM40.0781 76.2C40.8381 76.2 41.2181 75.74 41.2181 74.82V67.18C41.2181 66.26 40.8381 65.8 40.0781 65.8C39.3181 65.8 38.9381 66.26 38.9381 67.18V74.82C38.9381 75.74 39.3181 76.2 40.0781 76.2ZM44.5859 70H48.9859V72H44.5859V70ZM50.2966 64H52.4966V76H56.1166V78H50.2966V64ZM60.2734 78.2C59.1934 78.2 58.3668 77.8933 57.7934 77.28C57.2201 76.6667 56.9334 75.8 56.9334 74.68V67.32C56.9334 66.2 57.2201 65.3333 57.7934 64.72C58.3668 64.1067 59.1934 63.8 60.2734 63.8C61.3534 63.8 62.1801 64.1067 62.7534 64.72C63.3268 65.3333 63.6134 66.2 63.6134 67.32V74.68C63.6134 75.8 63.3268 76.6667 62.7534 77.28C62.1801 77.8933 61.3534 78.2 60.2734 78.2ZM60.2734 76.2C61.0334 76.2 61.4134 75.74 61.4134 74.82V67.18C61.4134 66.26 61.0334 65.8 60.2734 65.8C59.5134 65.8 59.1334 66.26 59.1334 67.18V74.82C59.1334 75.74 59.5134 76.2 60.2734 76.2ZM68.2013 78.2C67.1479 78.2 66.3413 77.9 65.7813 77.3C65.2346 76.7 64.9613 75.8533 64.9613 74.76V67.24C64.9613 66.1467 65.2346 65.3 65.7813 64.7C66.3413 64.1 67.1479 63.8 68.2013 63.8C69.2546 63.8 70.0546 64.1 70.6013 64.7C71.1613 65.3 71.4413 66.1467 71.4413 67.24V68.72H69.3613V67.1C69.3613 66.2333 68.9946 65.8 68.2613 65.8C67.5279 65.8 67.1613 66.2333 67.1613 67.1V74.92C67.1613 75.7733 67.5279 76.2 68.2613 76.2C68.9946 76.2 69.3613 75.7733 69.3613 74.92V72.78H71.4413V74.76C71.4413 75.8533 71.1613 76.7 70.6013 77.3C70.0546 77.9 69.2546 78.2 68.2013 78.2ZM74.4575 64H77.4375L79.7175 78H77.5175L77.1175 75.22V75.26H74.6175L74.2175 78H72.1775L74.4575 64ZM76.8575 73.36L75.8775 66.44H75.8375L74.8775 73.36H76.8575ZM81.5869 66H79.2869V64H86.0869V66H83.7869V78H81.5869V66ZM87.152 64H93.152V66H89.352V69.7H92.372V71.7H89.352V76H93.152V78H87.152V64ZM94.4177 64H97.7777C98.871 64 99.691 64.2933 100.238 64.88C100.784 65.4667 101.058 66.3267 101.058 67.46V74.54C101.058 75.6733 100.784 76.5333 100.238 77.12C99.691 77.7067 98.871 78 97.7777 78H94.4177V64ZM97.7377 76C98.0977 76 98.371 75.8933 98.5577 75.68C98.7577 75.4667 98.8577 75.12 98.8577 74.64V67.36C98.8577 66.88 98.7577 66.5333 98.5577 66.32C98.371 66.1067 98.0977 66 97.7377 66H96.6177V76H97.7377Z" fill="#030303"/>
<path d="M29.125 103H27.942L23.184 95.785V103H22.001V93.926H23.184L27.942 101.128V93.926H29.125V103ZM34.2486 103.117C33.5813 103.117 32.9746 102.965 32.4286 102.662C31.8913 102.359 31.4666 101.93 31.1546 101.375C30.8513 100.812 30.6996 100.162 30.6996 99.425C30.6996 98.697 30.8556 98.0557 31.1676 97.501C31.4883 96.9377 31.9216 96.5087 32.4676 96.214C33.0136 95.9107 33.6246 95.759 34.3006 95.759C34.9766 95.759 35.5876 95.9107 36.1336 96.214C36.6796 96.5087 37.1086 96.9333 37.4206 97.488C37.7413 98.0427 37.9016 98.6883 37.9016 99.425C37.9016 100.162 37.737 100.812 37.4076 101.375C37.087 101.93 36.6493 102.359 36.0946 102.662C35.54 102.965 34.9246 103.117 34.2486 103.117ZM34.2486 102.077C34.6733 102.077 35.072 101.977 35.4446 101.778C35.8173 101.579 36.1163 101.28 36.3416 100.881C36.5756 100.482 36.6926 99.997 36.6926 99.425C36.6926 98.853 36.58 98.3677 36.3546 97.969C36.1293 97.5703 35.8346 97.2757 35.4706 97.085C35.1066 96.8857 34.7123 96.786 34.2876 96.786C33.8543 96.786 33.4556 96.8857 33.0916 97.085C32.7363 97.2757 32.4503 97.5703 32.2336 97.969C32.017 98.3677 31.9086 98.853 31.9086 99.425C31.9086 100.006 32.0126 100.495 32.2206 100.894C32.4373 101.293 32.7233 101.592 33.0786 101.791C33.434 101.982 33.824 102.077 34.2486 102.077ZM40.9001 96.851V101.05C40.9001 101.397 40.9737 101.644 41.1211 101.791C41.2684 101.93 41.5241 101.999 41.8881 101.999H42.7591V103H41.6931C41.0344 103 40.5404 102.848 40.2111 102.545C39.8817 102.242 39.7171 101.743 39.7171 101.05V96.851H38.7941V95.876H39.7171V94.082H40.9001V95.876H42.7591V96.851H40.9001ZM44.8034 94.719C44.5781 94.719 44.3874 94.641 44.2314 94.485C44.0754 94.329 43.9974 94.1383 43.9974 93.913C43.9974 93.6877 44.0754 93.497 44.2314 93.341C44.3874 93.185 44.5781 93.107 44.8034 93.107C45.0201 93.107 45.2021 93.185 45.3494 93.341C45.5054 93.497 45.5834 93.6877 45.5834 93.913C45.5834 94.1383 45.5054 94.329 45.3494 94.485C45.2021 94.641 45.0201 94.719 44.8034 94.719ZM45.3754 95.876V103H44.1924V95.876H45.3754ZM50.2906 96.851H48.7956V103H47.6126V96.851H46.6896V95.876H47.6126V95.369C47.6126 94.5717 47.8163 93.991 48.2236 93.627C48.6396 93.2543 49.3026 93.068 50.2126 93.068V94.056C49.6926 94.056 49.3243 94.16 49.1076 94.368C48.8996 94.5673 48.7956 94.901 48.7956 95.369V95.876H50.2906V96.851ZM52.2809 94.719C52.0556 94.719 51.8649 94.641 51.7089 94.485C51.5529 94.329 51.4749 94.1383 51.4749 93.913C51.4749 93.6877 51.5529 93.497 51.7089 93.341C51.8649 93.185 52.0556 93.107 52.2809 93.107C52.4976 93.107 52.6796 93.185 52.8269 93.341C52.9829 93.497 53.0609 93.6877 53.0609 93.913C53.0609 94.1383 52.9829 94.329 52.8269 94.485C52.6796 94.641 52.4976 94.719 52.2809 94.719ZM52.8529 95.876V103H51.6699V95.876H52.8529ZM54.4272 99.425C54.4272 98.6883 54.5745 98.047 54.8692 97.501C55.1638 96.9463 55.5712 96.5173 56.0912 96.214C56.6198 95.9107 57.2222 95.759 57.8982 95.759C58.7735 95.759 59.4928 95.9713 60.0562 96.396C60.6282 96.8207 61.0052 97.41 61.1872 98.164H59.9132C59.7918 97.7307 59.5535 97.3883 59.1982 97.137C58.8515 96.8857 58.4182 96.76 57.8982 96.76C57.2222 96.76 56.6762 96.994 56.2602 97.462C55.8442 97.9213 55.6362 98.5757 55.6362 99.425C55.6362 100.283 55.8442 100.946 56.2602 101.414C56.6762 101.882 57.2222 102.116 57.8982 102.116C58.4182 102.116 58.8515 101.995 59.1982 101.752C59.5448 101.509 59.7832 101.163 59.9132 100.712H61.1872C60.9965 101.44 60.6152 102.025 60.0432 102.467C59.4712 102.9 58.7562 103.117 57.8982 103.117C57.2222 103.117 56.6198 102.965 56.0912 102.662C55.5712 102.359 55.1638 101.93 54.8692 101.375C54.5745 100.82 54.4272 100.17 54.4272 99.425ZM62.3236 99.412C62.3236 98.684 62.471 98.047 62.7656 97.501C63.0603 96.9463 63.4633 96.5173 63.9746 96.214C64.4946 95.9107 65.071 95.759 65.7036 95.759C66.3276 95.759 66.8693 95.8933 67.3286 96.162C67.788 96.4307 68.1303 96.7687 68.3556 97.176V95.876H69.5516V103H68.3556V101.674C68.1216 102.09 67.7706 102.437 67.3026 102.714C66.8433 102.983 66.306 103.117 65.6906 103.117C65.058 103.117 64.486 102.961 63.9746 102.649C63.4633 102.337 63.0603 101.899 62.7656 101.336C62.471 100.773 62.3236 100.131 62.3236 99.412ZM68.3556 99.425C68.3556 98.8877 68.2473 98.4197 68.0306 98.021C67.814 97.6223 67.5193 97.319 67.1466 97.111C66.7826 96.8943 66.3796 96.786 65.9376 96.786C65.4956 96.786 65.0926 96.89 64.7286 97.098C64.3646 97.306 64.0743 97.6093 63.8576 98.008C63.641 98.4067 63.5326 98.8747 63.5326 99.412C63.5326 99.958 63.641 100.435 63.8576 100.842C64.0743 101.241 64.3646 101.548 64.7286 101.765C65.0926 101.973 65.4956 102.077 65.9376 102.077C66.3796 102.077 66.7826 101.973 67.1466 101.765C67.5193 101.548 67.814 101.241 68.0306 100.842C68.2473 100.435 68.3556 99.9623 68.3556 99.425ZM72.9938 96.851V101.05C72.9938 101.397 73.0675 101.644 73.2148 101.791C73.3621 101.93 73.6178 101.999 73.9818 101.999H74.8528V103H73.7868C73.1281 103 72.6341 102.848 72.3048 102.545C71.9755 102.242 71.8108 101.743 71.8108 101.05V96.851H70.8878V95.876H71.8108V94.082H72.9938V95.876H74.8528V96.851H72.9938ZM76.8972 94.719C76.6718 94.719 76.4812 94.641 76.3252 94.485C76.1692 94.329 76.0912 94.1383 76.0912 93.913C76.0912 93.6877 76.1692 93.497 76.3252 93.341C76.4812 93.185 76.6718 93.107 76.8972 93.107C77.1138 93.107 77.2958 93.185 77.4432 93.341C77.5992 93.497 77.6772 93.6877 77.6772 93.913C77.6772 94.1383 77.5992 94.329 77.4432 94.485C77.2958 94.641 77.1138 94.719 76.8972 94.719ZM77.4692 95.876V103H76.2862V95.876H77.4692ZM82.5924 103.117C81.925 103.117 81.3184 102.965 80.7724 102.662C80.235 102.359 79.8104 101.93 79.4984 101.375C79.195 100.812 79.0434 100.162 79.0434 99.425C79.0434 98.697 79.1994 98.0557 79.5114 97.501C79.832 96.9377 80.2654 96.5087 80.8114 96.214C81.3574 95.9107 81.9684 95.759 82.6444 95.759C83.3204 95.759 83.9314 95.9107 84.4774 96.214C85.0234 96.5087 85.4524 96.9333 85.7644 97.488C86.085 98.0427 86.2454 98.6883 86.2454 99.425C86.2454 100.162 86.0807 100.812 85.7514 101.375C85.4307 101.93 84.993 102.359 84.4384 102.662C83.8837 102.965 83.2684 103.117 82.5924 103.117ZM82.5924 102.077C83.017 102.077 83.4157 101.977 83.7884 101.778C84.161 101.579 84.46 101.28 84.6854 100.881C84.9194 100.482 85.0364 99.997 85.0364 99.425C85.0364 98.853 84.9237 98.3677 84.6984 97.969C84.473 97.5703 84.1784 97.2757 83.8144 97.085C83.4504 96.8857 83.056 96.786 82.6314 96.786C82.198 96.786 81.7994 96.8857 81.4354 97.085C81.08 97.2757 80.794 97.5703 80.5774 97.969C80.3607 98.3677 80.2524 98.853 80.2524 99.425C80.2524 100.006 80.3564 100.495 80.5644 100.894C80.781 101.293 81.067 101.592 81.4224 101.791C81.7777 101.982 82.1677 102.077 82.5924 102.077ZM91.2718 95.746C92.1385 95.746 92.8405 96.0103 93.3778 96.539C93.9151 97.059 94.1838 97.813 94.1838 98.801V103H93.0138V98.97C93.0138 98.2593 92.8361 97.7177 92.4808 97.345C92.1255 96.9637 91.6401 96.773 91.0248 96.773C90.4008 96.773 89.9025 96.968 89.5298 97.358C89.1658 97.748 88.9838 98.3157 88.9838 99.061V103H87.8008V95.876H88.9838V96.89C89.2178 96.526 89.5341 96.2443 89.9328 96.045C90.3401 95.8457 90.7865 95.746 91.2718 95.746ZM98.6382 103.117C98.0922 103.117 97.6026 103.026 97.1692 102.844C96.7359 102.653 96.3936 102.393 96.1422 102.064C95.8909 101.726 95.7522 101.34 95.7262 100.907H96.9482C96.9829 101.262 97.1476 101.553 97.4422 101.778C97.7456 102.003 98.1399 102.116 98.6252 102.116C99.0759 102.116 99.4312 102.016 99.6912 101.817C99.9512 101.618 100.081 101.366 100.081 101.063C100.081 100.751 99.9426 100.521 99.6652 100.374C99.3879 100.218 98.9589 100.066 98.3782 99.919C97.8496 99.7803 97.4162 99.6417 97.0782 99.503C96.7489 99.3557 96.4629 99.1433 96.2202 98.866C95.9862 98.58 95.8692 98.2073 95.8692 97.748C95.8692 97.384 95.9776 97.0503 96.1942 96.747C96.4109 96.4437 96.7186 96.2053 97.1172 96.032C97.5159 95.85 97.9709 95.759 98.4822 95.759C99.2709 95.759 99.9079 95.9583 100.393 96.357C100.879 96.7557 101.139 97.3017 101.173 97.995H99.9902C99.9642 97.6223 99.8126 97.3233 99.5352 97.098C99.2666 96.8727 98.9026 96.76 98.4432 96.76C98.0186 96.76 97.6806 96.851 97.4292 97.033C97.1779 97.215 97.0522 97.4533 97.0522 97.748C97.0522 97.982 97.1259 98.177 97.2732 98.333C97.4292 98.4803 97.6199 98.6017 97.8452 98.697C98.0792 98.7837 98.3999 98.8833 98.8072 98.996C99.3186 99.1347 99.7346 99.2733 100.055 99.412C100.376 99.542 100.649 99.7413 100.874 100.01C101.108 100.279 101.23 100.63 101.238 101.063C101.238 101.453 101.13 101.804 100.913 102.116C100.697 102.428 100.389 102.675 99.9902 102.857C99.6002 103.03 99.1496 103.117 98.6382 103.117ZM107.817 96.851V101.05C107.817 101.397 107.891 101.644 108.038 101.791C108.185 101.93 108.441 101.999 108.805 101.999H109.676V103H108.61C107.951 103 107.457 102.848 107.128 102.545C106.799 102.242 106.634 101.743 106.634 101.05V96.851H105.711V95.876H106.634V94.082H107.817V95.876H109.676V96.851H107.817ZM114.216 103.117C113.549 103.117 112.942 102.965 112.396 102.662C111.859 102.359 111.434 101.93 111.122 101.375C110.819 100.812 110.667 100.162 110.667 99.425C110.667 98.697 110.823 98.0557 111.135 97.501C111.456 96.9377 111.889 96.5087 112.435 96.214C112.981 95.9107 113.592 95.759 114.268 95.759C114.944 95.759 115.555 95.9107 116.101 96.214C116.647 96.5087 117.076 96.9333 117.388 97.488C117.709 98.0427 117.869 98.6883 117.869 99.425C117.869 100.162 117.705 100.812 117.375 101.375C117.055 101.93 116.617 102.359 116.062 102.662C115.508 102.965 114.892 103.117 114.216 103.117ZM114.216 102.077C114.641 102.077 115.04 101.977 115.412 101.778C115.785 101.579 116.084 101.28 116.309 100.881C116.543 100.482 116.66 99.997 116.66 99.425C116.66 98.853 116.548 98.3677 116.322 97.969C116.097 97.5703 115.802 97.2757 115.438 97.085C115.074 96.8857 114.68 96.786 114.255 96.786C113.822 96.786 113.423 96.8857 113.059 97.085C112.704 97.2757 112.418 97.5703 112.201 97.969C111.985 98.3677 111.876 98.853 111.876 99.425C111.876 100.006 111.98 100.495 112.188 100.894C112.405 101.293 112.691 101.592 113.046 101.791C113.402 101.982 113.792 102.077 114.216 102.077ZM28.865 114.565C28.6137 114.036 28.2497 113.629 27.773 113.343C27.2963 113.048 26.7417 112.901 26.109 112.901C25.4763 112.901 24.9043 113.048 24.393 113.343C23.8903 113.629 23.4917 114.045 23.197 114.591C22.911 115.128 22.768 115.752 22.768 116.463C22.768 117.174 22.911 117.798 23.197 118.335C23.4917 118.872 23.8903 119.288 24.393 119.583C24.9043 119.869 25.4763 120.012 26.109 120.012C26.993 120.012 27.721 119.748 28.293 119.219C28.865 118.69 29.1987 117.975 29.294 117.074H25.68V116.112H30.555V117.022C30.4857 117.767 30.2517 118.452 29.853 119.076C29.4543 119.691 28.93 120.181 28.28 120.545C27.63 120.9 26.9063 121.078 26.109 121.078C25.2683 121.078 24.5013 120.883 23.808 120.493C23.1147 120.094 22.5643 119.544 22.157 118.842C21.7583 118.14 21.559 117.347 21.559 116.463C21.559 115.579 21.7583 114.786 22.157 114.084C22.5643 113.373 23.1147 112.823 23.808 112.433C24.5013 112.034 25.2683 111.835 26.109 111.835C27.071 111.835 27.9203 112.073 28.657 112.55C29.4023 113.027 29.944 113.698 30.282 114.565H28.865ZM38.6192 117.165C38.6192 117.39 38.6062 117.629 38.5802 117.88H32.8862C32.9295 118.582 33.1678 119.132 33.6012 119.531C34.0432 119.921 34.5762 120.116 35.2002 120.116C35.7115 120.116 36.1362 119.999 36.4742 119.765C36.8208 119.522 37.0635 119.202 37.2022 118.803H38.4762C38.2855 119.488 37.9042 120.047 37.3322 120.48C36.7602 120.905 36.0495 121.117 35.2002 121.117C34.5242 121.117 33.9175 120.965 33.3802 120.662C32.8515 120.359 32.4355 119.93 32.1322 119.375C31.8288 118.812 31.6772 118.162 31.6772 117.425C31.6772 116.688 31.8245 116.043 32.1192 115.488C32.4138 114.933 32.8255 114.509 33.3542 114.214C33.8915 113.911 34.5068 113.759 35.2002 113.759C35.8762 113.759 36.4742 113.906 36.9942 114.201C37.5142 114.496 37.9128 114.903 38.1902 115.423C38.4762 115.934 38.6192 116.515 38.6192 117.165ZM37.3972 116.918C37.3972 116.467 37.2975 116.082 37.0982 115.761C36.8988 115.432 36.6258 115.185 36.2792 115.02C35.9412 114.847 35.5642 114.76 35.1482 114.76C34.5502 114.76 34.0388 114.951 33.6142 115.332C33.1982 115.713 32.9598 116.242 32.8992 116.918H37.3972ZM43.2877 121.117C42.6204 121.117 42.0137 120.965 41.4677 120.662C40.9304 120.359 40.5057 119.93 40.1937 119.375C39.8904 118.812 39.7387 118.162 39.7387 117.425C39.7387 116.697 39.8947 116.056 40.2067 115.501C40.5274 114.938 40.9607 114.509 41.5067 114.214C42.0527 113.911 42.6637 113.759 43.3397 113.759C44.0157 113.759 44.6267 113.911 45.1727 114.214C45.7187 114.509 46.1477 114.933 46.4597 115.488C46.7804 116.043 46.9407 116.688 46.9407 117.425C46.9407 118.162 46.776 118.812 46.4467 119.375C46.126 119.93 45.6884 120.359 45.1337 120.662C44.579 120.965 43.9637 121.117 43.2877 121.117ZM43.2877 120.077C43.7124 120.077 44.111 119.977 44.4837 119.778C44.8564 119.579 45.1554 119.28 45.3807 118.881C45.6147 118.482 45.7317 117.997 45.7317 117.425C45.7317 116.853 45.619 116.368 45.3937 115.969C45.1684 115.57 44.8737 115.276 44.5097 115.085C44.1457 114.886 43.7514 114.786 43.3267 114.786C42.8934 114.786 42.4947 114.886 42.1307 115.085C41.7754 115.276 41.4894 115.57 41.2727 115.969C41.056 116.368 40.9477 116.853 40.9477 117.425C40.9477 118.006 41.0517 118.495 41.2597 118.894C41.4764 119.293 41.7624 119.592 42.1177 119.791C42.473 119.982 42.863 120.077 43.2877 120.077ZM53.4361 115.735V116.736H48.2491V115.735H53.4361ZM56.8393 111.38V121H55.6563V111.38H56.8393ZM61.9625 121.117C61.2952 121.117 60.6885 120.965 60.1425 120.662C59.6052 120.359 59.1805 119.93 58.8685 119.375C58.5652 118.812 58.4135 118.162 58.4135 117.425C58.4135 116.697 58.5695 116.056 58.8815 115.501C59.2022 114.938 59.6355 114.509 60.1815 114.214C60.7275 113.911 61.3385 113.759 62.0145 113.759C62.6905 113.759 63.3015 113.911 63.8475 114.214C64.3935 114.509 64.8225 114.933 65.1345 115.488C65.4552 116.043 65.6155 116.688 65.6155 117.425C65.6155 118.162 65.4508 118.812 65.1215 119.375C64.8008 119.93 64.3632 120.359 63.8085 120.662C63.2538 120.965 62.6385 121.117 61.9625 121.117ZM61.9625 120.077C62.3872 120.077 62.7858 119.977 63.1585 119.778C63.5312 119.579 63.8302 119.28 64.0555 118.881C64.2895 118.482 64.4065 117.997 64.4065 117.425C64.4065 116.853 64.2938 116.368 64.0685 115.969C63.8432 115.57 63.5485 115.276 63.1845 115.085C62.8205 114.886 62.4262 114.786 62.0015 114.786C61.5682 114.786 61.1695 114.886 60.8055 115.085C60.4502 115.276 60.1642 115.57 59.9475 115.969C59.7308 116.368 59.6225 116.853 59.6225 117.425C59.6225 118.006 59.7265 118.495 59.9345 118.894C60.1512 119.293 60.4372 119.592 60.7925 119.791C61.1478 119.982 61.5378 120.077 61.9625 120.077ZM66.7289 117.425C66.7289 116.688 66.8763 116.047 67.1709 115.501C67.4656 114.946 67.8729 114.517 68.3929 114.214C68.9216 113.911 69.5239 113.759 70.1999 113.759C71.0753 113.759 71.7946 113.971 72.3579 114.396C72.9299 114.821 73.3069 115.41 73.4889 116.164H72.2149C72.0936 115.731 71.8553 115.388 71.4999 115.137C71.1533 114.886 70.7199 114.76 70.1999 114.76C69.5239 114.76 68.9779 114.994 68.5619 115.462C68.1459 115.921 67.9379 116.576 67.9379 117.425C67.9379 118.283 68.1459 118.946 68.5619 119.414C68.9779 119.882 69.5239 120.116 70.1999 120.116C70.7199 120.116 71.1533 119.995 71.4999 119.752C71.8466 119.509 72.0849 119.163 72.2149 118.712H73.4889C73.2983 119.44 72.9169 120.025 72.3449 120.467C71.7729 120.9 71.0579 121.117 70.1999 121.117C69.5239 121.117 68.9216 120.965 68.3929 120.662C67.8729 120.359 67.4656 119.93 67.1709 119.375C66.8763 118.82 66.7289 118.17 66.7289 117.425ZM74.6254 117.412C74.6254 116.684 74.7727 116.047 75.0674 115.501C75.3621 114.946 75.7651 114.517 76.2764 114.214C76.7964 113.911 77.3727 113.759 78.0054 113.759C78.6294 113.759 79.1711 113.893 79.6304 114.162C80.0897 114.431 80.4321 114.769 80.6574 115.176V113.876H81.8534V121H80.6574V119.674C80.4234 120.09 80.0724 120.437 79.6044 120.714C79.1451 120.983 78.6077 121.117 77.9924 121.117C77.3597 121.117 76.7877 120.961 76.2764 120.649C75.7651 120.337 75.3621 119.899 75.0674 119.336C74.7727 118.773 74.6254 118.131 74.6254 117.412ZM80.6574 117.425C80.6574 116.888 80.5491 116.42 80.3324 116.021C80.1157 115.622 79.8211 115.319 79.4484 115.111C79.0844 114.894 78.6814 114.786 78.2394 114.786C77.7974 114.786 77.3944 114.89 77.0304 115.098C76.6664 115.306 76.3761 115.609 76.1594 116.008C75.9427 116.407 75.8344 116.875 75.8344 117.412C75.8344 117.958 75.9427 118.435 76.1594 118.842C76.3761 119.241 76.6664 119.548 77.0304 119.765C77.3944 119.973 77.7974 120.077 78.2394 120.077C78.6814 120.077 79.0844 119.973 79.4484 119.765C79.8211 119.548 80.1157 119.241 80.3324 118.842C80.5491 118.435 80.6574 117.962 80.6574 117.425ZM85.2956 114.851V119.05C85.2956 119.397 85.3692 119.644 85.5166 119.791C85.6639 119.93 85.9196 119.999 86.2836 119.999H87.1546V121H86.0886C85.4299 121 84.9359 120.848 84.6066 120.545C84.2772 120.242 84.1126 119.743 84.1126 119.05V114.851H83.1896V113.876H84.1126V112.082H85.2956V113.876H87.1546V114.851H85.2956ZM95.0879 117.165C95.0879 117.39 95.0749 117.629 95.0489 117.88H89.3549C89.3982 118.582 89.6366 119.132 90.0699 119.531C90.5119 119.921 91.0449 120.116 91.6689 120.116C92.1802 120.116 92.6049 119.999 92.9429 119.765C93.2896 119.522 93.5322 119.202 93.6709 118.803H94.9449C94.7542 119.488 94.3729 120.047 93.8009 120.48C93.2289 120.905 92.5182 121.117 91.6689 121.117C90.9929 121.117 90.3862 120.965 89.8489 120.662C89.3202 120.359 88.9042 119.93 88.6009 119.375C88.2976 118.812 88.1459 118.162 88.1459 117.425C88.1459 116.688 88.2932 116.043 88.5879 115.488C88.8826 114.933 89.2942 114.509 89.8229 114.214C90.3602 113.911 90.9756 113.759 91.6689 113.759C92.3449 113.759 92.9429 113.906 93.4629 114.201C93.9829 114.496 94.3816 114.903 94.6589 115.423C94.9449 115.934 95.0879 116.515 95.0879 117.165ZM93.8659 116.918C93.8659 116.467 93.7662 116.082 93.5669 115.761C93.3676 115.432 93.0946 115.185 92.7479 115.02C92.4099 114.847 92.0329 114.76 91.6169 114.76C91.0189 114.76 90.5076 114.951 90.0829 115.332C89.6669 115.713 89.4286 116.242 89.3679 116.918H93.8659ZM96.2074 117.412C96.2074 116.684 96.3548 116.047 96.6494 115.501C96.9441 114.946 97.3471 114.517 97.8584 114.214C98.3784 113.911 98.9591 113.759 99.6004 113.759C100.155 113.759 100.671 113.889 101.147 114.149C101.624 114.4 101.988 114.734 102.239 115.15V111.38H103.435V121H102.239V119.661C102.005 120.086 101.659 120.437 101.199 120.714C100.74 120.983 100.203 121.117 99.5874 121.117C98.9548 121.117 98.3784 120.961 97.8584 120.649C97.3471 120.337 96.9441 119.899 96.6494 119.336C96.3548 118.773 96.2074 118.131 96.2074 117.412ZM102.239 117.425C102.239 116.888 102.131 116.42 101.914 116.021C101.698 115.622 101.403 115.319 101.03 115.111C100.666 114.894 100.263 114.786 99.8214 114.786C99.3794 114.786 98.9764 114.89 98.6124 115.098C98.2484 115.306 97.9581 115.609 97.7414 116.008C97.5248 116.407 97.4164 116.875 97.4164 117.412C97.4164 117.958 97.5248 118.435 97.7414 118.842C97.9581 119.241 98.2484 119.548 98.6124 119.765C98.9764 119.973 99.3794 120.077 99.8214 120.077C100.263 120.077 100.666 119.973 101.03 119.765C101.403 119.548 101.698 119.241 101.914 118.842C102.131 118.435 102.239 117.962 102.239 117.425ZM25.108 139.117C24.4407 139.117 23.834 138.965 23.288 138.662C22.7507 138.359 22.326 137.93 22.014 137.375C21.7107 136.812 21.559 136.162 21.559 135.425C21.559 134.697 21.715 134.056 22.027 133.501C22.3477 132.938 22.781 132.509 23.327 132.214C23.873 131.911 24.484 131.759 25.16 131.759C25.836 131.759 26.447 131.911 26.993 132.214C27.539 132.509 27.968 132.933 28.28 133.488C28.6007 134.043 28.761 134.688 28.761 135.425C28.761 136.162 28.5963 136.812 28.267 137.375C27.9463 137.93 27.5087 138.359 26.954 138.662C26.3993 138.965 25.784 139.117 25.108 139.117ZM25.108 138.077C25.5327 138.077 25.9313 137.977 26.304 137.778C26.6767 137.579 26.9757 137.28 27.201 136.881C27.435 136.482 27.552 135.997 27.552 135.425C27.552 134.853 27.4393 134.368 27.214 133.969C26.9887 133.57 26.694 133.276 26.33 133.085C25.966 132.886 25.5717 132.786 25.147 132.786C24.7137 132.786 24.315 132.886 23.951 133.085C23.5957 133.276 23.3097 133.57 23.093 133.969C22.8763 134.368 22.768 134.853 22.768 135.425C22.768 136.006 22.872 136.495 23.08 136.894C23.2967 137.293 23.5827 137.592 23.938 137.791C24.2933 137.982 24.6833 138.077 25.108 138.077ZM31.4994 133.189C31.7334 132.782 32.0801 132.444 32.5394 132.175C33.0074 131.898 33.5491 131.759 34.1644 131.759C34.7971 131.759 35.3691 131.911 35.8804 132.214C36.4004 132.517 36.8078 132.946 37.1024 133.501C37.3971 134.047 37.5444 134.684 37.5444 135.412C37.5444 136.131 37.3971 136.773 37.1024 137.336C36.8078 137.899 36.4004 138.337 35.8804 138.649C35.3691 138.961 34.7971 139.117 34.1644 139.117C33.5578 139.117 33.0204 138.983 32.5524 138.714C32.0931 138.437 31.7421 138.094 31.4994 137.687V142.38H30.3164V131.876H31.4994V133.189ZM36.3354 135.412C36.3354 134.875 36.2271 134.407 36.0104 134.008C35.7938 133.609 35.4991 133.306 35.1264 133.098C34.7624 132.89 34.3594 132.786 33.9174 132.786C33.4841 132.786 33.0811 132.894 32.7084 133.111C32.3444 133.319 32.0498 133.627 31.8244 134.034C31.6078 134.433 31.4994 134.896 31.4994 135.425C31.4994 135.962 31.6078 136.435 31.8244 136.842C32.0498 137.241 32.3444 137.548 32.7084 137.765C33.0811 137.973 33.4841 138.077 33.9174 138.077C34.3594 138.077 34.7624 137.973 35.1264 137.765C35.4991 137.548 35.7938 137.241 36.0104 136.842C36.2271 136.435 36.3354 135.958 36.3354 135.412ZM40.2846 133.189C40.5186 132.782 40.8653 132.444 41.3246 132.175C41.7926 131.898 42.3343 131.759 42.9496 131.759C43.5823 131.759 44.1543 131.911 44.6656 132.214C45.1856 132.517 45.5929 132.946 45.8876 133.501C46.1823 134.047 46.3296 134.684 46.3296 135.412C46.3296 136.131 46.1823 136.773 45.8876 137.336C45.5929 137.899 45.1856 138.337 44.6656 138.649C44.1543 138.961 43.5823 139.117 42.9496 139.117C42.3429 139.117 41.8056 138.983 41.3376 138.714C40.8783 138.437 40.5273 138.094 40.2846 137.687V142.38H39.1016V131.876H40.2846V133.189ZM45.1206 135.412C45.1206 134.875 45.0123 134.407 44.7956 134.008C44.5789 133.609 44.2843 133.306 43.9116 133.098C43.5476 132.89 43.1446 132.786 42.7026 132.786C42.2693 132.786 41.8663 132.894 41.4936 133.111C41.1296 133.319 40.8349 133.627 40.6096 134.034C40.3929 134.433 40.2846 134.896 40.2846 135.425C40.2846 135.962 40.3929 136.435 40.6096 136.842C40.8349 137.241 41.1296 137.548 41.4936 137.765C41.8663 137.973 42.2693 138.077 42.7026 138.077C43.1446 138.077 43.5476 137.973 43.9116 137.765C44.2843 137.548 44.5789 137.241 44.7956 136.842C45.0123 136.435 45.1206 135.958 45.1206 135.412ZM50.9937 139.117C50.3264 139.117 49.7197 138.965 49.1737 138.662C48.6364 138.359 48.2117 137.93 47.8997 137.375C47.5964 136.812 47.4447 136.162 47.4447 135.425C47.4447 134.697 47.6007 134.056 47.9127 133.501C48.2334 132.938 48.6667 132.509 49.2127 132.214C49.7587 131.911 50.3697 131.759 51.0457 131.759C51.7217 131.759 52.3327 131.911 52.8787 132.214C53.4247 132.509 53.8537 132.933 54.1657 133.488C54.4864 134.043 54.6467 134.688 54.6467 135.425C54.6467 136.162 54.4821 136.812 54.1527 137.375C53.8321 137.93 53.3944 138.359 52.8397 138.662C52.2851 138.965 51.6697 139.117 50.9937 139.117ZM50.9937 138.077C51.4184 138.077 51.8171 137.977 52.1897 137.778C52.5624 137.579 52.8614 137.28 53.0867 136.881C53.3207 136.482 53.4377 135.997 53.4377 135.425C53.4377 134.853 53.3251 134.368 53.0997 133.969C52.8744 133.57 52.5797 133.276 52.2157 133.085C51.8517 132.886 51.4574 132.786 51.0327 132.786C50.5994 132.786 50.2007 132.886 49.8367 133.085C49.4814 133.276 49.1954 133.57 48.9787 133.969C48.7621 134.368 48.6537 134.853 48.6537 135.425C48.6537 136.006 48.7577 136.495 48.9657 136.894C49.1824 137.293 49.4684 137.592 49.8237 137.791C50.1791 137.982 50.5691 138.077 50.9937 138.077ZM57.3852 133.033C57.5932 132.626 57.8878 132.309 58.2692 132.084C58.6592 131.859 59.1315 131.746 59.6862 131.746V132.968H59.3742C58.0482 132.968 57.3852 133.687 57.3852 135.126V139H56.2022V131.876H57.3852V133.033ZM62.4948 132.851V137.05C62.4948 137.397 62.5684 137.644 62.7158 137.791C62.8631 137.93 63.1188 137.999 63.4828 137.999H64.3538V139H63.2878C62.6291 139 62.1351 138.848 61.8058 138.545C61.4764 138.242 61.3118 137.743 61.3118 137.05V132.851H60.3888V131.876H61.3118V130.082H62.4948V131.876H64.3538V132.851H62.4948ZM72.1051 131.876V139H70.9221V137.947C70.6968 138.311 70.3805 138.597 69.9731 138.805C69.5745 139.004 69.1325 139.104 68.6471 139.104C68.0925 139.104 67.5941 138.991 67.1521 138.766C66.7101 138.532 66.3591 138.185 66.0991 137.726C65.8478 137.267 65.7221 136.708 65.7221 136.049V131.876H66.8921V135.893C66.8921 136.595 67.0698 137.137 67.4251 137.518C67.7805 137.891 68.2658 138.077 68.8811 138.077C69.5138 138.077 70.0121 137.882 70.3761 137.492C70.7401 137.102 70.9221 136.534 70.9221 135.789V131.876H72.1051ZM77.5736 131.746C78.4402 131.746 79.1422 132.01 79.6796 132.539C80.2169 133.059 80.4856 133.813 80.4856 134.801V139H79.3156V134.97C79.3156 134.259 79.1379 133.718 78.7826 133.345C78.4272 132.964 77.9419 132.773 77.3266 132.773C76.7026 132.773 76.2042 132.968 75.8316 133.358C75.4676 133.748 75.2856 134.316 75.2856 135.061V139H74.1026V131.876H75.2856V132.89C75.5196 132.526 75.8359 132.244 76.2346 132.045C76.6419 131.846 77.0882 131.746 77.5736 131.746ZM83.029 130.719C82.8037 130.719 82.613 130.641 82.457 130.485C82.301 130.329 82.223 130.138 82.223 129.913C82.223 129.688 82.301 129.497 82.457 129.341C82.613 129.185 82.8037 129.107 83.029 129.107C83.2457 129.107 83.4277 129.185 83.575 129.341C83.731 129.497 83.809 129.688 83.809 129.913C83.809 130.138 83.731 130.329 83.575 130.485C83.4277 130.641 83.2457 130.719 83.029 130.719ZM83.601 131.876V139H82.418V131.876H83.601ZM87.0602 132.851V137.05C87.0602 137.397 87.1339 137.644 87.2812 137.791C87.4285 137.93 87.6842 137.999 88.0482 137.999H88.9192V139H87.8532C87.1945 139 86.7005 138.848 86.3712 138.545C86.0419 138.242 85.8772 137.743 85.8772 137.05V132.851H84.9542V131.876H85.8772V130.082H87.0602V131.876H88.9192V132.851H87.0602ZM90.9636 130.719C90.7382 130.719 90.5476 130.641 90.3916 130.485C90.2356 130.329 90.1576 130.138 90.1576 129.913C90.1576 129.688 90.2356 129.497 90.3916 129.341C90.5476 129.185 90.7382 129.107 90.9636 129.107C91.1802 129.107 91.3622 129.185 91.5096 129.341C91.6656 129.497 91.7436 129.688 91.7436 129.913C91.7436 130.138 91.6656 130.329 91.5096 130.485C91.3622 130.641 91.1802 130.719 90.9636 130.719ZM91.5356 131.876V139H90.3526V131.876H91.5356ZM100.052 135.165C100.052 135.39 100.039 135.629 100.013 135.88H94.3188C94.3621 136.582 94.6004 137.132 95.0338 137.531C95.4758 137.921 96.0088 138.116 96.6328 138.116C97.1441 138.116 97.5688 137.999 97.9068 137.765C98.2534 137.522 98.4961 137.202 98.6348 136.803H99.9088C99.7181 137.488 99.3368 138.047 98.7648 138.48C98.1928 138.905 97.4821 139.117 96.6328 139.117C95.9568 139.117 95.3501 138.965 94.8128 138.662C94.2841 138.359 93.8681 137.93 93.5648 137.375C93.2614 136.812 93.1098 136.162 93.1098 135.425C93.1098 134.688 93.2571 134.043 93.5518 133.488C93.8464 132.933 94.2581 132.509 94.7868 132.214C95.3241 131.911 95.9394 131.759 96.6328 131.759C97.3088 131.759 97.9068 131.906 98.4268 132.201C98.9468 132.496 99.3454 132.903 99.6228 133.423C99.9088 133.934 100.052 134.515 100.052 135.165ZM98.8298 134.918C98.8298 134.467 98.7301 134.082 98.5308 133.761C98.3314 133.432 98.0584 133.185 97.7118 133.02C97.3738 132.847 96.9968 132.76 96.5808 132.76C95.9828 132.76 95.4714 132.951 95.0468 133.332C94.6308 133.713 94.3924 134.242 94.3318 134.918H98.8298ZM104.135 139.117C103.589 139.117 103.1 139.026 102.666 138.844C102.233 138.653 101.891 138.393 101.639 138.064C101.388 137.726 101.249 137.34 101.223 136.907H102.445C102.48 137.262 102.645 137.553 102.939 137.778C103.243 138.003 103.637 138.116 104.122 138.116C104.573 138.116 104.928 138.016 105.188 137.817C105.448 137.618 105.578 137.366 105.578 137.063C105.578 136.751 105.44 136.521 105.162 136.374C104.885 136.218 104.456 136.066 103.875 135.919C103.347 135.78 102.913 135.642 102.575 135.503C102.246 135.356 101.96 135.143 101.717 134.866C101.483 134.58 101.366 134.207 101.366 133.748C101.366 133.384 101.475 133.05 101.691 132.747C101.908 132.444 102.216 132.205 102.614 132.032C103.013 131.85 103.468 131.759 103.979 131.759C104.768 131.759 105.405 131.958 105.89 132.357C106.376 132.756 106.636 133.302 106.67 133.995H105.487C105.461 133.622 105.31 133.323 105.032 133.098C104.764 132.873 104.4 132.76 103.94 132.76C103.516 132.76 103.178 132.851 102.926 133.033C102.675 133.215 102.549 133.453 102.549 133.748C102.549 133.982 102.623 134.177 102.77 134.333C102.926 134.48 103.117 134.602 103.342 134.697C103.576 134.784 103.897 134.883 104.304 134.996C104.816 135.135 105.232 135.273 105.552 135.412C105.873 135.542 106.146 135.741 106.371 136.01C106.605 136.279 106.727 136.63 106.735 137.063C106.735 137.453 106.627 137.804 106.41 138.116C106.194 138.428 105.886 138.675 105.487 138.857C105.097 139.03 104.647 139.117 104.135 139.117Z" fill="#030303"/>
</g>
<defs>
<filter id="filter0_d_1_365" x="0" y="0" width="180" height="168" filterUnits="userSpaceOnUse" color-interpolation-filters="sRGB">
<feFlood flood-opacity="0" result="BackgroundImageFix"/>
<feColorMatrix in="SourceAlpha" type="matrix" values="0 0 0 0 0 0 0 0 0 0 0 0 0 0 0 0 0 0 127 0" result="hardAlpha"/>
<feOffset dy="2"/>
<feGaussianBlur stdDeviation="2"/>
<feColorMatrix type="matrix" values="0 0 0 0 0 0 0 0 0 0 0 0 0 0 0 0 0 0 0.15 0"/>
<feBlend mode="normal" in2="BackgroundImageFix" result="effect1_dropShadow_1_365"/>
<feBlend mode="normal" in="SourceGraphic" in2="effect1_dropShadow_1_365" result="shape"/>
</filter>
</defs>
</svg>
