<svg width="180" height="150" viewBox="0 0 180 150" fill="none" xmlns="http://www.w3.org/2000/svg">
<g filter="url(#filter0_d_1_363)">
<rect x="4" y="2" width="172" height="142" rx="10" fill="white"/>
<rect x="4.5" y="2.5" width="171" height="141" rx="9.5" stroke="#E9EBEF"/>
<path d="M44.25 37.75V40.75C44.25 41.5784 43.5784 42.25 42.75 42.25H39.75" stroke="#5A89EA" stroke-width="1.5" stroke-linecap="round" stroke-linejoin="round"/>
<path d="M39.75 19.75H42.75C43.5784 19.75 44.25 20.4216 44.25 21.25V24.25" stroke="#5A89EA" stroke-width="1.5" stroke-linecap="round" stroke-linejoin="round"/>
<path d="M21.75 24.25V21.25C21.75 20.4216 22.4216 19.75 23.25 19.75H26.25" stroke="#5A89EA" stroke-width="1.5" stroke-linecap="round" stroke-linejoin="round"/>
<path d="M26.25 42.25H23.25C22.4216 42.25 21.75 41.5784 21.75 40.75V37.75" stroke="#5A89EA" stroke-width="1.5" stroke-linecap="round" stroke-linejoin="round"/>
<path d="M26.291 38.5C26.6738 35.0839 29.5625 32.5009 33 32.5009C36.4375 32.5009 39.3262 35.0839 39.709 38.5" stroke="#5A89EA" stroke-width="1.5" stroke-linecap="round" stroke-linejoin="round"/>
<path d="M28.876 26.986V27.986C28.9148 29.1374 28.6162 30.275 28.017 31.259" stroke="#5A89EA" stroke-width="1.5" stroke-linecap="round" stroke-linejoin="round"/>
<path d="M37.124 26.986V27.986C37.0852 29.1374 37.3838 30.275 37.983 31.259" stroke="#5A89EA" stroke-width="1.5" stroke-linecap="round" stroke-linejoin="round"/>
<path d="M28.888 27.205C30.4684 27.1938 31.9672 26.5013 33 25.305C34.0328 26.5013 35.5316 27.1938 37.112 27.205" stroke="#5A89EA" stroke-width="1.5" stroke-linecap="round" stroke-linejoin="round"/>
<path fill-rule="evenodd" clip-rule="evenodd" d="M33 31C35.2782 31 37.125 29.1532 37.125 26.875C37.125 24.5968 35.2782 22.75 33 22.75C30.7218 22.75 28.875 24.5968 28.875 26.875C28.875 29.1532 30.7218 31 33 31Z" stroke="#5A89EA" stroke-width="1.5" stroke-linecap="round" stroke-linejoin="round"/>
<path d="M24.68 78.2C23.6133 78.2 22.8067 77.9 22.26 77.3C21.7133 76.6867 21.44 75.8133 21.44 74.68V73.88H23.52V74.84C23.52 75.7467 23.9 76.2 24.66 76.2C25.0333 76.2 25.3133 76.0933 25.5 75.88C25.7 75.6533 25.8 75.2933 25.8 74.8C25.8 74.2133 25.6667 73.7 25.4 73.26C25.1333 72.8067 24.64 72.2667 23.92 71.64C23.0133 70.84 22.38 70.12 22.02 69.48C21.66 68.8267 21.48 68.0933 21.48 67.28C21.48 66.1733 21.76 65.32 22.32 64.72C22.88 64.1067 23.6933 63.8 24.76 63.8C25.8133 63.8 26.6067 64.1067 27.14 64.72C27.6867 65.32 27.96 66.1867 27.96 67.32V67.9H25.88V67.18C25.88 66.7 25.7867 66.3533 25.6 66.14C25.4133 65.9133 25.14 65.8 24.78 65.8C24.0467 65.8 23.68 66.2467 23.68 67.14C23.68 67.6467 23.8133 68.12 24.08 68.56C24.36 69 24.86 69.5333 25.58 70.16C26.5 70.96 27.1333 71.6867 27.48 72.34C27.8267 72.9933 28 73.76 28 74.64C28 75.7867 27.7133 76.6667 27.14 77.28C26.58 77.8933 25.76 78.2 24.68 78.2ZM32.3614 78.2C31.3081 78.2 30.5014 77.9 29.9414 77.3C29.3947 76.7 29.1214 75.8533 29.1214 74.76V67.24C29.1214 66.1467 29.3947 65.3 29.9414 64.7C30.5014 64.1 31.3081 63.8 32.3614 63.8C33.4147 63.8 34.2147 64.1 34.7614 64.7C35.3214 65.3 35.6014 66.1467 35.6014 67.24V68.72H33.5214V67.1C33.5214 66.2333 33.1547 65.8 32.4214 65.8C31.6881 65.8 31.3214 66.2333 31.3214 67.1V74.92C31.3214 75.7733 31.6881 76.2 32.4214 76.2C33.1547 76.2 33.5214 75.7733 33.5214 74.92V72.78H35.6014V74.76C35.6014 75.8533 35.3214 76.7 34.7614 77.3C34.2147 77.9 33.4147 78.2 32.3614 78.2ZM36.9177 64H39.1177V69.7H41.4777V64H43.6777V78H41.4777V71.7H39.1177V78H36.9177V64ZM45.3161 64H51.3161V66H47.5161V69.7H50.5361V71.7H47.5161V76H51.3161V78H45.3161V64ZM52.5817 64H55.9417C57.0351 64 57.8551 64.2933 58.4017 64.88C58.9484 65.4667 59.2217 66.3267 59.2217 67.46V74.54C59.2217 75.6733 58.9484 76.5333 58.4017 77.12C57.8551 77.7067 57.0351 78 55.9417 78H52.5817V64ZM55.9017 76C56.2617 76 56.5351 75.8933 56.7217 75.68C56.9217 75.4667 57.0217 75.12 57.0217 74.64V67.36C57.0217 66.88 56.9217 66.5333 56.7217 66.32C56.5351 66.1067 56.2617 66 55.9017 66H54.7817V76H55.9017ZM63.9067 78.2C62.8401 78.2 62.0267 77.9 61.4667 77.3C60.9067 76.6867 60.6267 75.8133 60.6267 74.68V64H62.8267V74.84C62.8267 75.32 62.9201 75.6667 63.1067 75.88C63.3067 76.0933 63.5867 76.2 63.9467 76.2C64.3067 76.2 64.5801 76.0933 64.7667 75.88C64.9667 75.6667 65.0667 75.32 65.0667 74.84V64H67.1867V74.68C67.1867 75.8133 66.9067 76.6867 66.3467 77.3C65.7867 77.9 64.9734 78.2 63.9067 78.2ZM68.7536 64H70.9536V76H74.5736V78H68.7536V64ZM75.6286 64H77.8286V78H75.6286V64ZM79.4763 64H82.2363L84.3763 72.38H84.4163V64H86.3763V78H84.1163L81.4763 67.78H81.4363V78H79.4763V64ZM91.1314 78.2C90.0647 78.2 89.2514 77.9 88.6914 77.3C88.1314 76.6867 87.8514 75.8133 87.8514 74.68V67.32C87.8514 66.1867 88.1314 65.32 88.6914 64.72C89.2514 64.1067 90.0647 63.8 91.1314 63.8C92.1981 63.8 93.0114 64.1067 93.5714 64.72C94.1314 65.32 94.4114 66.1867 94.4114 67.32V68.52H92.3314V67.18C92.3314 66.26 91.9514 65.8 91.1914 65.8C90.4314 65.8 90.0514 66.26 90.0514 67.18V74.84C90.0514 75.7467 90.4314 76.2 91.1914 76.2C91.9514 76.2 92.3314 75.7467 92.3314 74.84V72.1H91.2314V70.1H94.4114V74.68C94.4114 75.8133 94.1314 76.6867 93.5714 77.3C93.0114 77.9 92.1981 78.2 91.1314 78.2Z" fill="#030303"/>
<path d="M24.874 103.091C24.276 103.091 23.7387 102.987 23.262 102.779C22.794 102.562 22.4257 102.268 22.157 101.895C21.8883 101.514 21.7497 101.076 21.741 100.582H23.002C23.0453 101.007 23.2187 101.366 23.522 101.661C23.834 101.947 24.2847 102.09 24.874 102.09C25.4373 102.09 25.8793 101.951 26.2 101.674C26.5293 101.388 26.694 101.024 26.694 100.582C26.694 100.235 26.5987 99.9537 26.408 99.737C26.2173 99.5203 25.979 99.3557 25.693 99.243C25.407 99.1303 25.0213 99.009 24.536 98.879C23.938 98.723 23.457 98.567 23.093 98.411C22.7377 98.255 22.43 98.0123 22.17 97.683C21.9187 97.345 21.793 96.8943 21.793 96.331C21.793 95.837 21.9187 95.3993 22.17 95.018C22.4213 94.6367 22.7723 94.342 23.223 94.134C23.6823 93.926 24.2067 93.822 24.796 93.822C25.6453 93.822 26.3387 94.0343 26.876 94.459C27.422 94.8837 27.7297 95.447 27.799 96.149H26.499C26.4557 95.8023 26.2737 95.499 25.953 95.239C25.6323 94.9703 25.2077 94.836 24.679 94.836C24.185 94.836 23.782 94.966 23.47 95.226C23.158 95.4773 23.002 95.8327 23.002 96.292C23.002 96.6213 23.093 96.89 23.275 97.098C23.4657 97.306 23.6953 97.4663 23.964 97.579C24.2413 97.683 24.627 97.8043 25.121 97.943C25.719 98.1077 26.2 98.2723 26.564 98.437C26.928 98.593 27.24 98.84 27.5 99.178C27.76 99.5073 27.89 99.958 27.89 100.53C27.89 100.972 27.773 101.388 27.539 101.778C27.305 102.168 26.9583 102.484 26.499 102.727C26.0397 102.97 25.498 103.091 24.874 103.091ZM36.1309 99.165C36.1309 99.3903 36.1179 99.6287 36.0919 99.88H30.3979C30.4412 100.582 30.6795 101.132 31.1129 101.531C31.5549 101.921 32.0879 102.116 32.7119 102.116C33.2232 102.116 33.6479 101.999 33.9859 101.765C34.3325 101.522 34.5752 101.202 34.7139 100.803H35.9879C35.7972 101.488 35.4159 102.047 34.8439 102.48C34.2719 102.905 33.5612 103.117 32.7119 103.117C32.0359 103.117 31.4292 102.965 30.8919 102.662C30.3632 102.359 29.9472 101.93 29.6439 101.375C29.3405 100.812 29.1889 100.162 29.1889 99.425C29.1889 98.6883 29.3362 98.0427 29.6309 97.488C29.9255 96.9333 30.3372 96.5087 30.8659 96.214C31.4032 95.9107 32.0185 95.759 32.7119 95.759C33.3879 95.759 33.9859 95.9063 34.5059 96.201C35.0259 96.4957 35.4245 96.903 35.7019 97.423C35.9879 97.9343 36.1309 98.515 36.1309 99.165ZM34.9089 98.918C34.9089 98.4673 34.8092 98.0817 34.6099 97.761C34.4105 97.4317 34.1375 97.1847 33.7909 97.02C33.4529 96.8467 33.0759 96.76 32.6599 96.76C32.0619 96.76 31.5505 96.9507 31.1259 97.332C30.7099 97.7133 30.4715 98.242 30.4109 98.918H34.9089ZM39.1354 96.851V101.05C39.1354 101.397 39.2091 101.644 39.3564 101.791C39.5037 101.93 39.7594 101.999 40.1234 101.999H40.9944V103H39.9284C39.2697 103 38.7757 102.848 38.4464 102.545C38.1171 102.242 37.9524 101.743 37.9524 101.05V96.851H37.0294V95.876H37.9524V94.082H39.1354V95.876H40.9944V96.851H39.1354ZM47.3366 96.851V101.05C47.3366 101.397 47.4102 101.644 47.5576 101.791C47.7049 101.93 47.9606 101.999 48.3246 101.999H49.1956V103H48.1296C47.4709 103 46.9769 102.848 46.6476 102.545C46.3182 102.242 46.1536 101.743 46.1536 101.05V96.851H45.2306V95.876H46.1536V94.082H47.3366V95.876H49.1956V96.851H47.3366ZM57.1289 99.165C57.1289 99.3903 57.1159 99.6287 57.0899 99.88H51.3959C51.4393 100.582 51.6776 101.132 52.1109 101.531C52.5529 101.921 53.0859 102.116 53.7099 102.116C54.2213 102.116 54.6459 101.999 54.9839 101.765C55.3306 101.522 55.5733 101.202 55.7119 100.803H56.9859C56.7953 101.488 56.4139 102.047 55.8419 102.48C55.2699 102.905 54.5593 103.117 53.7099 103.117C53.0339 103.117 52.4273 102.965 51.8899 102.662C51.3613 102.359 50.9453 101.93 50.6419 101.375C50.3386 100.812 50.1869 100.162 50.1869 99.425C50.1869 98.6883 50.3343 98.0427 50.6289 97.488C50.9236 96.9333 51.3353 96.5087 51.8639 96.214C52.4013 95.9107 53.0166 95.759 53.7099 95.759C54.3859 95.759 54.9839 95.9063 55.5039 96.201C56.0239 96.4957 56.4226 96.903 56.6999 97.423C56.9859 97.9343 57.1289 98.515 57.1289 99.165ZM55.9069 98.918C55.9069 98.4673 55.8073 98.0817 55.6079 97.761C55.4086 97.4317 55.1356 97.1847 54.7889 97.02C54.4509 96.8467 54.0739 96.76 53.6579 96.76C53.0599 96.76 52.5486 96.9507 52.1239 97.332C51.7079 97.7133 51.4696 98.242 51.4089 98.918H55.9069ZM61.2125 103.117C60.6665 103.117 60.1768 103.026 59.7435 102.844C59.3101 102.653 58.9678 102.393 58.7165 102.064C58.4651 101.726 58.3265 101.34 58.3005 100.907H59.5225C59.5571 101.262 59.7218 101.553 60.0165 101.778C60.3198 102.003 60.7141 102.116 61.1995 102.116C61.6501 102.116 62.0055 102.016 62.2655 101.817C62.5255 101.618 62.6555 101.366 62.6555 101.063C62.6555 100.751 62.5168 100.521 62.2395 100.374C61.9621 100.218 61.5331 100.066 60.9525 99.919C60.4238 99.7803 59.9905 99.6417 59.6525 99.503C59.3231 99.3557 59.0371 99.1433 58.7945 98.866C58.5605 98.58 58.4435 98.2073 58.4435 97.748C58.4435 97.384 58.5518 97.0503 58.7685 96.747C58.9851 96.4437 59.2928 96.2053 59.6915 96.032C60.0901 95.85 60.5451 95.759 61.0565 95.759C61.8451 95.759 62.4821 95.9583 62.9675 96.357C63.4528 96.7557 63.7128 97.3017 63.7475 97.995H62.5645C62.5385 97.6223 62.3868 97.3233 62.1095 97.098C61.8408 96.8727 61.4768 96.76 61.0175 96.76C60.5928 96.76 60.2548 96.851 60.0035 97.033C59.7521 97.215 59.6265 97.4533 59.6265 97.748C59.6265 97.982 59.7001 98.177 59.8475 98.333C60.0035 98.4803 60.1941 98.6017 60.4195 98.697C60.6535 98.7837 60.9741 98.8833 61.3815 98.996C61.8928 99.1347 62.3088 99.2733 62.6295 99.412C62.9501 99.542 63.2231 99.7413 63.4485 100.01C63.6825 100.279 63.8038 100.63 63.8125 101.063C63.8125 101.453 63.7041 101.804 63.4875 102.116C63.2708 102.428 62.9631 102.675 62.5645 102.857C62.1745 103.03 61.7238 103.117 61.2125 103.117ZM66.9254 96.851V101.05C66.9254 101.397 66.9991 101.644 67.1464 101.791C67.2938 101.93 67.5494 101.999 67.9134 101.999H68.7844V103H67.7184C67.0598 103 66.5658 102.848 66.2364 102.545C65.9071 102.242 65.7424 101.743 65.7424 101.05V96.851H64.8194V95.876H65.7424V94.082H66.9254V95.876H68.7844V96.851H66.9254ZM73.2416 99.412C73.2416 98.684 73.389 98.047 73.6836 97.501C73.9783 96.9463 74.3813 96.5173 74.8926 96.214C75.4126 95.9107 75.9933 95.759 76.6346 95.759C77.1893 95.759 77.705 95.889 78.1816 96.149C78.6583 96.4003 79.0223 96.734 79.2736 97.15V93.38H80.4696V103H79.2736V101.661C79.0396 102.086 78.693 102.437 78.2336 102.714C77.7743 102.983 77.237 103.117 76.6216 103.117C75.989 103.117 75.4126 102.961 74.8926 102.649C74.3813 102.337 73.9783 101.899 73.6836 101.336C73.389 100.773 73.2416 100.131 73.2416 99.412ZM79.2736 99.425C79.2736 98.8877 79.1653 98.4197 78.9486 98.021C78.732 97.6223 78.4373 97.319 78.0646 97.111C77.7006 96.8943 77.2976 96.786 76.8556 96.786C76.4136 96.786 76.0106 96.89 75.6466 97.098C75.2826 97.306 74.9923 97.6093 74.7756 98.008C74.559 98.4067 74.4506 98.8747 74.4506 99.412C74.4506 99.958 74.559 100.435 74.7756 100.842C74.9923 101.241 75.2826 101.548 75.6466 101.765C76.0106 101.973 76.4136 102.077 76.8556 102.077C77.2976 102.077 77.7006 101.973 78.0646 101.765C78.4373 101.548 78.732 101.241 78.9486 100.842C79.1653 100.435 79.2736 99.9623 79.2736 99.425ZM83.6518 97.033C83.8598 96.6257 84.1544 96.3093 84.5358 96.084C84.9258 95.8587 85.3981 95.746 85.9528 95.746V96.968H85.6408C84.3148 96.968 83.6518 97.6873 83.6518 99.126V103H82.4688V95.876H83.6518V97.033ZM87.9294 94.719C87.704 94.719 87.5134 94.641 87.3574 94.485C87.2014 94.329 87.1234 94.1383 87.1234 93.913C87.1234 93.6877 87.2014 93.497 87.3574 93.341C87.5134 93.185 87.704 93.107 87.9294 93.107C88.146 93.107 88.328 93.185 88.4754 93.341C88.6314 93.497 88.7094 93.6877 88.7094 93.913C88.7094 94.1383 88.6314 94.329 88.4754 94.485C88.328 94.641 88.146 94.719 87.9294 94.719ZM88.5014 95.876V103H87.3184V95.876H88.5014ZM93.1696 101.908L95.3796 95.876H96.6406L93.8456 103H92.4676L89.6726 95.876H90.9466L93.1696 101.908ZM104.305 99.165C104.305 99.3903 104.292 99.6287 104.266 99.88H98.5717C98.615 100.582 98.8534 101.132 99.2867 101.531C99.7287 101.921 100.262 102.116 100.886 102.116C101.397 102.116 101.822 101.999 102.16 101.765C102.506 101.522 102.749 101.202 102.888 100.803H104.162C103.971 101.488 103.59 102.047 103.018 102.48C102.446 102.905 101.735 103.117 100.886 103.117C100.21 103.117 99.603 102.965 99.0657 102.662C98.537 102.359 98.121 101.93 97.8177 101.375C97.5144 100.812 97.3627 100.162 97.3627 99.425C97.3627 98.6883 97.51 98.0427 97.8047 97.488C98.0994 96.9333 98.511 96.5087 99.0397 96.214C99.577 95.9107 100.192 95.759 100.886 95.759C101.562 95.759 102.16 95.9063 102.68 96.201C103.2 96.4957 103.598 96.903 103.876 97.423C104.162 97.9343 104.305 98.515 104.305 99.165ZM103.083 98.918C103.083 98.4673 102.983 98.0817 102.784 97.761C102.584 97.4317 102.311 97.1847 101.965 97.02C101.627 96.8467 101.25 96.76 100.834 96.76C100.236 96.76 99.7244 96.9507 99.2997 97.332C98.8837 97.7133 98.6454 98.242 98.5847 98.918H103.083ZM24.523 121.117C23.977 121.117 23.4873 121.026 23.054 120.844C22.6207 120.653 22.2783 120.393 22.027 120.064C21.7757 119.726 21.637 119.34 21.611 118.907H22.833C22.8677 119.262 23.0323 119.553 23.327 119.778C23.6303 120.003 24.0247 120.116 24.51 120.116C24.9607 120.116 25.316 120.016 25.576 119.817C25.836 119.618 25.966 119.366 25.966 119.063C25.966 118.751 25.8273 118.521 25.55 118.374C25.2727 118.218 24.8437 118.066 24.263 117.919C23.7343 117.78 23.301 117.642 22.963 117.503C22.6337 117.356 22.3477 117.143 22.105 116.866C21.871 116.58 21.754 116.207 21.754 115.748C21.754 115.384 21.8623 115.05 22.079 114.747C22.2957 114.444 22.6033 114.205 23.002 114.032C23.4007 113.85 23.8557 113.759 24.367 113.759C25.1557 113.759 25.7927 113.958 26.278 114.357C26.7633 114.756 27.0233 115.302 27.058 115.995H25.875C25.849 115.622 25.6973 115.323 25.42 115.098C25.1513 114.873 24.7873 114.76 24.328 114.76C23.9033 114.76 23.5653 114.851 23.314 115.033C23.0627 115.215 22.937 115.453 22.937 115.748C22.937 115.982 23.0107 116.177 23.158 116.333C23.314 116.48 23.5047 116.602 23.73 116.697C23.964 116.784 24.2847 116.883 24.692 116.996C25.2033 117.135 25.6193 117.273 25.94 117.412C26.2607 117.542 26.5337 117.741 26.759 118.01C26.993 118.279 27.1143 118.63 27.123 119.063C27.123 119.453 27.0147 119.804 26.798 120.116C26.5813 120.428 26.2737 120.675 25.875 120.857C25.485 121.03 25.0343 121.117 24.523 121.117ZM28.351 117.425C28.351 116.688 28.4983 116.047 28.793 115.501C29.0877 114.946 29.495 114.517 30.015 114.214C30.5437 113.911 31.146 113.759 31.822 113.759C32.6973 113.759 33.4167 113.971 33.98 114.396C34.552 114.821 34.929 115.41 35.111 116.164H33.837C33.7157 115.731 33.4773 115.388 33.122 115.137C32.7753 114.886 32.342 114.76 31.822 114.76C31.146 114.76 30.6 114.994 30.184 115.462C29.768 115.921 29.56 116.576 29.56 117.425C29.56 118.283 29.768 118.946 30.184 119.414C30.6 119.882 31.146 120.116 31.822 120.116C32.342 120.116 32.7753 119.995 33.122 119.752C33.4687 119.509 33.707 119.163 33.837 118.712H35.111C34.9203 119.44 34.539 120.025 33.967 120.467C33.395 120.9 32.68 121.117 31.822 121.117C31.146 121.117 30.5437 120.965 30.015 120.662C29.495 120.359 29.0877 119.93 28.793 119.375C28.4983 118.82 28.351 118.17 28.351 117.425ZM40.2255 113.746C40.7628 113.746 41.2481 113.863 41.6815 114.097C42.1148 114.322 42.4528 114.665 42.6955 115.124C42.9468 115.583 43.0725 116.142 43.0725 116.801V121H41.9025V116.97C41.9025 116.259 41.7248 115.718 41.3695 115.345C41.0141 114.964 40.5288 114.773 39.9135 114.773C39.2895 114.773 38.7911 114.968 38.4185 115.358C38.0545 115.748 37.8725 116.316 37.8725 117.061V121H36.6895V111.38H37.8725V114.89C38.1065 114.526 38.4271 114.244 38.8345 114.045C39.2505 113.846 39.7141 113.746 40.2255 113.746ZM51.5049 117.165C51.5049 117.39 51.4919 117.629 51.4659 117.88H45.7719C45.8152 118.582 46.0536 119.132 46.4869 119.531C46.9289 119.921 47.4619 120.116 48.0859 120.116C48.5972 120.116 49.0219 119.999 49.3599 119.765C49.7066 119.522 49.9492 119.202 50.0879 118.803H51.3619C51.1712 119.488 50.7899 120.047 50.2179 120.48C49.6459 120.905 48.9352 121.117 48.0859 121.117C47.4099 121.117 46.8032 120.965 46.2659 120.662C45.7372 120.359 45.3212 119.93 45.0179 119.375C44.7146 118.812 44.5629 118.162 44.5629 117.425C44.5629 116.688 44.7102 116.043 45.0049 115.488C45.2996 114.933 45.7112 114.509 46.2399 114.214C46.7772 113.911 47.3926 113.759 48.0859 113.759C48.7619 113.759 49.3599 113.906 49.8799 114.201C50.3999 114.496 50.7986 114.903 51.0759 115.423C51.3619 115.934 51.5049 116.515 51.5049 117.165ZM50.2829 116.918C50.2829 116.467 50.1832 116.082 49.9839 115.761C49.7846 115.432 49.5116 115.185 49.1649 115.02C48.8269 114.847 48.4499 114.76 48.0339 114.76C47.4359 114.76 46.9246 114.951 46.4999 115.332C46.0839 115.713 45.8456 116.242 45.7849 116.918H50.2829ZM52.6244 117.412C52.6244 116.684 52.7718 116.047 53.0664 115.501C53.3611 114.946 53.7641 114.517 54.2754 114.214C54.7954 113.911 55.3761 113.759 56.0174 113.759C56.5721 113.759 57.0878 113.889 57.5644 114.149C58.0411 114.4 58.4051 114.734 58.6564 115.15V111.38H59.8524V121H58.6564V119.661C58.4224 120.086 58.0758 120.437 57.6164 120.714C57.1571 120.983 56.6198 121.117 56.0044 121.117C55.3718 121.117 54.7954 120.961 54.2754 120.649C53.7641 120.337 53.3611 119.899 53.0664 119.336C52.7718 118.773 52.6244 118.131 52.6244 117.412ZM58.6564 117.425C58.6564 116.888 58.5481 116.42 58.3314 116.021C58.1148 115.622 57.8201 115.319 57.4474 115.111C57.0834 114.894 56.6804 114.786 56.2384 114.786C55.7964 114.786 55.3934 114.89 55.0294 115.098C54.6654 115.306 54.3751 115.609 54.1584 116.008C53.9418 116.407 53.8334 116.875 53.8334 117.412C53.8334 117.958 53.9418 118.435 54.1584 118.842C54.3751 119.241 54.6654 119.548 55.0294 119.765C55.3934 119.973 55.7964 120.077 56.2384 120.077C56.6804 120.077 57.0834 119.973 57.4474 119.765C57.8201 119.548 58.1148 119.241 58.3314 118.842C58.5481 118.435 58.6564 117.962 58.6564 117.425ZM68.1696 113.876V121H66.9866V119.947C66.7613 120.311 66.4449 120.597 66.0376 120.805C65.6389 121.004 65.1969 121.104 64.7116 121.104C64.1569 121.104 63.6586 120.991 63.2166 120.766C62.7746 120.532 62.4236 120.185 62.1636 119.726C61.9123 119.267 61.7866 118.708 61.7866 118.049V113.876H62.9566V117.893C62.9566 118.595 63.1343 119.137 63.4896 119.518C63.8449 119.891 64.3303 120.077 64.9456 120.077C65.5783 120.077 66.0766 119.882 66.4406 119.492C66.8046 119.102 66.9866 118.534 66.9866 117.789V113.876H68.1696ZM71.35 111.38V121H70.167V111.38H71.35ZM73.9772 112.719C73.7519 112.719 73.5612 112.641 73.4052 112.485C73.2492 112.329 73.1712 112.138 73.1712 111.913C73.1712 111.688 73.2492 111.497 73.4052 111.341C73.5612 111.185 73.7519 111.107 73.9772 111.107C74.1939 111.107 74.3759 111.185 74.5232 111.341C74.6792 111.497 74.7572 111.688 74.7572 111.913C74.7572 112.138 74.6792 112.329 74.5232 112.485C74.3759 112.641 74.1939 112.719 73.9772 112.719ZM74.5492 113.876V121H73.3662V113.876H74.5492ZM80.0365 113.746C80.9031 113.746 81.6051 114.01 82.1425 114.539C82.6798 115.059 82.9485 115.813 82.9485 116.801V121H81.7785V116.97C81.7785 116.259 81.6008 115.718 81.2455 115.345C80.8901 114.964 80.4048 114.773 79.7895 114.773C79.1655 114.773 78.6671 114.968 78.2945 115.358C77.9305 115.748 77.7485 116.316 77.7485 117.061V121H76.5655V113.876H77.7485V114.89C77.9825 114.526 78.2988 114.244 78.6975 114.045C79.1048 113.846 79.5511 113.746 80.0365 113.746ZM87.8189 113.759C88.4342 113.759 88.9715 113.893 89.4309 114.162C89.8989 114.431 90.2455 114.769 90.4709 115.176V113.876H91.6669V121.156C91.6669 121.806 91.5282 122.382 91.2509 122.885C90.9735 123.396 90.5749 123.795 90.0549 124.081C89.5435 124.367 88.9455 124.51 88.2609 124.51C87.3249 124.51 86.5449 124.289 85.9209 123.847C85.2969 123.405 84.9285 122.803 84.8159 122.04H85.9859C86.1159 122.473 86.3845 122.82 86.7919 123.08C87.1992 123.349 87.6889 123.483 88.2609 123.483C88.9109 123.483 89.4395 123.279 89.8469 122.872C90.2629 122.465 90.4709 121.893 90.4709 121.156V119.661C90.2369 120.077 89.8902 120.424 89.4309 120.701C88.9715 120.978 88.4342 121.117 87.8189 121.117C87.1862 121.117 86.6099 120.961 86.0899 120.649C85.5785 120.337 85.1755 119.899 84.8809 119.336C84.5862 118.773 84.4389 118.131 84.4389 117.412C84.4389 116.684 84.5862 116.047 84.8809 115.501C85.1755 114.946 85.5785 114.517 86.0899 114.214C86.6099 113.911 87.1862 113.759 87.8189 113.759ZM90.4709 117.425C90.4709 116.888 90.3625 116.42 90.1459 116.021C89.9292 115.622 89.6345 115.319 89.2619 115.111C88.8979 114.894 88.4949 114.786 88.0529 114.786C87.6109 114.786 87.2079 114.89 86.8439 115.098C86.4799 115.306 86.1895 115.609 85.9729 116.008C85.7562 116.407 85.6479 116.875 85.6479 117.412C85.6479 117.958 85.7562 118.435 85.9729 118.842C86.1895 119.241 86.4799 119.548 86.8439 119.765C87.2079 119.973 87.6109 120.077 88.0529 120.077C88.4949 120.077 88.8979 119.973 89.2619 119.765C89.6345 119.548 89.9292 119.241 90.1459 118.842C90.3625 118.435 90.4709 117.962 90.4709 117.425Z" fill="#030303"/>
</g>
<defs>
<filter id="filter0_d_1_363" x="0" y="0" width="180" height="150" filterUnits="userSpaceOnUse" color-interpolation-filters="sRGB">
<feFlood flood-opacity="0" result="BackgroundImageFix"/>
<feColorMatrix in="SourceAlpha" type="matrix" values="0 0 0 0 0 0 0 0 0 0 0 0 0 0 0 0 0 0 127 0" result="hardAlpha"/>
<feOffset dy="2"/>
<feGaussianBlur stdDeviation="2"/>
<feColorMatrix type="matrix" values="0 0 0 0 0 0 0 0 0 0 0 0 0 0 0 0 0 0 0.15 0"/>
<feBlend mode="normal" in2="BackgroundImageFix" result="effect1_dropShadow_1_363"/>
<feBlend mode="normal" in="SourceGraphic" in2="effect1_dropShadow_1_363" result="shape"/>
</filter>
</defs>
</svg>
