<svg width="180" height="186" viewBox="0 0 180 186" fill="none" xmlns="http://www.w3.org/2000/svg">
<g filter="url(#filter0_d_1_362)">
<rect x="4" y="2" width="172" height="178" rx="10" fill="white"/>
<rect x="4.5" y="2.5" width="171" height="177" rx="9.5" stroke="#E9EBEF"/>
<path d="M44.25 37.75V40.75C44.25 41.5784 43.5784 42.25 42.75 42.25H39.75" stroke="#5A89EA" stroke-width="1.5" stroke-linecap="round" stroke-linejoin="round"/>
<path d="M39.75 19.75H42.75C43.5784 19.75 44.25 20.4216 44.25 21.25V24.25" stroke="#5A89EA" stroke-width="1.5" stroke-linecap="round" stroke-linejoin="round"/>
<path d="M21.75 24.25V21.25C21.75 20.4216 22.4216 19.75 23.25 19.75H26.25" stroke="#5A89EA" stroke-width="1.5" stroke-linecap="round" stroke-linejoin="round"/>
<path d="M26.25 42.25H23.25C22.4216 42.25 21.75 41.5784 21.75 40.75V37.75" stroke="#5A89EA" stroke-width="1.5" stroke-linecap="round" stroke-linejoin="round"/>
<path d="M26.291 38.5C26.6738 35.0839 29.5625 32.5009 33 32.5009C36.4375 32.5009 39.3261 35.0839 39.709 38.5" stroke="#5A89EA" stroke-width="1.5" stroke-linecap="round" stroke-linejoin="round"/>
<path d="M28.876 26.986V27.986C28.9148 29.1374 28.6162 30.275 28.017 31.259" stroke="#5A89EA" stroke-width="1.5" stroke-linecap="round" stroke-linejoin="round"/>
<path d="M37.124 26.986V27.986C37.0852 29.1374 37.3838 30.275 37.983 31.259" stroke="#5A89EA" stroke-width="1.5" stroke-linecap="round" stroke-linejoin="round"/>
<path d="M28.888 27.205C30.4684 27.1938 31.9672 26.5013 33 25.305C34.0328 26.5013 35.5316 27.1938 37.112 27.205" stroke="#5A89EA" stroke-width="1.5" stroke-linecap="round" stroke-linejoin="round"/>
<path fill-rule="evenodd" clip-rule="evenodd" d="M33 31C35.2782 31 37.125 29.1532 37.125 26.875C37.125 24.5968 35.2782 22.75 33 22.75C30.7218 22.75 28.875 24.5968 28.875 26.875C28.875 29.1532 30.7218 31 33 31Z" stroke="#5A89EA" stroke-width="1.5" stroke-linecap="round" stroke-linejoin="round"/>
<path d="M21.82 64H24.58L26.72 72.38H26.76V64H28.72V78H26.46L23.82 67.78H23.78V78H21.82V64ZM33.5352 78.2C32.4552 78.2 31.6285 77.8933 31.0552 77.28C30.4818 76.6667 30.1952 75.8 30.1952 74.68V67.32C30.1952 66.2 30.4818 65.3333 31.0552 64.72C31.6285 64.1067 32.4552 63.8 33.5352 63.8C34.6152 63.8 35.4418 64.1067 36.0152 64.72C36.5885 65.3333 36.8752 66.2 36.8752 67.32V74.68C36.8752 75.8 36.5885 76.6667 36.0152 77.28C35.4418 77.8933 34.6152 78.2 33.5352 78.2ZM33.5352 76.2C34.2952 76.2 34.6752 75.74 34.6752 74.82V67.18C34.6752 66.26 34.2952 65.8 33.5352 65.8C32.7752 65.8 32.3952 66.26 32.3952 67.18V74.82C32.3952 75.74 32.7752 76.2 33.5352 76.2ZM43.2861 66H40.9861V64H47.7861V66H45.4861V78H43.2861V66ZM48.8513 64H51.0513V78H48.8513V64ZM52.6989 64H55.8389L57.2389 74.02H57.2789L58.6789 64H61.8189V78H59.7389V67.4H59.6989L58.0989 78H56.2589L54.6589 67.4H54.6189V78H52.6989V64ZM63.4606 64H69.4606V66H65.6606V69.7H68.6806V71.7H65.6606V76H69.4606V78H63.4606V64ZM73.4094 64H75.5294L76.5094 74.76H76.5494L77.5894 64H79.9894L81.0294 74.76H81.0694L82.0494 64H83.9494L82.5294 78H79.7894L78.7894 68.56H78.7494L77.7494 78H74.8294L73.4094 64ZM86.4888 64H89.4688L91.7488 78H89.5488L89.1488 75.22V75.26H86.6488L86.2488 78H84.2088L86.4888 64ZM88.8888 73.36L87.9088 66.44H87.8688L86.9087 73.36H88.8888ZM95.6175 78.2C94.5508 78.2 93.7442 77.9 93.1975 77.3C92.6508 76.6867 92.3775 75.8133 92.3775 74.68V73.88H94.4575V74.84C94.4575 75.7467 94.8375 76.2 95.5975 76.2C95.9708 76.2 96.2508 76.0933 96.4375 75.88C96.6375 75.6533 96.7375 75.2933 96.7375 74.8C96.7375 74.2133 96.6042 73.7 96.3375 73.26C96.0708 72.8067 95.5775 72.2667 94.8575 71.64C93.9508 70.84 93.3175 70.12 92.9575 69.48C92.5975 68.8267 92.4175 68.0933 92.4175 67.28C92.4175 66.1733 92.6975 65.32 93.2575 64.72C93.8175 64.1067 94.6308 63.8 95.6975 63.8C96.7508 63.8 97.5442 64.1067 98.0775 64.72C98.6242 65.32 98.8975 66.1867 98.8975 67.32V67.9H96.8175V67.18C96.8175 66.7 96.7242 66.3533 96.5375 66.14C96.3508 65.9133 96.0775 65.8 95.7175 65.8C94.9842 65.8 94.6175 66.2467 94.6175 67.14C94.6175 67.6467 94.7508 68.12 95.0175 68.56C95.2975 69 95.7975 69.5333 96.5175 70.16C97.4375 70.96 98.0708 71.6867 98.4175 72.34C98.7642 72.9933 98.9375 73.76 98.9375 74.64C98.9375 75.7867 98.6508 76.6667 98.0775 77.28C97.5175 77.8933 96.6975 78.2 95.6175 78.2ZM101.919 66H99.6189V64H106.419V66H104.119V78H101.919V66ZM107.484 64H113.484V66H109.684V69.7H112.704V71.7H109.684V76H113.484V78H107.484V64ZM114.75 64H118.01C119.143 64 119.97 64.2667 120.49 64.8C121.01 65.32 121.27 66.1267 121.27 67.22V68.08C121.27 69.5333 120.79 70.4533 119.83 70.84V70.88C120.363 71.04 120.736 71.3667 120.95 71.86C121.176 72.3533 121.29 73.0133 121.29 73.84V76.3C121.29 76.7 121.303 77.0267 121.33 77.28C121.356 77.52 121.423 77.76 121.53 78H119.29C119.21 77.7733 119.156 77.56 119.13 77.36C119.103 77.16 119.09 76.8 119.09 76.28V73.72C119.09 73.08 118.983 72.6333 118.77 72.38C118.57 72.1267 118.216 72 117.71 72H116.95V78H114.75V64ZM117.75 70C118.19 70 118.516 69.8867 118.73 69.66C118.956 69.4333 119.07 69.0533 119.07 68.52V67.44C119.07 66.9333 118.976 66.5667 118.79 66.34C118.616 66.1133 118.336 66 117.95 66H116.95V70H117.75ZM125.676 78.2C124.609 78.2 123.803 77.9 123.256 77.3C122.709 76.6867 122.436 75.8133 122.436 74.68V73.88H124.516V74.84C124.516 75.7467 124.896 76.2 125.656 76.2C126.029 76.2 126.309 76.0933 126.496 75.88C126.696 75.6533 126.796 75.2933 126.796 74.8C126.796 74.2133 126.663 73.7 126.396 73.26C126.129 72.8067 125.636 72.2667 124.916 71.64C124.009 70.84 123.376 70.12 123.016 69.48C122.656 68.8267 122.476 68.0933 122.476 67.28C122.476 66.1733 122.756 65.32 123.316 64.72C123.876 64.1067 124.689 63.8 125.756 63.8C126.809 63.8 127.603 64.1067 128.136 64.72C128.683 65.32 128.956 66.1867 128.956 67.32V67.9H126.876V67.18C126.876 66.7 126.783 66.3533 126.596 66.14C126.409 65.9133 126.136 65.8 125.776 65.8C125.043 65.8 124.676 66.2467 124.676 67.14C124.676 67.6467 124.809 68.12 125.076 68.56C125.356 69 125.856 69.5333 126.576 70.16C127.496 70.96 128.129 71.6867 128.476 72.34C128.823 72.9933 128.996 73.76 128.996 74.64C128.996 75.7867 128.709 76.6667 128.136 77.28C127.576 77.8933 126.756 78.2 125.676 78.2Z" fill="#030303"/>
<path d="M26.538 98.333C26.8673 98.385 27.1663 98.5193 27.435 98.736C27.7123 98.9527 27.929 99.2213 28.085 99.542C28.2497 99.8627 28.332 100.205 28.332 100.569C28.332 101.028 28.215 101.444 27.981 101.817C27.747 102.181 27.4047 102.471 26.954 102.688C26.512 102.896 25.9877 103 25.381 103H22.001V93.939H25.251C25.8663 93.939 26.3907 94.043 26.824 94.251C27.2573 94.4503 27.5823 94.7233 27.799 95.07C28.0157 95.4167 28.124 95.8067 28.124 96.24C28.124 96.7773 27.9767 97.2237 27.682 97.579C27.396 97.9257 27.0147 98.177 26.538 98.333ZM23.184 97.852H25.173C25.7277 97.852 26.1567 97.722 26.46 97.462C26.7633 97.202 26.915 96.8423 26.915 96.383C26.915 95.9237 26.7633 95.564 26.46 95.304C26.1567 95.044 25.719 94.914 25.147 94.914H23.184V97.852ZM25.277 102.025C25.8663 102.025 26.3257 101.886 26.655 101.609C26.9843 101.332 27.149 100.946 27.149 100.452C27.149 99.9493 26.9757 99.555 26.629 99.269C26.2823 98.9743 25.8187 98.827 25.238 98.827H23.184V102.025H25.277ZM36.2917 95.876V103H35.1087V101.947C34.8833 102.311 34.567 102.597 34.1597 102.805C33.761 103.004 33.319 103.104 32.8337 103.104C32.279 103.104 31.7807 102.991 31.3387 102.766C30.8967 102.532 30.5457 102.185 30.2857 101.726C30.0343 101.267 29.9087 100.708 29.9087 100.049V95.876H31.0787V99.893C31.0787 100.595 31.2563 101.137 31.6117 101.518C31.967 101.891 32.4523 102.077 33.0677 102.077C33.7003 102.077 34.1987 101.882 34.5627 101.492C34.9267 101.102 35.1087 100.534 35.1087 99.789V95.876H36.2917ZM44.4251 95.876L40.1351 106.354H38.9131L40.3171 102.922L37.4441 95.876H38.7571L40.9931 101.648L43.2031 95.876H44.4251ZM52.1143 99.165C52.1143 99.3903 52.1013 99.6287 52.0753 99.88H46.3813C46.4246 100.582 46.6629 101.132 47.0963 101.531C47.5383 101.921 48.0713 102.116 48.6953 102.116C49.2066 102.116 49.6313 101.999 49.9693 101.765C50.3159 101.522 50.5586 101.202 50.6973 100.803H51.9713C51.7806 101.488 51.3993 102.047 50.8273 102.48C50.2553 102.905 49.5446 103.117 48.6953 103.117C48.0193 103.117 47.4126 102.965 46.8753 102.662C46.3466 102.359 45.9306 101.93 45.6273 101.375C45.3239 100.812 45.1723 100.162 45.1723 99.425C45.1723 98.6883 45.3196 98.0427 45.6143 97.488C45.9089 96.9333 46.3206 96.5087 46.8493 96.214C47.3866 95.9107 48.0019 95.759 48.6953 95.759C49.3713 95.759 49.9693 95.9063 50.4893 96.201C51.0093 96.4957 51.4079 96.903 51.6853 97.423C51.9713 97.9343 52.1143 98.515 52.1143 99.165ZM50.8923 98.918C50.8923 98.4673 50.7926 98.0817 50.5933 97.761C50.3939 97.4317 50.1209 97.1847 49.7743 97.02C49.4363 96.8467 49.0593 96.76 48.6433 96.76C48.0453 96.76 47.5339 96.9507 47.1093 97.332C46.6933 97.7133 46.4549 98.242 46.3943 98.918H50.8923ZM54.8588 97.033C55.0668 96.6257 55.3615 96.3093 55.7428 96.084C56.1328 95.8587 56.6051 95.746 57.1598 95.746V96.968H56.8478C55.5218 96.968 54.8588 97.6873 54.8588 99.126V103H53.6758V95.876H54.8588V97.033ZM61.0474 103.117C60.5014 103.117 60.0117 103.026 59.5784 102.844C59.1451 102.653 58.8027 102.393 58.5514 102.064C58.3001 101.726 58.1614 101.34 58.1354 100.907H59.3574C59.3921 101.262 59.5567 101.553 59.8514 101.778C60.1547 102.003 60.5491 102.116 61.0344 102.116C61.4851 102.116 61.8404 102.016 62.1004 101.817C62.3604 101.618 62.4904 101.366 62.4904 101.063C62.4904 100.751 62.3517 100.521 62.0744 100.374C61.7971 100.218 61.3681 100.066 60.7874 99.919C60.2587 99.7803 59.8254 99.6417 59.4874 99.503C59.1581 99.3557 58.8721 99.1433 58.6294 98.866C58.3954 98.58 58.2784 98.2073 58.2784 97.748C58.2784 97.384 58.3867 97.0503 58.6034 96.747C58.8201 96.4437 59.1277 96.2053 59.5264 96.032C59.9251 95.85 60.3801 95.759 60.8914 95.759C61.6801 95.759 62.3171 95.9583 62.8024 96.357C63.2877 96.7557 63.5477 97.3017 63.5824 97.995H62.3994C62.3734 97.6223 62.2217 97.3233 61.9444 97.098C61.6757 96.8727 61.3117 96.76 60.8524 96.76C60.4277 96.76 60.0897 96.851 59.8384 97.033C59.5871 97.215 59.4614 97.4533 59.4614 97.748C59.4614 97.982 59.5351 98.177 59.6824 98.333C59.8384 98.4803 60.0291 98.6017 60.2544 98.697C60.4884 98.7837 60.8091 98.8833 61.2164 98.996C61.7277 99.1347 62.1437 99.2733 62.4644 99.412C62.7851 99.542 63.0581 99.7413 63.2834 100.01C63.5174 100.279 63.6387 100.63 63.6474 101.063C63.6474 101.453 63.5391 101.804 63.3224 102.116C63.1057 102.428 62.7981 102.675 62.3994 102.857C62.0094 103.03 61.5587 103.117 61.0474 103.117ZM75.1012 95.876V103H73.9182V101.947C73.6929 102.311 73.3766 102.597 72.9692 102.805C72.5706 103.004 72.1286 103.104 71.6432 103.104C71.0886 103.104 70.5902 102.991 70.1482 102.766C69.7062 102.532 69.3552 102.185 69.0952 101.726C68.8439 101.267 68.7182 100.708 68.7182 100.049V95.876H69.8882V99.893C69.8882 100.595 70.0659 101.137 70.4212 101.518C70.7766 101.891 71.2619 102.077 71.8772 102.077C72.5099 102.077 73.0082 101.882 73.3722 101.492C73.7362 101.102 73.9182 100.534 73.9182 99.789V95.876H75.1012ZM80.5697 95.746C81.4363 95.746 82.1383 96.0103 82.6757 96.539C83.213 97.059 83.4817 97.813 83.4817 98.801V103H82.3117V98.97C82.3117 98.2593 82.134 97.7177 81.7787 97.345C81.4233 96.9637 80.938 96.773 80.3227 96.773C79.6987 96.773 79.2003 96.968 78.8277 97.358C78.4637 97.748 78.2817 98.3157 78.2817 99.061V103H77.0987V95.876H78.2817V96.89C78.5157 96.526 78.832 96.2443 79.2307 96.045C79.638 95.8457 80.0843 95.746 80.5697 95.746ZM84.9721 99.412C84.9721 98.684 85.1194 98.047 85.4141 97.501C85.7088 96.9463 86.1118 96.5173 86.6231 96.214C87.1431 95.9107 87.7238 95.759 88.3651 95.759C88.9198 95.759 89.4354 95.889 89.9121 96.149C90.3888 96.4003 90.7528 96.734 91.0041 97.15V93.38H92.2001V103H91.0041V101.661C90.7701 102.086 90.4234 102.437 89.9641 102.714C89.5048 102.983 88.9674 103.117 88.3521 103.117C87.7194 103.117 87.1431 102.961 86.6231 102.649C86.1118 102.337 85.7088 101.899 85.4141 101.336C85.1194 100.773 84.9721 100.131 84.9721 99.412ZM91.0041 99.425C91.0041 98.8877 90.8958 98.4197 90.6791 98.021C90.4624 97.6223 90.1678 97.319 89.7951 97.111C89.4311 96.8943 89.0281 96.786 88.5861 96.786C88.1441 96.786 87.7411 96.89 87.3771 97.098C87.0131 97.306 86.7228 97.6093 86.5061 98.008C86.2894 98.4067 86.1811 98.8747 86.1811 99.412C86.1811 99.958 86.2894 100.435 86.5061 100.842C86.7228 101.241 87.0131 101.548 87.3771 101.765C87.7411 101.973 88.1441 102.077 88.5861 102.077C89.0281 102.077 89.4311 101.973 89.7951 101.765C90.1678 101.548 90.4624 101.241 90.6791 100.842C90.8958 100.435 91.0041 99.9623 91.0041 99.425ZM100.699 99.165C100.699 99.3903 100.686 99.6287 100.66 99.88H94.9662C95.0096 100.582 95.2479 101.132 95.6812 101.531C96.1232 101.921 96.6562 102.116 97.2802 102.116C97.7916 102.116 98.2162 101.999 98.5542 101.765C98.9009 101.522 99.1436 101.202 99.2822 100.803H100.556C100.366 101.488 99.9842 102.047 99.4122 102.48C98.8402 102.905 98.1296 103.117 97.2802 103.117C96.6042 103.117 95.9976 102.965 95.4602 102.662C94.9316 102.359 94.5156 101.93 94.2122 101.375C93.9089 100.812 93.7572 100.162 93.7572 99.425C93.7572 98.6883 93.9046 98.0427 94.1992 97.488C94.4939 96.9333 94.9056 96.5087 95.4342 96.214C95.9716 95.9107 96.5869 95.759 97.2802 95.759C97.9562 95.759 98.5542 95.9063 99.0742 96.201C99.5942 96.4957 99.9929 96.903 100.27 97.423C100.556 97.9343 100.699 98.515 100.699 99.165ZM99.4772 98.918C99.4772 98.4673 99.3776 98.0817 99.1782 97.761C98.9789 97.4317 98.7059 97.1847 98.3592 97.02C98.0212 96.8467 97.6442 96.76 97.2282 96.76C96.6302 96.76 96.1189 96.9507 95.6942 97.332C95.2782 97.7133 95.0399 98.242 94.9792 98.918H99.4772ZM103.444 97.033C103.652 96.6257 103.946 96.3093 104.328 96.084C104.718 95.8587 105.19 95.746 105.745 95.746V96.968H105.433C104.107 96.968 103.444 97.6873 103.444 99.126V103H102.261V95.876H103.444V97.033ZM110.048 95.759C110.664 95.759 111.201 95.8933 111.66 96.162C112.128 96.4307 112.475 96.7687 112.7 97.176V95.876H113.896V103.156C113.896 103.806 113.758 104.382 113.48 104.885C113.203 105.396 112.804 105.795 112.284 106.081C111.773 106.367 111.175 106.51 110.49 106.51C109.554 106.51 108.774 106.289 108.15 105.847C107.526 105.405 107.158 104.803 107.045 104.04H108.215C108.345 104.473 108.614 104.82 109.021 105.08C109.429 105.349 109.918 105.483 110.49 105.483C111.14 105.483 111.669 105.279 112.076 104.872C112.492 104.465 112.7 103.893 112.7 103.156V101.661C112.466 102.077 112.12 102.424 111.66 102.701C111.201 102.978 110.664 103.117 110.048 103.117C109.416 103.117 108.839 102.961 108.319 102.649C107.808 102.337 107.405 101.899 107.11 101.336C106.816 100.773 106.668 100.131 106.668 99.412C106.668 98.684 106.816 98.047 107.11 97.501C107.405 96.9463 107.808 96.5173 108.319 96.214C108.839 95.9107 109.416 95.759 110.048 95.759ZM112.7 99.425C112.7 98.8877 112.592 98.4197 112.375 98.021C112.159 97.6223 111.864 97.319 111.491 97.111C111.127 96.8943 110.724 96.786 110.282 96.786C109.84 96.786 109.437 96.89 109.073 97.098C108.709 97.306 108.419 97.6093 108.202 98.008C107.986 98.4067 107.877 98.8747 107.877 99.412C107.877 99.958 107.986 100.435 108.202 100.842C108.419 101.241 108.709 101.548 109.073 101.765C109.437 101.973 109.84 102.077 110.282 102.077C110.724 102.077 111.127 101.973 111.491 101.765C111.864 101.548 112.159 101.241 112.375 100.842C112.592 100.435 112.7 99.9623 112.7 99.425ZM119.003 103.117C118.335 103.117 117.729 102.965 117.183 102.662C116.645 102.359 116.221 101.93 115.909 101.375C115.605 100.812 115.454 100.162 115.454 99.425C115.454 98.697 115.61 98.0557 115.922 97.501C116.242 96.9377 116.676 96.5087 117.222 96.214C117.768 95.9107 118.379 95.759 119.055 95.759C119.731 95.759 120.342 95.9107 120.888 96.214C121.434 96.5087 121.863 96.9333 122.175 97.488C122.495 98.0427 122.656 98.6883 122.656 99.425C122.656 100.162 122.491 100.812 122.162 101.375C121.841 101.93 121.403 102.359 120.849 102.662C120.294 102.965 119.679 103.117 119.003 103.117ZM119.003 102.077C119.427 102.077 119.826 101.977 120.199 101.778C120.571 101.579 120.87 101.28 121.096 100.881C121.33 100.482 121.447 99.997 121.447 99.425C121.447 98.853 121.334 98.3677 121.109 97.969C120.883 97.5703 120.589 97.2757 120.225 97.085C119.861 96.8857 119.466 96.786 119.042 96.786C118.608 96.786 118.21 96.8857 117.846 97.085C117.49 97.2757 117.204 97.5703 116.988 97.969C116.771 98.3677 116.663 98.853 116.663 99.425C116.663 100.006 116.767 100.495 116.975 100.894C117.191 101.293 117.477 101.592 117.833 101.791C118.188 101.982 118.578 102.077 119.003 102.077ZM127.235 99.412C127.235 98.684 127.382 98.047 127.677 97.501C127.971 96.9463 128.374 96.5173 128.886 96.214C129.406 95.9107 129.982 95.759 130.615 95.759C131.239 95.759 131.78 95.8933 132.24 96.162C132.699 96.4307 133.041 96.7687 133.267 97.176V95.876H134.463V103H133.267V101.674C133.033 102.09 132.682 102.437 132.214 102.714C131.754 102.983 131.217 103.117 130.602 103.117C129.969 103.117 129.397 102.961 128.886 102.649C128.374 102.337 127.971 101.899 127.677 101.336C127.382 100.773 127.235 100.131 127.235 99.412ZM133.267 99.425C133.267 98.8877 133.158 98.4197 132.942 98.021C132.725 97.6223 132.43 97.319 132.058 97.111C131.694 96.8943 131.291 96.786 130.849 96.786C130.407 96.786 130.004 96.89 129.64 97.098C129.276 97.306 128.985 97.6093 128.769 98.008C128.552 98.4067 128.444 98.8747 128.444 99.412C128.444 99.958 128.552 100.435 128.769 100.842C128.985 101.241 129.276 101.548 129.64 101.765C130.004 101.973 130.407 102.077 130.849 102.077C131.291 102.077 131.694 101.973 132.058 101.765C132.43 101.548 132.725 101.241 132.942 100.842C133.158 100.435 133.267 99.9623 133.267 99.425ZM21.559 117.425C21.559 116.688 21.7063 116.047 22.001 115.501C22.2957 114.946 22.703 114.517 23.223 114.214C23.7517 113.911 24.354 113.759 25.03 113.759C25.9053 113.759 26.6247 113.971 27.188 114.396C27.76 114.821 28.137 115.41 28.319 116.164H27.045C26.9237 115.731 26.6853 115.388 26.33 115.137C25.9833 114.886 25.55 114.76 25.03 114.76C24.354 114.76 23.808 114.994 23.392 115.462C22.976 115.921 22.768 116.576 22.768 117.425C22.768 118.283 22.976 118.946 23.392 119.414C23.808 119.882 24.354 120.116 25.03 120.116C25.55 120.116 25.9833 119.995 26.33 119.752C26.6767 119.509 26.915 119.163 27.045 118.712H28.319C28.1283 119.44 27.747 120.025 27.175 120.467C26.603 120.9 25.888 121.117 25.03 121.117C24.354 121.117 23.7517 120.965 23.223 120.662C22.703 120.359 22.2957 119.93 22.001 119.375C21.7063 118.82 21.559 118.17 21.559 117.425ZM31.0805 115.033C31.2885 114.626 31.5832 114.309 31.9645 114.084C32.3545 113.859 32.8268 113.746 33.3815 113.746V114.968H33.0695C31.7435 114.968 31.0805 115.687 31.0805 117.126V121H29.8975V113.876H31.0805V115.033ZM41.2471 117.165C41.2471 117.39 41.2341 117.629 41.2081 117.88H35.5141C35.5574 118.582 35.7958 119.132 36.2291 119.531C36.6711 119.921 37.2041 120.116 37.8281 120.116C38.3394 120.116 38.7641 119.999 39.1021 119.765C39.4488 119.522 39.6914 119.202 39.8301 118.803H41.1041C40.9134 119.488 40.5321 120.047 39.9601 120.48C39.3881 120.905 38.6774 121.117 37.8281 121.117C37.1521 121.117 36.5454 120.965 36.0081 120.662C35.4794 120.359 35.0634 119.93 34.7601 119.375C34.4568 118.812 34.3051 118.162 34.3051 117.425C34.3051 116.688 34.4524 116.043 34.7471 115.488C35.0418 114.933 35.4534 114.509 35.9821 114.214C36.5194 113.911 37.1348 113.759 37.8281 113.759C38.5041 113.759 39.1021 113.906 39.6221 114.201C40.1421 114.496 40.5408 114.903 40.8181 115.423C41.1041 115.934 41.2471 116.515 41.2471 117.165ZM40.0251 116.918C40.0251 116.467 39.9254 116.082 39.7261 115.761C39.5268 115.432 39.2538 115.185 38.9071 115.02C38.5691 114.847 38.1921 114.76 37.7761 114.76C37.1781 114.76 36.6668 114.951 36.2421 115.332C35.8261 115.713 35.5878 116.242 35.5271 116.918H40.0251ZM42.3666 117.412C42.3666 116.684 42.514 116.047 42.8086 115.501C43.1033 114.946 43.5063 114.517 44.0176 114.214C44.5376 113.911 45.1183 113.759 45.7596 113.759C46.3143 113.759 46.83 113.889 47.3066 114.149C47.7833 114.4 48.1473 114.734 48.3986 115.15V111.38H49.5946V121H48.3986V119.661C48.1646 120.086 47.818 120.437 47.3586 120.714C46.8993 120.983 46.362 121.117 45.7466 121.117C45.114 121.117 44.5376 120.961 44.0176 120.649C43.5063 120.337 43.1033 119.899 42.8086 119.336C42.514 118.773 42.3666 118.131 42.3666 117.412ZM48.3986 117.425C48.3986 116.888 48.2903 116.42 48.0736 116.021C47.857 115.622 47.5623 115.319 47.1896 115.111C46.8256 114.894 46.4226 114.786 45.9806 114.786C45.5386 114.786 45.1356 114.89 44.7716 115.098C44.4076 115.306 44.1173 115.609 43.9006 116.008C43.684 116.407 43.5756 116.875 43.5756 117.412C43.5756 117.958 43.684 118.435 43.9006 118.842C44.1173 119.241 44.4076 119.548 44.7716 119.765C45.1356 119.973 45.5386 120.077 45.9806 120.077C46.4226 120.077 46.8256 119.973 47.1896 119.765C47.5623 119.548 47.857 119.241 48.0736 118.842C48.2903 118.435 48.3986 117.962 48.3986 117.425ZM52.2048 112.719C51.9794 112.719 51.7888 112.641 51.6328 112.485C51.4768 112.329 51.3988 112.138 51.3988 111.913C51.3988 111.688 51.4768 111.497 51.6328 111.341C51.7888 111.185 51.9794 111.107 52.2048 111.107C52.4214 111.107 52.6034 111.185 52.7508 111.341C52.9068 111.497 52.9848 111.688 52.9848 111.913C52.9848 112.138 52.9068 112.329 52.7508 112.485C52.6034 112.641 52.4214 112.719 52.2048 112.719ZM52.7768 113.876V121H51.5938V113.876H52.7768ZM56.236 114.851V119.05C56.236 119.397 56.3097 119.644 56.457 119.791C56.6043 119.93 56.86 119.999 57.224 119.999H58.095V121H57.029C56.3703 121 55.8763 120.848 55.547 120.545C55.2177 120.242 55.053 119.743 55.053 119.05V114.851H54.13V113.876H55.053V112.082H56.236V113.876H58.095V114.851H56.236ZM62.5522 117.425C62.5522 116.688 62.6995 116.047 62.9942 115.501C63.2888 114.946 63.6962 114.517 64.2162 114.214C64.7448 113.911 65.3472 113.759 66.0232 113.759C66.8985 113.759 67.6178 113.971 68.1812 114.396C68.7532 114.821 69.1302 115.41 69.3122 116.164H68.0382C67.9168 115.731 67.6785 115.388 67.3232 115.137C66.9765 114.886 66.5432 114.76 66.0232 114.76C65.3472 114.76 64.8012 114.994 64.3852 115.462C63.9692 115.921 63.7612 116.576 63.7612 117.425C63.7612 118.283 63.9692 118.946 64.3852 119.414C64.8012 119.882 65.3472 120.116 66.0232 120.116C66.5432 120.116 66.9765 119.995 67.3232 119.752C67.6698 119.509 67.9082 119.163 68.0382 118.712H69.3122C69.1215 119.44 68.7402 120.025 68.1682 120.467C67.5962 120.9 66.8812 121.117 66.0232 121.117C65.3472 121.117 64.7448 120.965 64.2162 120.662C63.6962 120.359 63.2888 119.93 62.9942 119.375C62.6995 118.82 62.5522 118.17 62.5522 117.425ZM74.4266 113.746C74.964 113.746 75.4493 113.863 75.8826 114.097C76.316 114.322 76.654 114.665 76.8966 115.124C77.148 115.583 77.2736 116.142 77.2736 116.801V121H76.1036V116.97C76.1036 116.259 75.926 115.718 75.5706 115.345C75.2153 114.964 74.73 114.773 74.1146 114.773C73.4906 114.773 72.9923 114.968 72.6196 115.358C72.2556 115.748 72.0736 116.316 72.0736 117.061V121H70.8906V111.38H72.0736V114.89C72.3076 114.526 72.6283 114.244 73.0356 114.045C73.4516 113.846 73.9153 113.746 74.4266 113.746ZM85.7061 117.165C85.7061 117.39 85.6931 117.629 85.6671 117.88H79.9731C80.0164 118.582 80.2547 119.132 80.6881 119.531C81.1301 119.921 81.6631 120.116 82.2871 120.116C82.7984 120.116 83.2231 119.999 83.5611 119.765C83.9077 119.522 84.1504 119.202 84.2891 118.803H85.5631C85.3724 119.488 84.9911 120.047 84.4191 120.48C83.8471 120.905 83.1364 121.117 82.2871 121.117C81.6111 121.117 81.0044 120.965 80.4671 120.662C79.9384 120.359 79.5224 119.93 79.2191 119.375C78.9157 118.812 78.7641 118.162 78.7641 117.425C78.7641 116.688 78.9114 116.043 79.2061 115.488C79.5007 114.933 79.9124 114.509 80.4411 114.214C80.9784 113.911 81.5937 113.759 82.2871 113.759C82.9631 113.759 83.5611 113.906 84.0811 114.201C84.6011 114.496 84.9997 114.903 85.2771 115.423C85.5631 115.934 85.7061 116.515 85.7061 117.165ZM84.4841 116.918C84.4841 116.467 84.3844 116.082 84.1851 115.761C83.9857 115.432 83.7127 115.185 83.3661 115.02C83.0281 114.847 82.6511 114.76 82.2351 114.76C81.6371 114.76 81.1257 114.951 80.7011 115.332C80.2851 115.713 80.0467 116.242 79.9861 116.918H84.4841ZM86.8256 117.425C86.8256 116.688 86.9729 116.047 87.2676 115.501C87.5623 114.946 87.9696 114.517 88.4896 114.214C89.0183 113.911 89.6206 113.759 90.2966 113.759C91.1719 113.759 91.8913 113.971 92.4546 114.396C93.0266 114.821 93.4036 115.41 93.5856 116.164H92.3116C92.1903 115.731 91.9519 115.388 91.5966 115.137C91.2499 114.886 90.8166 114.76 90.2966 114.76C89.6206 114.76 89.0746 114.994 88.6586 115.462C88.2426 115.921 88.0346 116.576 88.0346 117.425C88.0346 118.283 88.2426 118.946 88.6586 119.414C89.0746 119.882 89.6206 120.116 90.2966 120.116C90.8166 120.116 91.2499 119.995 91.5966 119.752C91.9433 119.509 92.1816 119.163 92.3116 118.712H93.5856C93.3949 119.44 93.0136 120.025 92.4416 120.467C91.8696 120.9 91.1546 121.117 90.2966 121.117C89.6206 121.117 89.0183 120.965 88.4896 120.662C87.9696 120.359 87.5623 119.93 87.2676 119.375C86.9729 118.82 86.8256 118.17 86.8256 117.425ZM99.1421 121L96.3471 117.854V121H95.1641V111.38H96.3471V117.035L99.0901 113.876H100.741L97.3871 117.425L100.754 121H99.1421ZM106.503 115.202C106.746 114.777 107.101 114.431 107.569 114.162C108.037 113.893 108.57 113.759 109.168 113.759C109.81 113.759 110.386 113.911 110.897 114.214C111.409 114.517 111.812 114.946 112.106 115.501C112.401 116.047 112.548 116.684 112.548 117.412C112.548 118.131 112.401 118.773 112.106 119.336C111.812 119.899 111.404 120.337 110.884 120.649C110.373 120.961 109.801 121.117 109.168 121.117C108.553 121.117 108.011 120.983 107.543 120.714C107.084 120.445 106.737 120.103 106.503 119.687V121H105.32V111.38H106.503V115.202ZM111.339 117.412C111.339 116.875 111.231 116.407 111.014 116.008C110.798 115.609 110.503 115.306 110.13 115.098C109.766 114.89 109.363 114.786 108.921 114.786C108.488 114.786 108.085 114.894 107.712 115.111C107.348 115.319 107.054 115.627 106.828 116.034C106.612 116.433 106.503 116.896 106.503 117.425C106.503 117.962 106.612 118.435 106.828 118.842C107.054 119.241 107.348 119.548 107.712 119.765C108.085 119.973 108.488 120.077 108.921 120.077C109.363 120.077 109.766 119.973 110.13 119.765C110.503 119.548 110.798 119.241 111.014 118.842C111.231 118.435 111.339 117.958 111.339 117.412ZM120.605 117.165C120.605 117.39 120.592 117.629 120.566 117.88H114.872C114.916 118.582 115.154 119.132 115.587 119.531C116.029 119.921 116.562 120.116 117.186 120.116C117.698 120.116 118.122 119.999 118.46 119.765C118.807 119.522 119.05 119.202 119.188 118.803H120.462C120.272 119.488 119.89 120.047 119.318 120.48C118.746 120.905 118.036 121.117 117.186 121.117C116.51 121.117 115.904 120.965 115.366 120.662C114.838 120.359 114.422 119.93 114.118 119.375C113.815 118.812 113.663 118.162 113.663 117.425C113.663 116.688 113.811 116.043 114.105 115.488C114.4 114.933 114.812 114.509 115.34 114.214C115.878 113.911 116.493 113.759 117.186 113.759C117.862 113.759 118.46 113.906 118.98 114.201C119.5 114.496 119.899 114.903 120.176 115.423C120.462 115.934 120.605 116.515 120.605 117.165ZM119.383 116.918C119.383 116.467 119.284 116.082 119.084 115.761C118.885 115.432 118.612 115.185 118.265 115.02C117.927 114.847 117.55 114.76 117.134 114.76C116.536 114.76 116.025 114.951 115.6 115.332C115.184 115.713 114.946 116.242 114.885 116.918H119.383ZM125.066 114.851H123.571V121H122.388V114.851H121.465V113.876H122.388V113.369C122.388 112.572 122.592 111.991 122.999 111.627C123.415 111.254 124.078 111.068 124.988 111.068V112.056C124.468 112.056 124.1 112.16 123.883 112.368C123.675 112.567 123.571 112.901 123.571 113.369V113.876H125.066V114.851ZM129.552 121.117C128.885 121.117 128.278 120.965 127.732 120.662C127.195 120.359 126.77 119.93 126.458 119.375C126.155 118.812 126.003 118.162 126.003 117.425C126.003 116.697 126.159 116.056 126.471 115.501C126.792 114.938 127.225 114.509 127.771 114.214C128.317 113.911 128.928 113.759 129.604 113.759C130.28 113.759 130.891 113.911 131.437 114.214C131.983 114.509 132.412 114.933 132.724 115.488C133.045 116.043 133.205 116.688 133.205 117.425C133.205 118.162 133.041 118.812 132.711 119.375C132.391 119.93 131.953 120.359 131.398 120.662C130.844 120.965 130.228 121.117 129.552 121.117ZM129.552 120.077C129.977 120.077 130.376 119.977 130.748 119.778C131.121 119.579 131.42 119.28 131.645 118.881C131.879 118.482 131.996 117.997 131.996 117.425C131.996 116.853 131.884 116.368 131.658 115.969C131.433 115.57 131.138 115.276 130.774 115.085C130.41 114.886 130.016 114.786 129.591 114.786C129.158 114.786 128.759 114.886 128.395 115.085C128.04 115.276 127.754 115.57 127.537 115.969C127.321 116.368 127.212 116.853 127.212 117.425C127.212 118.006 127.316 118.495 127.524 118.894C127.741 119.293 128.027 119.592 128.382 119.791C128.738 119.982 129.128 120.077 129.552 120.077ZM135.944 115.033C136.152 114.626 136.446 114.309 136.828 114.084C137.218 113.859 137.69 113.746 138.245 113.746V114.968H137.933C136.607 114.968 135.944 115.687 135.944 117.126V121H134.761V113.876H135.944V115.033ZM146.11 117.165C146.11 117.39 146.097 117.629 146.071 117.88H140.377C140.421 118.582 140.659 119.132 141.092 119.531C141.534 119.921 142.067 120.116 142.691 120.116C143.203 120.116 143.627 119.999 143.965 119.765C144.312 119.522 144.555 119.202 144.693 118.803H145.967C145.777 119.488 145.395 120.047 144.823 120.48C144.251 120.905 143.541 121.117 142.691 121.117C142.015 121.117 141.409 120.965 140.871 120.662C140.343 120.359 139.927 119.93 139.623 119.375C139.32 118.812 139.168 118.162 139.168 117.425C139.168 116.688 139.316 116.043 139.61 115.488C139.905 114.933 140.317 114.509 140.845 114.214C141.383 113.911 141.998 113.759 142.691 113.759C143.367 113.759 143.965 113.906 144.485 114.201C145.005 114.496 145.404 114.903 145.681 115.423C145.967 115.934 146.11 116.515 146.11 117.165ZM144.888 116.918C144.888 116.467 144.789 116.082 144.589 115.761C144.39 115.432 144.117 115.185 143.77 115.02C143.432 114.847 143.055 114.76 142.639 114.76C142.041 114.76 141.53 114.951 141.105 115.332C140.689 115.713 140.451 116.242 140.39 116.918H144.888ZM23.444 132.851V137.05C23.444 137.397 23.5177 137.644 23.665 137.791C23.8123 137.93 24.068 137.999 24.432 137.999H25.303V139H24.237C23.5783 139 23.0843 138.848 22.755 138.545C22.4257 138.242 22.261 137.743 22.261 137.05V132.851H21.338V131.876H22.261V130.082H23.444V131.876H25.303V132.851H23.444ZM29.8434 139.117C29.176 139.117 28.5694 138.965 28.0234 138.662C27.486 138.359 27.0614 137.93 26.7494 137.375C26.446 136.812 26.2944 136.162 26.2944 135.425C26.2944 134.697 26.4504 134.056 26.7624 133.501C27.083 132.938 27.5164 132.509 28.0624 132.214C28.6084 131.911 29.2194 131.759 29.8954 131.759C30.5714 131.759 31.1824 131.911 31.7284 132.214C32.2744 132.509 32.7034 132.933 33.0154 133.488C33.336 134.043 33.4964 134.688 33.4964 135.425C33.4964 136.162 33.3317 136.812 33.0024 137.375C32.6817 137.93 32.244 138.359 31.6894 138.662C31.1347 138.965 30.5194 139.117 29.8434 139.117ZM29.8434 138.077C30.268 138.077 30.6667 137.977 31.0394 137.778C31.412 137.579 31.711 137.28 31.9364 136.881C32.1704 136.482 32.2874 135.997 32.2874 135.425C32.2874 134.853 32.1747 134.368 31.9494 133.969C31.724 133.57 31.4294 133.276 31.0654 133.085C30.7014 132.886 30.307 132.786 29.8824 132.786C29.449 132.786 29.0504 132.886 28.6864 133.085C28.331 133.276 28.045 133.57 27.8284 133.969C27.6117 134.368 27.5034 134.853 27.5034 135.425C27.5034 136.006 27.6074 136.495 27.8154 136.894C28.032 137.293 28.318 137.592 28.6734 137.791C29.0287 137.982 29.4187 138.077 29.8434 138.077ZM39.7006 133.202C39.9433 132.777 40.2986 132.431 40.7666 132.162C41.2346 131.893 41.7676 131.759 42.3656 131.759C43.0069 131.759 43.5833 131.911 44.0946 132.214C44.6059 132.517 45.0089 132.946 45.3036 133.501C45.5983 134.047 45.7456 134.684 45.7456 135.412C45.7456 136.131 45.5983 136.773 45.3036 137.336C45.0089 137.899 44.6016 138.337 44.0816 138.649C43.5703 138.961 42.9983 139.117 42.3656 139.117C41.7503 139.117 41.2086 138.983 40.7406 138.714C40.2813 138.445 39.9346 138.103 39.7006 137.687V139H38.5176V129.38H39.7006V133.202ZM44.5366 135.412C44.5366 134.875 44.4283 134.407 44.2116 134.008C43.9949 133.609 43.7003 133.306 43.3276 133.098C42.9636 132.89 42.5606 132.786 42.1186 132.786C41.6853 132.786 41.2823 132.894 40.9096 133.111C40.5456 133.319 40.2509 133.627 40.0256 134.034C39.8089 134.433 39.7006 134.896 39.7006 135.425C39.7006 135.962 39.8089 136.435 40.0256 136.842C40.2509 137.241 40.5456 137.548 40.9096 137.765C41.2823 137.973 41.6853 138.077 42.1186 138.077C42.5606 138.077 42.9636 137.973 43.3276 137.765C43.7003 137.548 43.9949 137.241 44.2116 136.842C44.4283 136.435 44.5366 135.958 44.5366 135.412ZM53.8028 135.165C53.8028 135.39 53.7898 135.629 53.7638 135.88H48.0698C48.1131 136.582 48.3514 137.132 48.7848 137.531C49.2268 137.921 49.7598 138.116 50.3838 138.116C50.8951 138.116 51.3198 137.999 51.6578 137.765C52.0044 137.522 52.2471 137.202 52.3858 136.803H53.6598C53.4691 137.488 53.0878 138.047 52.5158 138.48C51.9438 138.905 51.2331 139.117 50.3838 139.117C49.7078 139.117 49.1011 138.965 48.5638 138.662C48.0351 138.359 47.6191 137.93 47.3158 137.375C47.0124 136.812 46.8608 136.162 46.8608 135.425C46.8608 134.688 47.0081 134.043 47.3028 133.488C47.5974 132.933 48.0091 132.509 48.5378 132.214C49.0751 131.911 49.6904 131.759 50.3838 131.759C51.0598 131.759 51.6578 131.906 52.1778 132.201C52.6978 132.496 53.0964 132.903 53.3738 133.423C53.6598 133.934 53.8028 134.515 53.8028 135.165ZM52.5808 134.918C52.5808 134.467 52.4811 134.082 52.2818 133.761C52.0824 133.432 51.8094 133.185 51.4628 133.02C51.1248 132.847 50.7478 132.76 50.3318 132.76C49.7338 132.76 49.2224 132.951 48.7978 133.332C48.3818 133.713 48.1434 134.242 48.0828 134.918H52.5808ZM58.3881 135.412C58.3881 134.684 58.5354 134.047 58.8301 133.501C59.1248 132.946 59.5278 132.517 60.0391 132.214C60.5591 131.911 61.1354 131.759 61.7681 131.759C62.3921 131.759 62.9338 131.893 63.3931 132.162C63.8524 132.431 64.1948 132.769 64.4201 133.176V131.876H65.6161V139H64.4201V137.674C64.1861 138.09 63.8351 138.437 63.3671 138.714C62.9078 138.983 62.3704 139.117 61.7551 139.117C61.1224 139.117 60.5504 138.961 60.0391 138.649C59.5278 138.337 59.1248 137.899 58.8301 137.336C58.5354 136.773 58.3881 136.131 58.3881 135.412ZM64.4201 135.425C64.4201 134.888 64.3118 134.42 64.0951 134.021C63.8784 133.622 63.5838 133.319 63.2111 133.111C62.8471 132.894 62.4441 132.786 62.0021 132.786C61.5601 132.786 61.1571 132.89 60.7931 133.098C60.4291 133.306 60.1388 133.609 59.9221 134.008C59.7054 134.407 59.5971 134.875 59.5971 135.412C59.5971 135.958 59.7054 136.435 59.9221 136.842C60.1388 137.241 60.4291 137.548 60.7931 137.765C61.1571 137.973 61.5601 138.077 62.0021 138.077C62.4441 138.077 62.8471 137.973 63.2111 137.765C63.5838 137.548 63.8784 137.241 64.0951 136.842C64.3118 136.435 64.4201 135.962 64.4201 135.425ZM68.7983 133.202C69.0409 132.777 69.3963 132.431 69.8643 132.162C70.3323 131.893 70.8653 131.759 71.4633 131.759C72.1046 131.759 72.6809 131.911 73.1923 132.214C73.7036 132.517 74.1066 132.946 74.4013 133.501C74.6959 134.047 74.8433 134.684 74.8433 135.412C74.8433 136.131 74.6959 136.773 74.4013 137.336C74.1066 137.899 73.6993 138.337 73.1793 138.649C72.6679 138.961 72.0959 139.117 71.4633 139.117C70.8479 139.117 70.3063 138.983 69.8383 138.714C69.3789 138.445 69.0323 138.103 68.7983 137.687V139H67.6153V129.38H68.7983V133.202ZM73.6343 135.412C73.6343 134.875 73.5259 134.407 73.3093 134.008C73.0926 133.609 72.7979 133.306 72.4253 133.098C72.0613 132.89 71.6583 132.786 71.2163 132.786C70.7829 132.786 70.3799 132.894 70.0073 133.111C69.6433 133.319 69.3486 133.627 69.1233 134.034C68.9066 134.433 68.7983 134.896 68.7983 135.425C68.7983 135.962 68.9066 136.435 69.1233 136.842C69.3486 137.241 69.6433 137.548 70.0073 137.765C70.3799 137.973 70.7829 138.077 71.2163 138.077C71.6583 138.077 72.0613 137.973 72.4253 137.765C72.7979 137.548 73.0926 137.241 73.3093 136.842C73.5259 136.435 73.6343 135.958 73.6343 135.412ZM77.5834 129.38V139H76.4004V129.38H77.5834ZM86.0996 135.165C86.0996 135.39 86.0866 135.629 86.0606 135.88H80.3666C80.41 136.582 80.6483 137.132 81.0816 137.531C81.5236 137.921 82.0566 138.116 82.6806 138.116C83.192 138.116 83.6166 137.999 83.9546 137.765C84.3013 137.522 84.544 137.202 84.6826 136.803H85.9566C85.766 137.488 85.3846 138.047 84.8126 138.48C84.2406 138.905 83.53 139.117 82.6806 139.117C82.0046 139.117 81.398 138.965 80.8606 138.662C80.332 138.359 79.916 137.93 79.6126 137.375C79.3093 136.812 79.1576 136.162 79.1576 135.425C79.1576 134.688 79.305 134.043 79.5996 133.488C79.8943 132.933 80.306 132.509 80.8346 132.214C81.372 131.911 81.9873 131.759 82.6806 131.759C83.3566 131.759 83.9546 131.906 84.4746 132.201C84.9946 132.496 85.3933 132.903 85.6706 133.423C85.9566 133.934 86.0996 134.515 86.0996 135.165ZM84.8776 134.918C84.8776 134.467 84.778 134.082 84.5786 133.761C84.3793 133.432 84.1063 133.185 83.7596 133.02C83.4216 132.847 83.0446 132.76 82.6286 132.76C82.0306 132.76 81.5193 132.951 81.0946 133.332C80.6786 133.713 80.4403 134.242 80.3796 134.918H84.8776ZM92.57 132.851V137.05C92.57 137.397 92.6436 137.644 92.791 137.791C92.9383 137.93 93.194 137.999 93.558 137.999H94.429V139H93.363C92.7043 139 92.2103 138.848 91.881 138.545C91.5516 138.242 91.387 137.743 91.387 137.05V132.851H90.464V131.876H91.387V130.082H92.57V131.876H94.429V132.851H92.57ZM98.9693 139.117C98.302 139.117 97.6953 138.965 97.1493 138.662C96.612 138.359 96.1873 137.93 95.8753 137.375C95.572 136.812 95.4203 136.162 95.4203 135.425C95.4203 134.697 95.5763 134.056 95.8883 133.501C96.209 132.938 96.6423 132.509 97.1883 132.214C97.7343 131.911 98.3453 131.759 99.0213 131.759C99.6973 131.759 100.308 131.911 100.854 132.214C101.4 132.509 101.829 132.933 102.141 133.488C102.462 134.043 102.622 134.688 102.622 135.425C102.622 136.162 102.458 136.812 102.128 137.375C101.808 137.93 101.37 138.359 100.815 138.662C100.261 138.965 99.6453 139.117 98.9693 139.117ZM98.9693 138.077C99.394 138.077 99.7927 137.977 100.165 137.778C100.538 137.579 100.837 137.28 101.062 136.881C101.296 136.482 101.413 135.997 101.413 135.425C101.413 134.853 101.301 134.368 101.075 133.969C100.85 133.57 100.555 133.276 100.191 133.085C99.8273 132.886 99.433 132.786 99.0083 132.786C98.575 132.786 98.1763 132.886 97.8123 133.085C97.457 133.276 97.171 133.57 96.9543 133.969C96.7377 134.368 96.6293 134.853 96.6293 135.425C96.6293 136.006 96.7333 136.495 96.9413 136.894C97.158 137.293 97.444 137.592 97.7993 137.791C98.1547 137.982 98.5447 138.077 98.9693 138.077ZM108.827 133.202C109.069 132.777 109.425 132.431 109.893 132.162C110.361 131.893 110.894 131.759 111.492 131.759C112.133 131.759 112.709 131.911 113.221 132.214C113.732 132.517 114.135 132.946 114.43 133.501C114.724 134.047 114.872 134.684 114.872 135.412C114.872 136.131 114.724 136.773 114.43 137.336C114.135 137.899 113.728 138.337 113.208 138.649C112.696 138.961 112.124 139.117 111.492 139.117C110.876 139.117 110.335 138.983 109.867 138.714C109.407 138.445 109.061 138.103 108.827 137.687V139H107.644V129.38H108.827V133.202ZM113.663 135.412C113.663 134.875 113.554 134.407 113.338 134.008C113.121 133.609 112.826 133.306 112.454 133.098C112.09 132.89 111.687 132.786 111.245 132.786C110.811 132.786 110.408 132.894 110.036 133.111C109.672 133.319 109.377 133.627 109.152 134.034C108.935 134.433 108.827 134.896 108.827 135.425C108.827 135.962 108.935 136.435 109.152 136.842C109.377 137.241 109.672 137.548 110.036 137.765C110.408 137.973 110.811 138.077 111.245 138.077C111.687 138.077 112.09 137.973 112.454 137.765C112.826 137.548 113.121 137.241 113.338 136.842C113.554 136.435 113.663 135.958 113.663 135.412ZM119.536 139.117C118.868 139.117 118.262 138.965 117.716 138.662C117.178 138.359 116.754 137.93 116.442 137.375C116.138 136.812 115.987 136.162 115.987 135.425C115.987 134.697 116.143 134.056 116.455 133.501C116.775 132.938 117.209 132.509 117.755 132.214C118.301 131.911 118.912 131.759 119.588 131.759C120.264 131.759 120.875 131.911 121.421 132.214C121.967 132.509 122.396 132.933 122.708 133.488C123.028 134.043 123.189 134.688 123.189 135.425C123.189 136.162 123.024 136.812 122.695 137.375C122.374 137.93 121.936 138.359 121.382 138.662C120.827 138.965 120.212 139.117 119.536 139.117ZM119.536 138.077C119.96 138.077 120.359 137.977 120.732 137.778C121.104 137.579 121.403 137.28 121.629 136.881C121.863 136.482 121.98 135.997 121.98 135.425C121.98 134.853 121.867 134.368 121.642 133.969C121.416 133.57 121.122 133.276 120.758 133.085C120.394 132.886 119.999 132.786 119.575 132.786C119.141 132.786 118.743 132.886 118.379 133.085C118.023 133.276 117.737 133.57 117.521 133.969C117.304 134.368 117.196 134.853 117.196 135.425C117.196 136.006 117.3 136.495 117.508 136.894C117.724 137.293 118.01 137.592 118.366 137.791C118.721 137.982 119.111 138.077 119.536 138.077ZM127.851 139.117C127.184 139.117 126.577 138.965 126.031 138.662C125.494 138.359 125.069 137.93 124.757 137.375C124.454 136.812 124.302 136.162 124.302 135.425C124.302 134.697 124.458 134.056 124.77 133.501C125.091 132.938 125.524 132.509 126.07 132.214C126.616 131.911 127.227 131.759 127.903 131.759C128.579 131.759 129.19 131.911 129.736 132.214C130.282 132.509 130.711 132.933 131.023 133.488C131.344 134.043 131.504 134.688 131.504 135.425C131.504 136.162 131.339 136.812 131.01 137.375C130.689 137.93 130.252 138.359 129.697 138.662C129.142 138.965 128.527 139.117 127.851 139.117ZM127.851 138.077C128.276 138.077 128.674 137.977 129.047 137.778C129.42 137.579 129.719 137.28 129.944 136.881C130.178 136.482 130.295 135.997 130.295 135.425C130.295 134.853 130.182 134.368 129.957 133.969C129.732 133.57 129.437 133.276 129.073 133.085C128.709 132.886 128.315 132.786 127.89 132.786C127.457 132.786 127.058 132.886 126.694 133.085C126.339 133.276 126.053 133.57 125.836 133.969C125.619 134.368 125.511 134.853 125.511 135.425C125.511 136.006 125.615 136.495 125.823 136.894C126.04 137.293 126.326 137.592 126.681 137.791C127.036 137.982 127.426 138.077 127.851 138.077ZM137.038 139L134.243 135.854V139H133.06V129.38H134.243V135.035L136.986 131.876H138.637L135.283 135.425L138.65 139H137.038ZM142.774 135.412C142.774 134.684 142.921 134.047 143.216 133.501C143.511 132.946 143.914 132.517 144.425 132.214C144.945 131.911 145.521 131.759 146.154 131.759C146.778 131.759 147.32 131.893 147.779 132.162C148.238 132.431 148.581 132.769 148.806 133.176V131.876H150.002V139H148.806V137.674C148.572 138.09 148.221 138.437 147.753 138.714C147.294 138.983 146.756 139.117 146.141 139.117C145.508 139.117 144.936 138.961 144.425 138.649C143.914 138.337 143.511 137.899 143.216 137.336C142.921 136.773 142.774 136.131 142.774 135.412ZM148.806 135.425C148.806 134.888 148.698 134.42 148.481 134.021C148.264 133.622 147.97 133.319 147.597 133.111C147.233 132.894 146.83 132.786 146.388 132.786C145.946 132.786 145.543 132.89 145.179 133.098C144.815 133.306 144.525 133.609 144.308 134.008C144.091 134.407 143.983 134.875 143.983 135.412C143.983 135.958 144.091 136.435 144.308 136.842C144.525 137.241 144.815 137.548 145.179 137.765C145.543 137.973 145.946 138.077 146.388 138.077C146.83 138.077 147.233 137.973 147.597 137.765C147.97 137.548 148.264 137.241 148.481 136.842C148.698 136.435 148.806 135.962 148.806 135.425ZM23.444 151.851V156.05C23.444 156.397 23.5177 156.644 23.665 156.791C23.8123 156.93 24.068 156.999 24.432 156.999H25.303V158H24.237C23.5783 158 23.0843 157.848 22.755 157.545C22.4257 157.242 22.261 156.743 22.261 156.05V151.851H21.338V150.876H22.261V149.082H23.444V150.876H25.303V151.851H23.444ZM33.2364 154.165C33.2364 154.39 33.2234 154.629 33.1974 154.88H27.5034C27.5467 155.582 27.785 156.132 28.2184 156.531C28.6604 156.921 29.1934 157.116 29.8174 157.116C30.3287 157.116 30.7534 156.999 31.0914 156.765C31.438 156.522 31.6807 156.202 31.8194 155.803H33.0934C32.9027 156.488 32.5214 157.047 31.9494 157.48C31.3774 157.905 30.6667 158.117 29.8174 158.117C29.1414 158.117 28.5347 157.965 27.9974 157.662C27.4687 157.359 27.0527 156.93 26.7494 156.375C26.446 155.812 26.2944 155.162 26.2944 154.425C26.2944 153.688 26.4417 153.043 26.7364 152.488C27.031 151.933 27.4427 151.509 27.9714 151.214C28.5087 150.911 29.124 150.759 29.8174 150.759C30.4934 150.759 31.0914 150.906 31.6114 151.201C32.1314 151.496 32.53 151.903 32.8074 152.423C33.0934 152.934 33.2364 153.515 33.2364 154.165ZM32.0144 153.918C32.0144 153.467 31.9147 153.082 31.7154 152.761C31.516 152.432 31.243 152.185 30.8964 152.02C30.5584 151.847 30.1814 151.76 29.7654 151.76C29.1674 151.76 28.656 151.951 28.2314 152.332C27.8154 152.713 27.577 153.242 27.5164 153.918H32.0144ZM37.3199 158.117C36.7739 158.117 36.2842 158.026 35.8509 157.844C35.4175 157.653 35.0752 157.393 34.8239 157.064C34.5725 156.726 34.4339 156.34 34.4079 155.907H35.6299C35.6645 156.262 35.8292 156.553 36.1239 156.778C36.4272 157.003 36.8215 157.116 37.3069 157.116C37.7575 157.116 38.1129 157.016 38.3729 156.817C38.6329 156.618 38.7629 156.366 38.7629 156.063C38.7629 155.751 38.6242 155.521 38.3469 155.374C38.0695 155.218 37.6405 155.066 37.0599 154.919C36.5312 154.78 36.0979 154.642 35.7599 154.503C35.4305 154.356 35.1445 154.143 34.9019 153.866C34.6679 153.58 34.5509 153.207 34.5509 152.748C34.5509 152.384 34.6592 152.05 34.8759 151.747C35.0925 151.444 35.4002 151.205 35.7989 151.032C36.1975 150.85 36.6525 150.759 37.1639 150.759C37.9525 150.759 38.5895 150.958 39.0749 151.357C39.5602 151.756 39.8202 152.302 39.8549 152.995H38.6719C38.6459 152.622 38.4942 152.323 38.2169 152.098C37.9482 151.873 37.5842 151.76 37.1249 151.76C36.7002 151.76 36.3622 151.851 36.1109 152.033C35.8595 152.215 35.7339 152.453 35.7339 152.748C35.7339 152.982 35.8075 153.177 35.9549 153.333C36.1109 153.48 36.3015 153.602 36.5269 153.697C36.7609 153.784 37.0815 153.883 37.4889 153.996C38.0002 154.135 38.4162 154.273 38.7369 154.412C39.0575 154.542 39.3305 154.741 39.5559 155.01C39.7899 155.279 39.9112 155.63 39.9199 156.063C39.9199 156.453 39.8115 156.804 39.5949 157.116C39.3782 157.428 39.0705 157.675 38.6719 157.857C38.2819 158.03 37.8312 158.117 37.3199 158.117ZM43.0329 151.851V156.05C43.0329 156.397 43.1065 156.644 43.2539 156.791C43.4012 156.93 43.6569 156.999 44.0209 156.999H44.8919V158H43.8259C43.1672 158 42.6732 157.848 42.3439 157.545C42.0145 157.242 41.8499 156.743 41.8499 156.05V151.851H40.9269V150.876H41.8499V149.082H43.0329V150.876H44.8919V151.851H43.0329ZM49.349 154.412C49.349 153.684 49.4964 153.047 49.791 152.501C50.0857 151.946 50.4887 151.517 51 151.214C51.52 150.911 52.1007 150.759 52.742 150.759C53.2967 150.759 53.8124 150.889 54.289 151.149C54.7657 151.4 55.1297 151.734 55.381 152.15V148.38H56.577V158H55.381V156.661C55.147 157.086 54.8004 157.437 54.341 157.714C53.8817 157.983 53.3444 158.117 52.729 158.117C52.0964 158.117 51.52 157.961 51 157.649C50.4887 157.337 50.0857 156.899 49.791 156.336C49.4964 155.773 49.349 155.131 49.349 154.412ZM55.381 154.425C55.381 153.888 55.2727 153.42 55.056 153.021C54.8394 152.622 54.5447 152.319 54.172 152.111C53.808 151.894 53.405 151.786 52.963 151.786C52.521 151.786 52.118 151.89 51.754 152.098C51.39 152.306 51.0997 152.609 50.883 153.008C50.6664 153.407 50.558 153.875 50.558 154.412C50.558 154.958 50.6664 155.435 50.883 155.842C51.0997 156.241 51.39 156.548 51.754 156.765C52.118 156.973 52.521 157.077 52.963 157.077C53.405 157.077 53.808 156.973 54.172 156.765C54.5447 156.548 54.8394 156.241 55.056 155.842C55.2727 155.435 55.381 154.962 55.381 154.425ZM59.7592 152.033C59.9672 151.626 60.2619 151.309 60.6432 151.084C61.0332 150.859 61.5055 150.746 62.0602 150.746V151.968H61.7482C60.4222 151.968 59.7592 152.687 59.7592 154.126V158H58.5762V150.876H59.7592V152.033ZM64.0368 149.719C63.8115 149.719 63.6208 149.641 63.4648 149.485C63.3088 149.329 63.2308 149.138 63.2308 148.913C63.2308 148.688 63.3088 148.497 63.4648 148.341C63.6208 148.185 63.8115 148.107 64.0368 148.107C64.2535 148.107 64.4355 148.185 64.5828 148.341C64.7388 148.497 64.8168 148.688 64.8168 148.913C64.8168 149.138 64.7388 149.329 64.5828 149.485C64.4355 149.641 64.2535 149.719 64.0368 149.719ZM64.6088 150.876V158H63.4258V150.876H64.6088ZM69.277 156.908L71.487 150.876H72.748L69.953 158H68.575L65.78 150.876H67.054L69.277 156.908ZM80.4121 154.165C80.4121 154.39 80.3991 154.629 80.3731 154.88H74.6791C74.7225 155.582 74.9608 156.132 75.3941 156.531C75.8361 156.921 76.3691 157.116 76.9931 157.116C77.5045 157.116 77.9291 156.999 78.2671 156.765C78.6138 156.522 78.8565 156.202 78.9951 155.803H80.2691C80.0785 156.488 79.6971 157.047 79.1251 157.48C78.5531 157.905 77.8425 158.117 76.9931 158.117C76.3171 158.117 75.7105 157.965 75.1731 157.662C74.6445 157.359 74.2285 156.93 73.9251 156.375C73.6218 155.812 73.4701 155.162 73.4701 154.425C73.4701 153.688 73.6175 153.043 73.9121 152.488C74.2068 151.933 74.6185 151.509 75.1471 151.214C75.6845 150.911 76.2998 150.759 76.9931 150.759C77.6691 150.759 78.2671 150.906 78.7871 151.201C79.3071 151.496 79.7058 151.903 79.9831 152.423C80.2691 152.934 80.4121 153.515 80.4121 154.165ZM79.1901 153.918C79.1901 153.467 79.0905 153.082 78.8911 152.761C78.6918 152.432 78.4188 152.185 78.0721 152.02C77.7341 151.847 77.3571 151.76 76.9411 151.76C76.3431 151.76 75.8318 151.951 75.4071 152.332C74.9911 152.713 74.7528 153.242 74.6921 153.918H79.1901Z" fill="#030303"/>
</g>
<defs>
<filter id="filter0_d_1_362" x="0" y="0" width="180" height="186" filterUnits="userSpaceOnUse" color-interpolation-filters="sRGB">
<feFlood flood-opacity="0" result="BackgroundImageFix"/>
<feColorMatrix in="SourceAlpha" type="matrix" values="0 0 0 0 0 0 0 0 0 0 0 0 0 0 0 0 0 0 127 0" result="hardAlpha"/>
<feOffset dy="2"/>
<feGaussianBlur stdDeviation="2"/>
<feColorMatrix type="matrix" values="0 0 0 0 0 0 0 0 0 0 0 0 0 0 0 0 0 0 0.15 0"/>
<feBlend mode="normal" in2="BackgroundImageFix" result="effect1_dropShadow_1_362"/>
<feBlend mode="normal" in="SourceGraphic" in2="effect1_dropShadow_1_362" result="shape"/>
</filter>
</defs>
</svg>
