<svg width="180" height="186" viewBox="0 0 180 186" fill="none" xmlns="http://www.w3.org/2000/svg">
<g filter="url(#filter0_d_1_364)">
<rect x="4" y="2" width="172" height="178" rx="10" fill="white"/>
<rect x="4.5" y="2.5" width="171" height="177" rx="9.5" stroke="#E9EBEF"/>
<path d="M44.25 37.75V40.75C44.25 41.5784 43.5784 42.25 42.75 42.25H39.75" stroke="#5A89EA" stroke-width="1.5" stroke-linecap="round" stroke-linejoin="round"/>
<path d="M39.75 19.75H42.75C43.5784 19.75 44.25 20.4216 44.25 21.25V24.25" stroke="#5A89EA" stroke-width="1.5" stroke-linecap="round" stroke-linejoin="round"/>
<path d="M21.75 24.25V21.25C21.75 20.4216 22.4216 19.75 23.25 19.75H26.25" stroke="#5A89EA" stroke-width="1.5" stroke-linecap="round" stroke-linejoin="round"/>
<path d="M26.25 42.25H23.25C22.4216 42.25 21.75 41.5784 21.75 40.75V37.75" stroke="#5A89EA" stroke-width="1.5" stroke-linecap="round" stroke-linejoin="round"/>
<path d="M26.291 38.5C26.6738 35.0839 29.5625 32.5009 33 32.5009C36.4375 32.5009 39.3262 35.0839 39.709 38.5" stroke="#5A89EA" stroke-width="1.5" stroke-linecap="round" stroke-linejoin="round"/>
<path d="M28.876 26.986V27.986C28.9148 29.1374 28.6162 30.275 28.017 31.259" stroke="#5A89EA" stroke-width="1.5" stroke-linecap="round" stroke-linejoin="round"/>
<path d="M37.124 26.986V27.986C37.0852 29.1374 37.3838 30.275 37.983 31.259" stroke="#5A89EA" stroke-width="1.5" stroke-linecap="round" stroke-linejoin="round"/>
<path d="M28.888 27.205C30.4684 27.1938 31.9672 26.5013 33 25.305C34.0328 26.5013 35.5316 27.1938 37.112 27.205" stroke="#5A89EA" stroke-width="1.5" stroke-linecap="round" stroke-linejoin="round"/>
<path fill-rule="evenodd" clip-rule="evenodd" d="M33 31C35.2782 31 37.125 29.1532 37.125 26.875C37.125 24.5968 35.2782 22.75 33 22.75C30.7218 22.75 28.875 24.5968 28.875 26.875C28.875 29.1532 30.7218 31 33 31Z" stroke="#5A89EA" stroke-width="1.5" stroke-linecap="round" stroke-linejoin="round"/>
<path d="M21.82 64H27.82V66H24.02V69.7H27.04V71.7H24.02V76H27.82V78H21.82V64ZM30.7856 64H33.7656L36.0456 78H33.8456L33.4456 75.22V75.26H30.9456L30.5456 78H28.5056L30.7856 64ZM33.1856 73.36L32.2056 66.44H32.1656L31.2056 73.36H33.1856ZM39.9144 78.2C38.8477 78.2 38.041 77.9 37.4944 77.3C36.9477 76.6867 36.6744 75.8133 36.6744 74.68V73.88H38.7544V74.84C38.7544 75.7467 39.1344 76.2 39.8944 76.2C40.2677 76.2 40.5477 76.0933 40.7344 75.88C40.9344 75.6533 41.0344 75.2933 41.0344 74.8C41.0344 74.2133 40.901 73.7 40.6344 73.26C40.3677 72.8067 39.8744 72.2667 39.1544 71.64C38.2477 70.84 37.6144 70.12 37.2544 69.48C36.8944 68.8267 36.7144 68.0933 36.7144 67.28C36.7144 66.1733 36.9944 65.32 37.5544 64.72C38.1144 64.1067 38.9277 63.8 39.9944 63.8C41.0477 63.8 41.841 64.1067 42.3744 64.72C42.921 65.32 43.1944 66.1867 43.1944 67.32V67.9H41.1144V67.18C41.1144 66.7 41.021 66.3533 40.8344 66.14C40.6477 65.9133 40.3744 65.8 40.0144 65.8C39.281 65.8 38.9144 66.2467 38.9144 67.14C38.9144 67.6467 39.0477 68.12 39.3144 68.56C39.5944 69 40.0944 69.5333 40.8144 70.16C41.7344 70.96 42.3677 71.6867 42.7144 72.34C43.061 72.9933 43.2344 73.76 43.2344 74.64C43.2344 75.7867 42.9477 76.6667 42.3744 77.28C41.8144 77.8933 40.9944 78.2 39.9144 78.2ZM46.3986 72.04L43.7386 64H46.0786L47.5786 69.14H47.6186L49.1186 64H51.2586L48.5986 72.04V78H46.3986V72.04ZM58.6528 78.2C57.5861 78.2 56.7728 77.9 56.2128 77.3C55.6528 76.6867 55.3728 75.8133 55.3728 74.68V64H57.5728V74.84C57.5728 75.32 57.6661 75.6667 57.8528 75.88C58.0528 76.0933 58.3328 76.2 58.6928 76.2C59.0528 76.2 59.3261 76.0933 59.5128 75.88C59.7128 75.6667 59.8128 75.32 59.8128 74.84V64H61.9328V74.68C61.9328 75.8133 61.6528 76.6867 61.0928 77.3C60.5328 77.9 59.7195 78.2 58.6528 78.2ZM63.4997 64H66.7397C67.833 64 68.653 64.2933 69.1997 64.88C69.7464 65.4667 70.0197 66.3267 70.0197 67.46V68.84C70.0197 69.9733 69.7464 70.8333 69.1997 71.42C68.653 72.0067 67.833 72.3 66.7397 72.3H65.6997V78H63.4997V64ZM66.7397 70.3C67.0997 70.3 67.3664 70.2 67.5397 70C67.7264 69.8 67.8197 69.46 67.8197 68.98V67.32C67.8197 66.84 67.7264 66.5 67.5397 66.3C67.3664 66.1 67.0997 66 66.7397 66H65.6997V70.3H66.7397ZM71.2145 64H73.4145V76H77.0345V78H71.2145V64ZM81.1914 78.2C80.1114 78.2 79.2847 77.8933 78.7114 77.28C78.1381 76.6667 77.8514 75.8 77.8514 74.68V67.32C77.8514 66.2 78.1381 65.3333 78.7114 64.72C79.2847 64.1067 80.1114 63.8 81.1914 63.8C82.2714 63.8 83.0981 64.1067 83.6714 64.72C84.2447 65.3333 84.5314 66.2 84.5314 67.32V74.68C84.5314 75.8 84.2447 76.6667 83.6714 77.28C83.0981 77.8933 82.2714 78.2 81.1914 78.2ZM81.1914 76.2C81.9514 76.2 82.3314 75.74 82.3314 74.82V67.18C82.3314 66.26 81.9514 65.8 81.1914 65.8C80.4314 65.8 80.0514 66.26 80.0514 67.18V74.82C80.0514 75.74 80.4314 76.2 81.1914 76.2ZM87.6802 64H90.6602L92.9402 78H90.7402L90.3402 75.22V75.26H87.8402L87.4402 78H85.4002L87.6802 64ZM90.0802 73.36L89.1002 66.44H89.0602L88.1002 73.36H90.0802ZM94.0075 64H97.3675C98.4608 64 99.2808 64.2933 99.8275 64.88C100.374 65.4667 100.648 66.3267 100.648 67.46V74.54C100.648 75.6733 100.374 76.5333 99.8275 77.12C99.2808 77.7067 98.4608 78 97.3675 78H94.0075V64ZM97.3275 76C97.6875 76 97.9608 75.8933 98.1475 75.68C98.3475 75.4667 98.4475 75.12 98.4475 74.64V67.36C98.4475 66.88 98.3475 66.5333 98.1475 66.32C97.9608 66.1067 97.6875 66 97.3275 66H96.2075V76H97.3275Z" fill="#030303"/>
<path d="M27.357 100.985H23.405L22.677 103H21.429L24.705 93.991H26.07L29.333 103H28.085L27.357 100.985ZM27.019 100.023L25.381 95.447L23.743 100.023H27.019ZM30.3188 99.412C30.3188 98.684 30.4661 98.047 30.7608 97.501C31.0554 96.9463 31.4584 96.5173 31.9698 96.214C32.4898 95.9107 33.0704 95.759 33.7118 95.759C34.2664 95.759 34.7821 95.889 35.2588 96.149C35.7354 96.4003 36.0994 96.734 36.3508 97.15V93.38H37.5468V103H36.3508V101.661C36.1168 102.086 35.7701 102.437 35.3108 102.714C34.8514 102.983 34.3141 103.117 33.6988 103.117C33.0661 103.117 32.4898 102.961 31.9698 102.649C31.4584 102.337 31.0554 101.899 30.7608 101.336C30.4661 100.773 30.3188 100.131 30.3188 99.412ZM36.3508 99.425C36.3508 98.8877 36.2424 98.4197 36.0258 98.021C35.8091 97.6223 35.5144 97.319 35.1418 97.111C34.7778 96.8943 34.3748 96.786 33.9328 96.786C33.4908 96.786 33.0878 96.89 32.7238 97.098C32.3598 97.306 32.0694 97.6093 31.8528 98.008C31.6361 98.4067 31.5278 98.8747 31.5278 99.412C31.5278 99.958 31.6361 100.435 31.8528 100.842C32.0694 101.241 32.3598 101.548 32.7238 101.765C33.0878 101.973 33.4908 102.077 33.9328 102.077C34.3748 102.077 34.7778 101.973 35.1418 101.765C35.5144 101.548 35.8091 101.241 36.0258 100.842C36.2424 100.435 36.3508 99.9623 36.3508 99.425ZM39.1039 99.412C39.1039 98.684 39.2513 98.047 39.5459 97.501C39.8406 96.9463 40.2436 96.5173 40.7549 96.214C41.2749 95.9107 41.8556 95.759 42.4969 95.759C43.0516 95.759 43.5673 95.889 44.0439 96.149C44.5206 96.4003 44.8846 96.734 45.1359 97.15V93.38H46.3319V103H45.1359V101.661C44.9019 102.086 44.5553 102.437 44.0959 102.714C43.6366 102.983 43.0993 103.117 42.4839 103.117C41.8513 103.117 41.2749 102.961 40.7549 102.649C40.2436 102.337 39.8406 101.899 39.5459 101.336C39.2513 100.773 39.1039 100.131 39.1039 99.412ZM45.1359 99.425C45.1359 98.8877 45.0276 98.4197 44.8109 98.021C44.5943 97.6223 44.2996 97.319 43.9269 97.111C43.5629 96.8943 43.1599 96.786 42.7179 96.786C42.2759 96.786 41.8729 96.89 41.5089 97.098C41.1449 97.306 40.8546 97.6093 40.6379 98.008C40.4213 98.4067 40.3129 98.8747 40.3129 99.412C40.3129 99.958 40.4213 100.435 40.6379 100.842C40.8546 101.241 41.1449 101.548 41.5089 101.765C41.8729 101.973 42.2759 102.077 42.7179 102.077C43.1599 102.077 43.5629 101.973 43.9269 101.765C44.2996 101.548 44.5943 101.241 44.8109 100.842C45.0276 100.435 45.1359 99.9623 45.1359 99.425ZM51.3549 99.412C51.3549 98.684 51.5022 98.047 51.7969 97.501C52.0916 96.9463 52.4946 96.5173 53.0059 96.214C53.5259 95.9107 54.1022 95.759 54.7349 95.759C55.3589 95.759 55.9006 95.8933 56.3599 96.162C56.8192 96.4307 57.1616 96.7687 57.3869 97.176V95.876H58.5829V103H57.3869V101.674C57.1529 102.09 56.8019 102.437 56.3339 102.714C55.8746 102.983 55.3372 103.117 54.7219 103.117C54.0892 103.117 53.5172 102.961 53.0059 102.649C52.4946 102.337 52.0916 101.899 51.7969 101.336C51.5022 100.773 51.3549 100.131 51.3549 99.412ZM57.3869 99.425C57.3869 98.8877 57.2786 98.4197 57.0619 98.021C56.8452 97.6223 56.5506 97.319 56.1779 97.111C55.8139 96.8943 55.4109 96.786 54.9689 96.786C54.5269 96.786 54.1239 96.89 53.7599 97.098C53.3959 97.306 53.1056 97.6093 52.8889 98.008C52.6722 98.4067 52.5639 98.8747 52.5639 99.412C52.5639 99.958 52.6722 100.435 52.8889 100.842C53.1056 101.241 53.3959 101.548 53.7599 101.765C54.1239 101.973 54.5269 102.077 54.9689 102.077C55.4109 102.077 55.8139 101.973 56.1779 101.765C56.5506 101.548 56.8452 101.241 57.0619 100.842C57.2786 100.435 57.3869 99.9623 57.3869 99.425ZM63.6059 99.425C63.6059 98.6883 63.7532 98.047 64.0479 97.501C64.3425 96.9463 64.7499 96.5173 65.2699 96.214C65.7985 95.9107 66.4009 95.759 67.0769 95.759C67.9522 95.759 68.6715 95.9713 69.2349 96.396C69.8069 96.8207 70.1839 97.41 70.3659 98.164H69.0919C68.9705 97.7307 68.7322 97.3883 68.3769 97.137C68.0302 96.8857 67.5969 96.76 67.0769 96.76C66.4009 96.76 65.8549 96.994 65.4389 97.462C65.0229 97.9213 64.8149 98.5757 64.8149 99.425C64.8149 100.283 65.0229 100.946 65.4389 101.414C65.8549 101.882 66.4009 102.116 67.0769 102.116C67.5969 102.116 68.0302 101.995 68.3769 101.752C68.7235 101.509 68.9619 101.163 69.0919 100.712H70.3659C70.1752 101.44 69.7939 102.025 69.2219 102.467C68.6499 102.9 67.9349 103.117 67.0769 103.117C66.4009 103.117 65.7985 102.965 65.2699 102.662C64.7499 102.359 64.3425 101.93 64.0479 101.375C63.7532 100.82 63.6059 100.17 63.6059 99.425ZM71.5024 99.412C71.5024 98.684 71.6497 98.047 71.9444 97.501C72.239 96.9463 72.642 96.5173 73.1534 96.214C73.6734 95.9107 74.2497 95.759 74.8824 95.759C75.5064 95.759 76.048 95.8933 76.5074 96.162C76.9667 96.4307 77.309 96.7687 77.5344 97.176V95.876H78.7304V103H77.5344V101.674C77.3004 102.09 76.9494 102.437 76.4814 102.714C76.022 102.983 75.4847 103.117 74.8694 103.117C74.2367 103.117 73.6647 102.961 73.1534 102.649C72.642 102.337 72.239 101.899 71.9444 101.336C71.6497 100.773 71.5024 100.131 71.5024 99.412ZM77.5344 99.425C77.5344 98.8877 77.426 98.4197 77.2094 98.021C76.9927 97.6223 76.698 97.319 76.3254 97.111C75.9614 96.8943 75.5584 96.786 75.1164 96.786C74.6744 96.786 74.2714 96.89 73.9074 97.098C73.5434 97.306 73.253 97.6093 73.0364 98.008C72.8197 98.4067 72.7114 98.8747 72.7114 99.412C72.7114 99.958 72.8197 100.435 73.0364 100.842C73.253 101.241 73.5434 101.548 73.9074 101.765C74.2714 101.973 74.6744 102.077 75.1164 102.077C75.5584 102.077 75.9614 101.973 76.3254 101.765C76.698 101.548 76.9927 101.241 77.2094 100.842C77.426 100.435 77.5344 99.9623 77.5344 99.425ZM81.9125 97.033C82.1205 96.6257 82.4152 96.3093 82.7965 96.084C83.1865 95.8587 83.6588 95.746 84.2135 95.746V96.968H83.9015C82.5755 96.968 81.9125 97.6873 81.9125 99.126V103H80.7295V95.876H81.9125V97.033ZM88.6029 99.412C88.6029 98.684 88.7503 98.047 89.0449 97.501C89.3396 96.9463 89.7426 96.5173 90.2539 96.214C90.7739 95.9107 91.3503 95.759 91.9829 95.759C92.6069 95.759 93.1486 95.8933 93.6079 96.162C94.0673 96.4307 94.4096 96.7687 94.6349 97.176V95.876H95.8309V103H94.6349V101.674C94.4009 102.09 94.0499 102.437 93.5819 102.714C93.1226 102.983 92.5853 103.117 91.9699 103.117C91.3373 103.117 90.7653 102.961 90.2539 102.649C89.7426 102.337 89.3396 101.899 89.0449 101.336C88.7503 100.773 88.6029 100.131 88.6029 99.412ZM94.6349 99.425C94.6349 98.8877 94.5266 98.4197 94.3099 98.021C94.0933 97.6223 93.7986 97.319 93.4259 97.111C93.0619 96.8943 92.6589 96.786 92.2169 96.786C91.7749 96.786 91.3719 96.89 91.0079 97.098C90.6439 97.306 90.3536 97.6093 90.1369 98.008C89.9203 98.4067 89.8119 98.8747 89.8119 99.412C89.8119 99.958 89.9203 100.435 90.1369 100.842C90.3536 101.241 90.6439 101.548 91.0079 101.765C91.3719 101.973 91.7749 102.077 92.2169 102.077C92.6589 102.077 93.0619 101.973 93.4259 101.765C93.7986 101.548 94.0933 101.241 94.3099 100.842C94.5266 100.435 94.6349 99.9623 94.6349 99.425ZM97.3881 99.412C97.3881 98.684 97.5354 98.047 97.8301 97.501C98.1248 96.9463 98.5278 96.5173 99.0391 96.214C99.5591 95.9107 100.14 95.759 100.781 95.759C101.336 95.759 101.851 95.889 102.328 96.149C102.805 96.4003 103.169 96.734 103.42 97.15V93.38H104.616V103H103.42V101.661C103.186 102.086 102.839 102.437 102.38 102.714C101.921 102.983 101.383 103.117 100.768 103.117C100.135 103.117 99.5591 102.961 99.0391 102.649C98.5278 102.337 98.1248 101.899 97.8301 101.336C97.5354 100.773 97.3881 100.131 97.3881 99.412ZM103.42 99.425C103.42 98.8877 103.312 98.4197 103.095 98.021C102.878 97.6223 102.584 97.319 102.211 97.111C101.847 96.8943 101.444 96.786 101.002 96.786C100.56 96.786 100.157 96.89 99.7931 97.098C99.4291 97.306 99.1388 97.6093 98.9221 98.008C98.7054 98.4067 98.5971 98.8747 98.5971 99.412C98.5971 99.958 98.7054 100.435 98.9221 100.842C99.1388 101.241 99.4291 101.548 99.7931 101.765C100.157 101.973 100.56 102.077 101.002 102.077C101.444 102.077 101.847 101.973 102.211 101.765C102.584 101.548 102.878 101.241 103.095 100.842C103.312 100.435 103.42 99.9623 103.42 99.425ZM110.692 94.719C110.467 94.719 110.276 94.641 110.12 94.485C109.964 94.329 109.886 94.1383 109.886 93.913C109.886 93.6877 109.964 93.497 110.12 93.341C110.276 93.185 110.467 93.107 110.692 93.107C110.909 93.107 111.091 93.185 111.238 93.341C111.394 93.497 111.472 93.6877 111.472 93.913C111.472 94.1383 111.394 94.329 111.238 94.485C111.091 94.641 110.909 94.719 110.692 94.719ZM111.264 95.876V103H110.081V95.876H111.264ZM116.751 95.746C117.618 95.746 118.32 96.0103 118.857 96.539C119.395 97.059 119.663 97.813 119.663 98.801V103H118.493V98.97C118.493 98.2593 118.316 97.7177 117.96 97.345C117.605 96.9637 117.12 96.773 116.504 96.773C115.88 96.773 115.382 96.968 115.009 97.358C114.645 97.748 114.463 98.3157 114.463 99.061V103H113.28V95.876H114.463V96.89C114.697 96.526 115.014 96.2443 115.412 96.045C115.82 95.8457 116.266 95.746 116.751 95.746ZM30.568 113.746C31.1227 113.746 31.6167 113.863 32.05 114.097C32.4833 114.322 32.8257 114.665 33.077 115.124C33.3283 115.583 33.454 116.142 33.454 116.801V121H32.284V116.97C32.284 116.259 32.1063 115.718 31.751 115.345C31.4043 114.964 30.932 114.773 30.334 114.773C29.7187 114.773 29.229 114.972 28.865 115.371C28.501 115.761 28.319 116.329 28.319 117.074V121H27.149V116.97C27.149 116.259 26.9713 115.718 26.616 115.345C26.2693 114.964 25.797 114.773 25.199 114.773C24.5837 114.773 24.094 114.972 23.73 115.371C23.366 115.761 23.184 116.329 23.184 117.074V121H22.001V113.876H23.184V114.903C23.418 114.53 23.73 114.244 24.12 114.045C24.5187 113.846 24.9563 113.746 25.433 113.746C26.031 113.746 26.5597 113.88 27.019 114.149C27.4783 114.418 27.8207 114.812 28.046 115.332C28.2453 114.829 28.5747 114.439 29.034 114.162C29.4933 113.885 30.0047 113.746 30.568 113.746ZM36.0056 112.719C35.7802 112.719 35.5896 112.641 35.4336 112.485C35.2776 112.329 35.1996 112.138 35.1996 111.913C35.1996 111.688 35.2776 111.497 35.4336 111.341C35.5896 111.185 35.7802 111.107 36.0056 111.107C36.2222 111.107 36.4042 111.185 36.5516 111.341C36.7076 111.497 36.7856 111.688 36.7856 111.913C36.7856 112.138 36.7076 112.329 36.5516 112.485C36.4042 112.641 36.2222 112.719 36.0056 112.719ZM36.5776 113.876V121H35.3946V113.876H36.5776ZM42.0648 113.746C42.9314 113.746 43.6334 114.01 44.1708 114.539C44.7081 115.059 44.9768 115.813 44.9768 116.801V121H43.8068V116.97C43.8068 116.259 43.6291 115.718 43.2738 115.345C42.9184 114.964 42.4331 114.773 41.8178 114.773C41.1938 114.773 40.6954 114.968 40.3228 115.358C39.9588 115.748 39.7768 116.316 39.7768 117.061V121H38.5938V113.876H39.7768V114.89C40.0108 114.526 40.3271 114.244 40.7258 114.045C41.1331 113.846 41.5794 113.746 42.0648 113.746ZM53.2272 113.876V121H52.0442V119.947C51.8189 120.311 51.5025 120.597 51.0952 120.805C50.6965 121.004 50.2545 121.104 49.7692 121.104C49.2145 121.104 48.7162 120.991 48.2742 120.766C47.8322 120.532 47.4812 120.185 47.2212 119.726C46.9699 119.267 46.8442 118.708 46.8442 118.049V113.876H48.0142V117.893C48.0142 118.595 48.1919 119.137 48.5472 119.518C48.9025 119.891 49.3879 120.077 50.0032 120.077C50.6359 120.077 51.1342 119.882 51.4982 119.492C51.8622 119.102 52.0442 118.534 52.0442 117.789V113.876H53.2272ZM56.6676 114.851V119.05C56.6676 119.397 56.7413 119.644 56.8886 119.791C57.036 119.93 57.2916 119.999 57.6556 119.999H58.5266V121H57.4606C56.802 121 56.308 120.848 55.9786 120.545C55.6493 120.242 55.4846 119.743 55.4846 119.05V114.851H54.5616V113.876H55.4846V112.082H56.6676V113.876H58.5266V114.851H56.6676ZM66.46 117.165C66.46 117.39 66.447 117.629 66.421 117.88H60.727C60.7703 118.582 61.0087 119.132 61.442 119.531C61.884 119.921 62.417 120.116 63.041 120.116C63.5523 120.116 63.977 119.999 64.315 119.765C64.6617 119.522 64.9043 119.202 65.043 118.803H66.317C66.1263 119.488 65.745 120.047 65.173 120.48C64.601 120.905 63.8903 121.117 63.041 121.117C62.365 121.117 61.7583 120.965 61.221 120.662C60.6923 120.359 60.2763 119.93 59.973 119.375C59.6697 118.812 59.518 118.162 59.518 117.425C59.518 116.688 59.6653 116.043 59.96 115.488C60.2547 114.933 60.6663 114.509 61.195 114.214C61.7323 113.911 62.3477 113.759 63.041 113.759C63.717 113.759 64.315 113.906 64.835 114.201C65.355 114.496 65.7537 114.903 66.031 115.423C66.317 115.934 66.46 116.515 66.46 117.165ZM65.238 116.918C65.238 116.467 65.1383 116.082 64.939 115.761C64.7397 115.432 64.4667 115.185 64.12 115.02C63.782 114.847 63.405 114.76 62.989 114.76C62.391 114.76 61.8797 114.951 61.455 115.332C61.039 115.713 60.8007 116.242 60.74 116.918H65.238ZM70.5435 121.117C69.9975 121.117 69.5078 121.026 69.0745 120.844C68.6412 120.653 68.2988 120.393 68.0475 120.064C67.7962 119.726 67.6575 119.34 67.6315 118.907H68.8535C68.8882 119.262 69.0528 119.553 69.3475 119.778C69.6508 120.003 70.0452 120.116 70.5305 120.116C70.9812 120.116 71.3365 120.016 71.5965 119.817C71.8565 119.618 71.9865 119.366 71.9865 119.063C71.9865 118.751 71.8478 118.521 71.5705 118.374C71.2932 118.218 70.8642 118.066 70.2835 117.919C69.7548 117.78 69.3215 117.642 68.9835 117.503C68.6542 117.356 68.3682 117.143 68.1255 116.866C67.8915 116.58 67.7745 116.207 67.7745 115.748C67.7745 115.384 67.8828 115.05 68.0995 114.747C68.3162 114.444 68.6238 114.205 69.0225 114.032C69.4212 113.85 69.8762 113.759 70.3875 113.759C71.1762 113.759 71.8132 113.958 72.2985 114.357C72.7838 114.756 73.0438 115.302 73.0785 115.995H71.8955C71.8695 115.622 71.7178 115.323 71.4405 115.098C71.1718 114.873 70.8078 114.76 70.3485 114.76C69.9238 114.76 69.5858 114.851 69.3345 115.033C69.0832 115.215 68.9575 115.453 68.9575 115.748C68.9575 115.982 69.0312 116.177 69.1785 116.333C69.3345 116.48 69.5252 116.602 69.7505 116.697C69.9845 116.784 70.3052 116.883 70.7125 116.996C71.2238 117.135 71.6398 117.273 71.9605 117.412C72.2812 117.542 72.5542 117.741 72.7795 118.01C73.0135 118.279 73.1348 118.63 73.1435 119.063C73.1435 119.453 73.0352 119.804 72.8185 120.116C72.6018 120.428 72.2942 120.675 71.8955 120.857C71.5055 121.03 71.0548 121.117 70.5435 121.117ZM80.9313 119.908L83.1413 113.876H84.4023L81.6073 121H80.2293L77.4343 113.876H78.7083L80.9313 119.908ZM86.1774 112.719C85.9521 112.719 85.7614 112.641 85.6054 112.485C85.4494 112.329 85.3714 112.138 85.3714 111.913C85.3714 111.688 85.4494 111.497 85.6054 111.341C85.7614 111.185 85.9521 111.107 86.1774 111.107C86.3941 111.107 86.5761 111.185 86.7234 111.341C86.8794 111.497 86.9574 111.688 86.9574 111.913C86.9574 112.138 86.8794 112.329 86.7234 112.485C86.5761 112.641 86.3941 112.719 86.1774 112.719ZM86.7494 113.876V121H85.5664V113.876H86.7494ZM88.3236 117.412C88.3236 116.684 88.471 116.047 88.7656 115.501C89.0603 114.946 89.4633 114.517 89.9746 114.214C90.4946 113.911 91.071 113.759 91.7036 113.759C92.3276 113.759 92.8693 113.893 93.3286 114.162C93.788 114.431 94.1303 114.769 94.3556 115.176V113.876H95.5516V121H94.3556V119.674C94.1216 120.09 93.7706 120.437 93.3026 120.714C92.8433 120.983 92.306 121.117 91.6906 121.117C91.058 121.117 90.486 120.961 89.9746 120.649C89.4633 120.337 89.0603 119.899 88.7656 119.336C88.471 118.773 88.3236 118.131 88.3236 117.412ZM94.3556 117.425C94.3556 116.888 94.2473 116.42 94.0306 116.021C93.814 115.622 93.5193 115.319 93.1466 115.111C92.7826 114.894 92.3796 114.786 91.9376 114.786C91.4956 114.786 91.0926 114.89 90.7286 115.098C90.3646 115.306 90.0743 115.609 89.8576 116.008C89.641 116.407 89.5326 116.875 89.5326 117.412C89.5326 117.958 89.641 118.435 89.8576 118.842C90.0743 119.241 90.3646 119.548 90.7286 119.765C91.0926 119.973 91.4956 120.077 91.9376 120.077C92.3796 120.077 92.7826 119.973 93.1466 119.765C93.5193 119.548 93.814 119.241 94.0306 118.842C94.2473 118.435 94.3556 117.962 94.3556 117.425ZM104.124 121.117C103.456 121.117 102.85 120.965 102.304 120.662C101.766 120.359 101.342 119.93 101.03 119.375C100.726 118.812 100.575 118.162 100.575 117.425C100.575 116.697 100.731 116.056 101.043 115.501C101.363 114.938 101.797 114.509 102.343 114.214C102.889 113.911 103.5 113.759 104.176 113.759C104.852 113.759 105.463 113.911 106.009 114.214C106.555 114.509 106.984 114.933 107.296 115.488C107.616 116.043 107.777 116.688 107.777 117.425C107.777 118.162 107.612 118.812 107.283 119.375C106.962 119.93 106.524 120.359 105.97 120.662C105.415 120.965 104.8 121.117 104.124 121.117ZM104.124 120.077C104.548 120.077 104.947 119.977 105.32 119.778C105.692 119.579 105.991 119.28 106.217 118.881C106.451 118.482 106.568 117.997 106.568 117.425C106.568 116.853 106.455 116.368 106.23 115.969C106.004 115.57 105.71 115.276 105.346 115.085C104.982 114.886 104.587 114.786 104.163 114.786C103.729 114.786 103.331 114.886 102.967 115.085C102.611 115.276 102.325 115.57 102.109 115.969C101.892 116.368 101.784 116.853 101.784 117.425C101.784 118.006 101.888 118.495 102.096 118.894C102.312 119.293 102.598 119.592 102.954 119.791C103.309 119.982 103.699 120.077 104.124 120.077ZM115.65 113.876V121H114.467V119.947C114.242 120.311 113.925 120.597 113.518 120.805C113.119 121.004 112.677 121.104 112.192 121.104C111.637 121.104 111.139 120.991 110.697 120.766C110.255 120.532 109.904 120.185 109.644 119.726C109.393 119.267 109.267 118.708 109.267 118.049V113.876H110.437V117.893C110.437 118.595 110.615 119.137 110.97 119.518C111.325 119.891 111.811 120.077 112.426 120.077C113.059 120.077 113.557 119.882 113.921 119.492C114.285 119.102 114.467 118.534 114.467 117.789V113.876H115.65ZM118.83 115.033C119.038 114.626 119.333 114.309 119.714 114.084C120.104 113.859 120.577 113.746 121.131 113.746V114.968H120.819C119.493 114.968 118.83 115.687 118.83 117.126V121H117.647V113.876H118.83V115.033ZM28.501 135.165C28.501 135.39 28.488 135.629 28.462 135.88H22.768C22.8113 136.582 23.0497 137.132 23.483 137.531C23.925 137.921 24.458 138.116 25.082 138.116C25.5933 138.116 26.018 137.999 26.356 137.765C26.7027 137.522 26.9453 137.202 27.084 136.803H28.358C28.1673 137.488 27.786 138.047 27.214 138.48C26.642 138.905 25.9313 139.117 25.082 139.117C24.406 139.117 23.7993 138.965 23.262 138.662C22.7333 138.359 22.3173 137.93 22.014 137.375C21.7107 136.812 21.559 136.162 21.559 135.425C21.559 134.688 21.7063 134.043 22.001 133.488C22.2957 132.933 22.7073 132.509 23.236 132.214C23.7733 131.911 24.3887 131.759 25.082 131.759C25.758 131.759 26.356 131.906 26.876 132.201C27.396 132.496 27.7947 132.903 28.072 133.423C28.358 133.934 28.501 134.515 28.501 135.165ZM27.279 134.918C27.279 134.467 27.1793 134.082 26.98 133.761C26.7807 133.432 26.5077 133.185 26.161 133.02C25.823 132.847 25.446 132.76 25.03 132.76C24.432 132.76 23.9207 132.951 23.496 133.332C23.08 133.713 22.8417 134.242 22.781 134.918H27.279ZM33.7805 139L32.0905 136.348L30.4655 139H29.2305L31.5315 135.464L29.2305 131.876H30.5695L32.2595 134.515L33.8715 131.876H35.1065L32.8185 135.399L35.1195 139H33.7805ZM37.7262 132.851V137.05C37.7262 137.397 37.7999 137.644 37.9472 137.791C38.0946 137.93 38.3502 137.999 38.7142 137.999H39.5852V139H38.5192C37.8606 139 37.3666 138.848 37.0372 138.545C36.7079 138.242 36.5432 137.743 36.5432 137.05V132.851H35.6202V131.876H36.5432V130.082H37.7262V131.876H39.5852V132.851H37.7262ZM47.5186 135.165C47.5186 135.39 47.5056 135.629 47.4796 135.88H41.7856C41.8289 136.582 42.0672 137.132 42.5006 137.531C42.9426 137.921 43.4756 138.116 44.0996 138.116C44.6109 138.116 45.0356 137.999 45.3736 137.765C45.7202 137.522 45.9629 137.202 46.1016 136.803H47.3756C47.1849 137.488 46.8036 138.047 46.2316 138.48C45.6596 138.905 44.9489 139.117 44.0996 139.117C43.4236 139.117 42.8169 138.965 42.2796 138.662C41.7509 138.359 41.3349 137.93 41.0316 137.375C40.7282 136.812 40.5766 136.162 40.5766 135.425C40.5766 134.688 40.7239 134.043 41.0186 133.488C41.3132 132.933 41.7249 132.509 42.2536 132.214C42.7909 131.911 43.4062 131.759 44.0996 131.759C44.7756 131.759 45.3736 131.906 45.8936 132.201C46.4136 132.496 46.8122 132.903 47.0896 133.423C47.3756 133.934 47.5186 134.515 47.5186 135.165ZM46.2966 134.918C46.2966 134.467 46.1969 134.082 45.9976 133.761C45.7982 133.432 45.5252 133.185 45.1786 133.02C44.8406 132.847 44.4636 132.76 44.0476 132.76C43.4496 132.76 42.9382 132.951 42.5136 133.332C42.0976 133.713 41.8592 134.242 41.7986 134.918H46.2966ZM52.5511 131.746C53.4178 131.746 54.1198 132.01 54.6571 132.539C55.1944 133.059 55.4631 133.813 55.4631 134.801V139H54.2931V134.97C54.2931 134.259 54.1154 133.718 53.7601 133.345C53.4048 132.964 52.9194 132.773 52.3041 132.773C51.6801 132.773 51.1818 132.968 50.8091 133.358C50.4451 133.748 50.2631 134.316 50.2631 135.061V139H49.0801V131.876H50.2631V132.89C50.4971 132.526 50.8134 132.244 51.2121 132.045C51.6194 131.846 52.0658 131.746 52.5511 131.746ZM59.9175 139.117C59.3715 139.117 58.8819 139.026 58.4485 138.844C58.0152 138.653 57.6729 138.393 57.4215 138.064C57.1702 137.726 57.0315 137.34 57.0055 136.907H58.2275C58.2622 137.262 58.4269 137.553 58.7215 137.778C59.0249 138.003 59.4192 138.116 59.9045 138.116C60.3552 138.116 60.7105 138.016 60.9705 137.817C61.2305 137.618 61.3605 137.366 61.3605 137.063C61.3605 136.751 61.2219 136.521 60.9445 136.374C60.6672 136.218 60.2382 136.066 59.6575 135.919C59.1289 135.78 58.6955 135.642 58.3575 135.503C58.0282 135.356 57.7422 135.143 57.4995 134.866C57.2655 134.58 57.1485 134.207 57.1485 133.748C57.1485 133.384 57.2569 133.05 57.4735 132.747C57.6902 132.444 57.9979 132.205 58.3965 132.032C58.7952 131.85 59.2502 131.759 59.7615 131.759C60.5502 131.759 61.1872 131.958 61.6725 132.357C62.1579 132.756 62.4179 133.302 62.4525 133.995H61.2695C61.2435 133.622 61.0919 133.323 60.8145 133.098C60.5459 132.873 60.1819 132.76 59.7225 132.76C59.2979 132.76 58.9599 132.851 58.7085 133.033C58.4572 133.215 58.3315 133.453 58.3315 133.748C58.3315 133.982 58.4052 134.177 58.5525 134.333C58.7085 134.48 58.8992 134.602 59.1245 134.697C59.3585 134.784 59.6792 134.883 60.0865 134.996C60.5979 135.135 61.0139 135.273 61.3345 135.412C61.6552 135.542 61.9282 135.741 62.1535 136.01C62.3875 136.279 62.5089 136.63 62.5175 137.063C62.5175 137.453 62.4092 137.804 62.1925 138.116C61.9759 138.428 61.6682 138.675 61.2695 138.857C60.8795 139.03 60.4289 139.117 59.9175 139.117ZM64.7985 130.719C64.5732 130.719 64.3825 130.641 64.2265 130.485C64.0705 130.329 63.9925 130.138 63.9925 129.913C63.9925 129.688 64.0705 129.497 64.2265 129.341C64.3825 129.185 64.5732 129.107 64.7985 129.107C65.0152 129.107 65.1972 129.185 65.3445 129.341C65.5005 129.497 65.5785 129.688 65.5785 129.913C65.5785 130.138 65.5005 130.329 65.3445 130.485C65.1972 130.641 65.0152 130.719 64.7985 130.719ZM65.3705 131.876V139H64.1875V131.876H65.3705ZM70.0387 137.908L72.2487 131.876H73.5097L70.7147 139H69.3367L66.5417 131.876H67.8157L70.0387 137.908ZM81.1739 135.165C81.1739 135.39 81.1609 135.629 81.1349 135.88H75.4409C75.4842 136.582 75.7225 137.132 76.1559 137.531C76.5979 137.921 77.1309 138.116 77.7549 138.116C78.2662 138.116 78.6909 137.999 79.0289 137.765C79.3755 137.522 79.6182 137.202 79.7569 136.803H81.0309C80.8402 137.488 80.4589 138.047 79.8869 138.48C79.3149 138.905 78.6042 139.117 77.7549 139.117C77.0789 139.117 76.4722 138.965 75.9349 138.662C75.4062 138.359 74.9902 137.93 74.6869 137.375C74.3835 136.812 74.2319 136.162 74.2319 135.425C74.2319 134.688 74.3792 134.043 74.6739 133.488C74.9685 132.933 75.3802 132.509 75.9089 132.214C76.4462 131.911 77.0615 131.759 77.7549 131.759C78.4309 131.759 79.0289 131.906 79.5489 132.201C80.0689 132.496 80.4675 132.903 80.7449 133.423C81.0309 133.934 81.1739 134.515 81.1739 135.165ZM79.9519 134.918C79.9519 134.467 79.8522 134.082 79.6529 133.761C79.4535 133.432 79.1805 133.185 78.8339 133.02C78.4959 132.847 78.1189 132.76 77.7029 132.76C77.1049 132.76 76.5935 132.951 76.1689 133.332C75.7529 133.713 75.5145 134.242 75.4539 134.918H79.9519ZM85.7592 135.412C85.7592 134.684 85.9065 134.047 86.2012 133.501C86.4959 132.946 86.8989 132.517 87.4102 132.214C87.9302 131.911 88.5109 131.759 89.1522 131.759C89.7069 131.759 90.2225 131.889 90.6992 132.149C91.1759 132.4 91.5399 132.734 91.7912 133.15V129.38H92.9872V139H91.7912V137.661C91.5572 138.086 91.2105 138.437 90.7512 138.714C90.2919 138.983 89.7545 139.117 89.1392 139.117C88.5065 139.117 87.9302 138.961 87.4102 138.649C86.8989 138.337 86.4959 137.899 86.2012 137.336C85.9065 136.773 85.7592 136.131 85.7592 135.412ZM91.7912 135.425C91.7912 134.888 91.6829 134.42 91.4662 134.021C91.2495 133.622 90.9549 133.319 90.5822 133.111C90.2182 132.894 89.8152 132.786 89.3732 132.786C88.9312 132.786 88.5282 132.89 88.1642 133.098C87.8002 133.306 87.5099 133.609 87.2932 134.008C87.0765 134.407 86.9682 134.875 86.9682 135.412C86.9682 135.958 87.0765 136.435 87.2932 136.842C87.5099 137.241 87.8002 137.548 88.1642 137.765C88.5282 137.973 88.9312 138.077 89.3732 138.077C89.8152 138.077 90.2182 137.973 90.5822 137.765C90.9549 137.548 91.2495 137.241 91.4662 136.842C91.6829 136.435 91.7912 135.962 91.7912 135.425ZM94.5444 135.412C94.5444 134.684 94.6917 134.047 94.9864 133.501C95.281 132.946 95.684 132.517 96.1954 132.214C96.7154 131.911 97.2917 131.759 97.9244 131.759C98.5484 131.759 99.09 131.893 99.5494 132.162C100.009 132.431 100.351 132.769 100.576 133.176V131.876H101.772V139H100.576V137.674C100.342 138.09 99.9914 138.437 99.5234 138.714C99.064 138.983 98.5267 139.117 97.9114 139.117C97.2787 139.117 96.7067 138.961 96.1954 138.649C95.684 138.337 95.281 137.899 94.9864 137.336C94.6917 136.773 94.5444 136.131 94.5444 135.412ZM100.576 135.425C100.576 134.888 100.468 134.42 100.251 134.021C100.035 133.622 99.74 133.319 99.3674 133.111C99.0034 132.894 98.6004 132.786 98.1584 132.786C97.7164 132.786 97.3134 132.89 96.9494 133.098C96.5854 133.306 96.295 133.609 96.0784 134.008C95.8617 134.407 95.7534 134.875 95.7534 135.412C95.7534 135.958 95.8617 136.435 96.0784 136.842C96.295 137.241 96.5854 137.548 96.9494 137.765C97.3134 137.973 97.7164 138.077 98.1584 138.077C98.6004 138.077 99.0034 137.973 99.3674 137.765C99.74 137.548 100.035 137.241 100.251 136.842C100.468 136.435 100.576 135.962 100.576 135.425ZM105.215 132.851V137.05C105.215 137.397 105.288 137.644 105.436 137.791C105.583 137.93 105.839 137.999 106.203 137.999H107.074V139H106.008C105.349 139 104.855 138.848 104.526 138.545C104.196 138.242 104.032 137.743 104.032 137.05V132.851H103.109V131.876H104.032V130.082H105.215V131.876H107.074V132.851H105.215ZM108.065 135.412C108.065 134.684 108.212 134.047 108.507 133.501C108.802 132.946 109.205 132.517 109.716 132.214C110.236 131.911 110.812 131.759 111.445 131.759C112.069 131.759 112.611 131.893 113.07 132.162C113.529 132.431 113.872 132.769 114.097 133.176V131.876H115.293V139H114.097V137.674C113.863 138.09 113.512 138.437 113.044 138.714C112.585 138.983 112.047 139.117 111.432 139.117C110.799 139.117 110.227 138.961 109.716 138.649C109.205 138.337 108.802 137.899 108.507 137.336C108.212 136.773 108.065 136.131 108.065 135.412ZM114.097 135.425C114.097 134.888 113.989 134.42 113.772 134.021C113.555 133.622 113.261 133.319 112.888 133.111C112.524 132.894 112.121 132.786 111.679 132.786C111.237 132.786 110.834 132.89 110.47 133.098C110.106 133.306 109.816 133.609 109.599 134.008C109.382 134.407 109.274 134.875 109.274 135.412C109.274 135.958 109.382 136.435 109.599 136.842C109.816 137.241 110.106 137.548 110.47 137.765C110.834 137.973 111.237 138.077 111.679 138.077C112.121 138.077 112.524 137.973 112.888 137.765C113.261 137.548 113.555 137.241 113.772 136.842C113.989 136.435 114.097 135.962 114.097 135.425ZM118.475 133.202C118.718 132.777 119.073 132.431 119.541 132.162C120.009 131.893 120.542 131.759 121.14 131.759C121.781 131.759 122.358 131.911 122.869 132.214C123.38 132.517 123.783 132.946 124.078 133.501C124.373 134.047 124.52 134.684 124.52 135.412C124.52 136.131 124.373 136.773 124.078 137.336C123.783 137.899 123.376 138.337 122.856 138.649C122.345 138.961 121.773 139.117 121.14 139.117C120.525 139.117 119.983 138.983 119.515 138.714C119.056 138.445 118.709 138.103 118.475 137.687V139H117.292V129.38H118.475V133.202ZM123.311 135.412C123.311 134.875 123.203 134.407 122.986 134.008C122.769 133.609 122.475 133.306 122.102 133.098C121.738 132.89 121.335 132.786 120.893 132.786C120.46 132.786 120.057 132.894 119.684 133.111C119.32 133.319 119.025 133.627 118.8 134.034C118.583 134.433 118.475 134.896 118.475 135.425C118.475 135.962 118.583 136.435 118.8 136.842C119.025 137.241 119.32 137.548 119.684 137.765C120.057 137.973 120.46 138.077 120.893 138.077C121.335 138.077 121.738 137.973 122.102 137.765C122.475 137.548 122.769 137.241 122.986 136.842C123.203 136.435 123.311 135.958 123.311 135.412ZM125.635 135.412C125.635 134.684 125.783 134.047 126.077 133.501C126.372 132.946 126.775 132.517 127.286 132.214C127.806 131.911 128.383 131.759 129.015 131.759C129.639 131.759 130.181 131.893 130.64 132.162C131.1 132.431 131.442 132.769 131.667 133.176V131.876H132.863V139H131.667V137.674C131.433 138.09 131.082 138.437 130.614 138.714C130.155 138.983 129.618 139.117 129.002 139.117C128.37 139.117 127.798 138.961 127.286 138.649C126.775 138.337 126.372 137.899 126.077 137.336C125.783 136.773 125.635 136.131 125.635 135.412ZM131.667 135.425C131.667 134.888 131.559 134.42 131.342 134.021C131.126 133.622 130.831 133.319 130.458 133.111C130.094 132.894 129.691 132.786 129.249 132.786C128.807 132.786 128.404 132.89 128.04 133.098C127.676 133.306 127.386 133.609 127.169 134.008C126.953 134.407 126.844 134.875 126.844 135.412C126.844 135.958 126.953 136.435 127.169 136.842C127.386 137.241 127.676 137.548 128.04 137.765C128.404 137.973 128.807 138.077 129.249 138.077C129.691 138.077 130.094 137.973 130.458 137.765C130.831 137.548 131.126 137.241 131.342 136.842C131.559 136.435 131.667 135.962 131.667 135.425ZM137.384 139.117C136.838 139.117 136.349 139.026 135.915 138.844C135.482 138.653 135.14 138.393 134.888 138.064C134.637 137.726 134.498 137.34 134.472 136.907H135.694C135.729 137.262 135.894 137.553 136.188 137.778C136.492 138.003 136.886 138.116 137.371 138.116C137.822 138.116 138.177 138.016 138.437 137.817C138.697 137.618 138.827 137.366 138.827 137.063C138.827 136.751 138.689 136.521 138.411 136.374C138.134 136.218 137.705 136.066 137.124 135.919C136.596 135.78 136.162 135.642 135.824 135.503C135.495 135.356 135.209 135.143 134.966 134.866C134.732 134.58 134.615 134.207 134.615 133.748C134.615 133.384 134.724 133.05 134.94 132.747C135.157 132.444 135.465 132.205 135.863 132.032C136.262 131.85 136.717 131.759 137.228 131.759C138.017 131.759 138.654 131.958 139.139 132.357C139.625 132.756 139.885 133.302 139.919 133.995H138.736C138.71 133.622 138.559 133.323 138.281 133.098C138.013 132.873 137.649 132.76 137.189 132.76C136.765 132.76 136.427 132.851 136.175 133.033C135.924 133.215 135.798 133.453 135.798 133.748C135.798 133.982 135.872 134.177 136.019 134.333C136.175 134.48 136.366 134.602 136.591 134.697C136.825 134.784 137.146 134.883 137.553 134.996C138.065 135.135 138.481 135.273 138.801 135.412C139.122 135.542 139.395 135.741 139.62 136.01C139.854 136.279 139.976 136.63 139.984 137.063C139.984 137.453 139.876 137.804 139.659 138.116C139.443 138.428 139.135 138.675 138.736 138.857C138.346 139.03 137.896 139.117 137.384 139.117ZM148.154 135.165C148.154 135.39 148.141 135.629 148.115 135.88H142.421C142.465 136.582 142.703 137.132 143.136 137.531C143.578 137.921 144.111 138.116 144.735 138.116C145.247 138.116 145.671 137.999 146.009 137.765C146.356 137.522 146.599 137.202 146.737 136.803H148.011C147.821 137.488 147.439 138.047 146.867 138.48C146.295 138.905 145.585 139.117 144.735 139.117C144.059 139.117 143.453 138.965 142.915 138.662C142.387 138.359 141.971 137.93 141.667 137.375C141.364 136.812 141.212 136.162 141.212 135.425C141.212 134.688 141.36 134.043 141.654 133.488C141.949 132.933 142.361 132.509 142.889 132.214C143.427 131.911 144.042 131.759 144.735 131.759C145.411 131.759 146.009 131.906 146.529 132.201C147.049 132.496 147.448 132.903 147.725 133.423C148.011 133.934 148.154 134.515 148.154 135.165ZM146.932 134.918C146.932 134.467 146.833 134.082 146.633 133.761C146.434 133.432 146.161 133.185 145.814 133.02C145.476 132.847 145.099 132.76 144.683 132.76C144.085 132.76 143.574 132.951 143.149 133.332C142.733 133.713 142.495 134.242 142.434 134.918H146.932ZM25.108 158.117C24.4407 158.117 23.834 157.965 23.288 157.662C22.7507 157.359 22.326 156.93 22.014 156.375C21.7107 155.812 21.559 155.162 21.559 154.425C21.559 153.697 21.715 153.056 22.027 152.501C22.3477 151.938 22.781 151.509 23.327 151.214C23.873 150.911 24.484 150.759 25.16 150.759C25.836 150.759 26.447 150.911 26.993 151.214C27.539 151.509 27.968 151.933 28.28 152.488C28.6007 153.043 28.761 153.688 28.761 154.425C28.761 155.162 28.5963 155.812 28.267 156.375C27.9463 156.93 27.5087 157.359 26.954 157.662C26.3993 157.965 25.784 158.117 25.108 158.117ZM25.108 157.077C25.5327 157.077 25.9313 156.977 26.304 156.778C26.6767 156.579 26.9757 156.28 27.201 155.881C27.435 155.482 27.552 154.997 27.552 154.425C27.552 153.853 27.4393 153.368 27.214 152.969C26.9887 152.57 26.694 152.276 26.33 152.085C25.966 151.886 25.5717 151.786 25.147 151.786C24.7137 151.786 24.315 151.886 23.951 152.085C23.5957 152.276 23.3097 152.57 23.093 152.969C22.8763 153.368 22.768 153.853 22.768 154.425C22.768 155.006 22.872 155.495 23.08 155.894C23.2967 156.293 23.5827 156.592 23.938 156.791C24.2933 156.982 24.6833 157.077 25.108 157.077ZM33.2154 151.851H31.7204V158H30.5374V151.851H29.6144V150.876H30.5374V150.369C30.5374 149.572 30.7411 148.991 31.1484 148.627C31.5644 148.254 32.2274 148.068 33.1374 148.068V149.056C32.6174 149.056 32.2491 149.16 32.0324 149.368C31.8244 149.567 31.7204 149.901 31.7204 150.369V150.876H33.2154V151.851ZM37.6186 154.425C37.6186 153.688 37.7659 153.047 38.0606 152.501C38.3552 151.946 38.7626 151.517 39.2826 151.214C39.8112 150.911 40.4136 150.759 41.0896 150.759C41.9649 150.759 42.6842 150.971 43.2476 151.396C43.8196 151.821 44.1966 152.41 44.3786 153.164H43.1046C42.9832 152.731 42.7449 152.388 42.3896 152.137C42.0429 151.886 41.6096 151.76 41.0896 151.76C40.4136 151.76 39.8676 151.994 39.4516 152.462C39.0356 152.921 38.8276 153.576 38.8276 154.425C38.8276 155.283 39.0356 155.946 39.4516 156.414C39.8676 156.882 40.4136 157.116 41.0896 157.116C41.6096 157.116 42.0429 156.995 42.3896 156.752C42.7362 156.509 42.9746 156.163 43.1046 155.712H44.3786C44.1879 156.44 43.8066 157.025 43.2346 157.467C42.6626 157.9 41.9476 158.117 41.0896 158.117C40.4136 158.117 39.8112 157.965 39.2826 157.662C38.7626 157.359 38.3552 156.93 38.0606 156.375C37.7659 155.82 37.6186 155.17 37.6186 154.425ZM45.5151 154.412C45.5151 153.684 45.6624 153.047 45.9571 152.501C46.2517 151.946 46.6547 151.517 47.1661 151.214C47.6861 150.911 48.2624 150.759 48.8951 150.759C49.5191 150.759 50.0607 150.893 50.5201 151.162C50.9794 151.431 51.3217 151.769 51.5471 152.176V150.876H52.7431V158H51.5471V156.674C51.3131 157.09 50.9621 157.437 50.4941 157.714C50.0347 157.983 49.4974 158.117 48.8821 158.117C48.2494 158.117 47.6774 157.961 47.1661 157.649C46.6547 157.337 46.2517 156.899 45.9571 156.336C45.6624 155.773 45.5151 155.131 45.5151 154.412ZM51.5471 154.425C51.5471 153.888 51.4387 153.42 51.2221 153.021C51.0054 152.622 50.7107 152.319 50.3381 152.111C49.9741 151.894 49.5711 151.786 49.1291 151.786C48.6871 151.786 48.2841 151.89 47.9201 152.098C47.5561 152.306 47.2657 152.609 47.0491 153.008C46.8324 153.407 46.7241 153.875 46.7241 154.412C46.7241 154.958 46.8324 155.435 47.0491 155.842C47.2657 156.241 47.5561 156.548 47.9201 156.765C48.2841 156.973 48.6871 157.077 49.1291 157.077C49.5711 157.077 49.9741 156.973 50.3381 156.765C50.7107 156.548 51.0054 156.241 51.2221 155.842C51.4387 155.435 51.5471 154.962 51.5471 154.425ZM55.9252 152.033C56.1332 151.626 56.4279 151.309 56.8092 151.084C57.1992 150.859 57.6715 150.746 58.2262 150.746V151.968H57.9142C56.5882 151.968 55.9252 152.687 55.9252 154.126V158H54.7422V150.876H55.9252V152.033ZM71.6246 150.746C72.1793 150.746 72.6733 150.863 73.1066 151.097C73.54 151.322 73.8823 151.665 74.1336 152.124C74.385 152.583 74.5106 153.142 74.5106 153.801V158H73.3406V153.97C73.3406 153.259 73.163 152.718 72.8076 152.345C72.461 151.964 71.9886 151.773 71.3906 151.773C70.7753 151.773 70.2856 151.972 69.9216 152.371C69.5576 152.761 69.3756 153.329 69.3756 154.074V158H68.2056V153.97C68.2056 153.259 68.028 152.718 67.6726 152.345C67.326 151.964 66.8536 151.773 66.2556 151.773C65.6403 151.773 65.1506 151.972 64.7866 152.371C64.4226 152.761 64.2406 153.329 64.2406 154.074V158H63.0576V150.876H64.2406V151.903C64.4746 151.53 64.7866 151.244 65.1766 151.045C65.5753 150.846 66.013 150.746 66.4896 150.746C67.0876 150.746 67.6163 150.88 68.0756 151.149C68.535 151.418 68.8773 151.812 69.1026 152.332C69.302 151.829 69.6313 151.439 70.0906 151.162C70.55 150.885 71.0613 150.746 71.6246 150.746ZM79.5582 158.117C78.8909 158.117 78.2842 157.965 77.7382 157.662C77.2009 157.359 76.7762 156.93 76.4642 156.375C76.1609 155.812 76.0092 155.162 76.0092 154.425C76.0092 153.697 76.1652 153.056 76.4772 152.501C76.7979 151.938 77.2312 151.509 77.7772 151.214C78.3232 150.911 78.9342 150.759 79.6102 150.759C80.2862 150.759 80.8972 150.911 81.4432 151.214C81.9892 151.509 82.4182 151.933 82.7302 152.488C83.0509 153.043 83.2112 153.688 83.2112 154.425C83.2112 155.162 83.0465 155.812 82.7172 156.375C82.3965 156.93 81.9589 157.359 81.4042 157.662C80.8495 157.965 80.2342 158.117 79.5582 158.117ZM79.5582 157.077C79.9829 157.077 80.3815 156.977 80.7542 156.778C81.1269 156.579 81.4259 156.28 81.6512 155.881C81.8852 155.482 82.0022 154.997 82.0022 154.425C82.0022 153.853 81.8895 153.368 81.6642 152.969C81.4389 152.57 81.1442 152.276 80.7802 152.085C80.4162 151.886 80.0219 151.786 79.5972 151.786C79.1639 151.786 78.7652 151.886 78.4012 152.085C78.0459 152.276 77.7599 152.57 77.5432 152.969C77.3265 153.368 77.2182 153.853 77.2182 154.425C77.2182 155.006 77.3222 155.495 77.5302 155.894C77.7469 156.293 78.0329 156.592 78.3882 156.791C78.7435 156.982 79.1335 157.077 79.5582 157.077ZM84.3246 154.412C84.3246 153.684 84.472 153.047 84.7666 152.501C85.0613 151.946 85.4643 151.517 85.9756 151.214C86.4956 150.911 87.0763 150.759 87.7176 150.759C88.2723 150.759 88.788 150.889 89.2646 151.149C89.7413 151.4 90.1053 151.734 90.3566 152.15V148.38H91.5526V158H90.3566V156.661C90.1226 157.086 89.776 157.437 89.3166 157.714C88.8573 157.983 88.32 158.117 87.7046 158.117C87.072 158.117 86.4956 157.961 85.9756 157.649C85.4643 157.337 85.0613 156.899 84.7666 156.336C84.472 155.773 84.3246 155.131 84.3246 154.412ZM90.3566 154.425C90.3566 153.888 90.2483 153.42 90.0316 153.021C89.815 152.622 89.5203 152.319 89.1476 152.111C88.7836 151.894 88.3806 151.786 87.9386 151.786C87.4966 151.786 87.0936 151.89 86.7296 152.098C86.3656 152.306 86.0753 152.609 85.8586 153.008C85.642 153.407 85.5336 153.875 85.5336 154.412C85.5336 154.958 85.642 155.435 85.8586 155.842C86.0753 156.241 86.3656 156.548 86.7296 156.765C87.0936 156.973 87.4966 157.077 87.9386 157.077C88.3806 157.077 88.7836 156.973 89.1476 156.765C89.5203 156.548 89.815 156.241 90.0316 155.842C90.2483 155.435 90.3566 154.962 90.3566 154.425ZM100.052 154.165C100.052 154.39 100.039 154.629 100.013 154.88H94.3188C94.3621 155.582 94.6004 156.132 95.0338 156.531C95.4758 156.921 96.0088 157.116 96.6328 157.116C97.1441 157.116 97.5688 156.999 97.9068 156.765C98.2534 156.522 98.4961 156.202 98.6348 155.803H99.9088C99.7181 156.488 99.3368 157.047 98.7648 157.48C98.1928 157.905 97.4821 158.117 96.6328 158.117C95.9568 158.117 95.3501 157.965 94.8128 157.662C94.2841 157.359 93.8681 156.93 93.5648 156.375C93.2614 155.812 93.1098 155.162 93.1098 154.425C93.1098 153.688 93.2571 153.043 93.5518 152.488C93.8464 151.933 94.2581 151.509 94.7868 151.214C95.3241 150.911 95.9394 150.759 96.6328 150.759C97.3088 150.759 97.9068 150.906 98.4268 151.201C98.9468 151.496 99.3454 151.903 99.6228 152.423C99.9088 152.934 100.052 153.515 100.052 154.165ZM98.8298 153.918C98.8298 153.467 98.7301 153.082 98.5308 152.761C98.3314 152.432 98.0584 152.185 97.7118 152.02C97.3738 151.847 96.9968 151.76 96.5808 151.76C95.9828 151.76 95.4714 151.951 95.0468 152.332C94.6308 152.713 94.3924 153.242 94.3318 153.918H98.8298ZM102.796 148.38V158H101.613V148.38H102.796ZM107.335 158.117C106.789 158.117 106.299 158.026 105.866 157.844C105.432 157.653 105.09 157.393 104.839 157.064C104.587 156.726 104.449 156.34 104.423 155.907H105.645C105.679 156.262 105.844 156.553 106.139 156.778C106.442 157.003 106.836 157.116 107.322 157.116C107.772 157.116 108.128 157.016 108.388 156.817C108.648 156.618 108.778 156.366 108.778 156.063C108.778 155.751 108.639 155.521 108.362 155.374C108.084 155.218 107.655 155.066 107.075 154.919C106.546 154.78 106.113 154.642 105.775 154.503C105.445 154.356 105.159 154.143 104.917 153.866C104.683 153.58 104.566 153.207 104.566 152.748C104.566 152.384 104.674 152.05 104.891 151.747C105.107 151.444 105.415 151.205 105.814 151.032C106.212 150.85 106.667 150.759 107.179 150.759C107.967 150.759 108.604 150.958 109.09 151.357C109.575 151.756 109.835 152.302 109.87 152.995H108.687C108.661 152.622 108.509 152.323 108.232 152.098C107.963 151.873 107.599 151.76 107.14 151.76C106.715 151.76 106.377 151.851 106.126 152.033C105.874 152.215 105.749 152.453 105.749 152.748C105.749 152.982 105.822 153.177 105.97 153.333C106.126 153.48 106.316 153.602 106.542 153.697C106.776 153.784 107.096 153.883 107.504 153.996C108.015 154.135 108.431 154.273 108.752 154.412C109.072 154.542 109.345 154.741 109.571 155.01C109.805 155.279 109.926 155.63 109.935 156.063C109.935 156.453 109.826 156.804 109.61 157.116C109.393 157.428 109.085 157.675 108.687 157.857C108.297 158.03 107.846 158.117 107.335 158.117Z" fill="#030303"/>
</g>
<defs>
<filter id="filter0_d_1_364" x="0" y="0" width="180" height="186" filterUnits="userSpaceOnUse" color-interpolation-filters="sRGB">
<feFlood flood-opacity="0" result="BackgroundImageFix"/>
<feColorMatrix in="SourceAlpha" type="matrix" values="0 0 0 0 0 0 0 0 0 0 0 0 0 0 0 0 0 0 127 0" result="hardAlpha"/>
<feOffset dy="2"/>
<feGaussianBlur stdDeviation="2"/>
<feColorMatrix type="matrix" values="0 0 0 0 0 0 0 0 0 0 0 0 0 0 0 0 0 0 0.15 0"/>
<feBlend mode="normal" in2="BackgroundImageFix" result="effect1_dropShadow_1_364"/>
<feBlend mode="normal" in="SourceGraphic" in2="effect1_dropShadow_1_364" result="shape"/>
</filter>
</defs>
</svg>
