<svg width="180" height="150" viewBox="0 0 180 150" fill="none" xmlns="http://www.w3.org/2000/svg">
<g filter="url(#filter0_d_1_361)">
<rect x="4" y="2" width="172" height="142" rx="10" fill="white"/>
<rect x="4.5" y="2.5" width="171" height="141" rx="9.5" stroke="#E9EBEF"/>
<path d="M44.25 37.75V40.75C44.25 41.5784 43.5784 42.25 42.75 42.25H39.75" stroke="#5A89EA" stroke-width="1.5" stroke-linecap="round" stroke-linejoin="round"/>
<path d="M39.75 19.75H42.75C43.5784 19.75 44.25 20.4216 44.25 21.25V24.25" stroke="#5A89EA" stroke-width="1.5" stroke-linecap="round" stroke-linejoin="round"/>
<path d="M21.75 24.25V21.25C21.75 20.4216 22.4216 19.75 23.25 19.75H26.25" stroke="#5A89EA" stroke-width="1.5" stroke-linecap="round" stroke-linejoin="round"/>
<path d="M26.25 42.25H23.25C22.4216 42.25 21.75 41.5784 21.75 40.75V37.75" stroke="#5A89EA" stroke-width="1.5" stroke-linecap="round" stroke-linejoin="round"/>
<path d="M26.291 38.5C26.6739 35.0839 29.5625 32.5009 33 32.5009C36.4375 32.5009 39.3262 35.0839 39.709 38.5" stroke="#5A89EA" stroke-width="1.5" stroke-linecap="round" stroke-linejoin="round"/>
<path d="M28.876 26.986V27.986C28.9148 29.1374 28.6163 30.275 28.017 31.259" stroke="#5A89EA" stroke-width="1.5" stroke-linecap="round" stroke-linejoin="round"/>
<path d="M37.124 26.986V27.986C37.0852 29.1374 37.3838 30.275 37.983 31.259" stroke="#5A89EA" stroke-width="1.5" stroke-linecap="round" stroke-linejoin="round"/>
<path d="M28.888 27.205C30.4684 27.1938 31.9672 26.5013 33 25.305C34.0328 26.5013 35.5316 27.1938 37.112 27.205" stroke="#5A89EA" stroke-width="1.5" stroke-linecap="round" stroke-linejoin="round"/>
<path fill-rule="evenodd" clip-rule="evenodd" d="M33 31C35.2782 31 37.125 29.1532 37.125 26.875C37.125 24.5968 35.2782 22.75 33 22.75C30.7218 22.75 28.875 24.5968 28.875 26.875C28.875 29.1532 30.7218 31 33 31Z" stroke="#5A89EA" stroke-width="1.5" stroke-linecap="round" stroke-linejoin="round"/>
<path d="M21.24 64H23.46L24.9 74.86H24.94L26.38 64H28.4L26.28 78H23.36L21.24 64ZM29.4567 64H35.4567V66H31.6567V69.7H34.6767V71.7H31.6567V76H35.4567V78H29.4567V64ZM36.7223 64H39.9823C41.1157 64 41.9423 64.2667 42.4623 64.8C42.9823 65.32 43.2423 66.1267 43.2423 67.22V68.08C43.2423 69.5333 42.7623 70.4533 41.8023 70.84V70.88C42.3357 71.04 42.709 71.3667 42.9223 71.86C43.149 72.3533 43.2623 73.0133 43.2623 73.84V76.3C43.2623 76.7 43.2757 77.0267 43.3023 77.28C43.329 77.52 43.3957 77.76 43.5023 78H41.2623C41.1823 77.7733 41.129 77.56 41.1023 77.36C41.0757 77.16 41.0623 76.8 41.0623 76.28V73.72C41.0623 73.08 40.9557 72.6333 40.7423 72.38C40.5423 72.1267 40.189 72 39.6823 72H38.9223V78H36.7223V64ZM39.7223 70C40.1623 70 40.489 69.8867 40.7023 69.66C40.929 69.4333 41.0423 69.0533 41.0423 68.52V67.44C41.0423 66.9333 40.949 66.5667 40.7623 66.34C40.589 66.1133 40.309 66 39.9223 66H38.9223V70H39.7223ZM44.7888 64H46.9888V78H44.7888V64ZM48.6364 64H54.4564V66H50.8364V69.9H53.6764V71.9H50.8364V78H48.6364V64ZM55.5114 64H57.7114V78H55.5114V64ZM59.3591 64H65.3591V66H61.5591V69.7H64.5791V71.7H61.5591V76H65.3591V78H59.3591V64ZM66.6247 64H69.9847C71.078 64 71.898 64.2933 72.4447 64.88C72.9914 65.4667 73.2647 66.3267 73.2647 67.46V74.54C73.2647 75.6733 72.9914 76.5333 72.4447 77.12C71.898 77.7067 71.078 78 69.9847 78H66.6247V64ZM69.9447 76C70.3047 76 70.578 75.8933 70.7647 75.68C70.9647 75.4667 71.0647 75.12 71.0647 74.64V67.36C71.0647 66.88 70.9647 66.5333 70.7647 66.32C70.578 66.1067 70.3047 66 69.9447 66H68.8247V76H69.9447ZM77.9528 64H81.2728C82.4061 64 83.2328 64.2667 83.7528 64.8C84.2728 65.32 84.5328 66.1267 84.5328 67.22V67.78C84.5328 68.5 84.4128 69.0867 84.1728 69.54C83.9461 69.9933 83.5928 70.32 83.1128 70.52V70.56C84.2061 70.9333 84.7528 71.9067 84.7528 73.48V74.68C84.7528 75.76 84.4661 76.5867 83.8928 77.16C83.3328 77.72 82.5061 78 81.4128 78H77.9528V64ZM81.0128 69.7C81.4528 69.7 81.7795 69.5867 81.9928 69.36C82.2195 69.1333 82.3328 68.7533 82.3328 68.22V67.44C82.3328 66.9333 82.2395 66.5667 82.0528 66.34C81.8795 66.1133 81.5995 66 81.2128 66H80.1528V69.7H81.0128ZM81.4128 76C81.7995 76 82.0861 75.9 82.2728 75.7C82.4595 75.4867 82.5528 75.1267 82.5528 74.62V73.4C82.5528 72.76 82.4395 72.32 82.2128 72.08C81.9995 71.8267 81.6395 71.7 81.1328 71.7H80.1528V76H81.4128ZM89.2388 78.2C88.1721 78.2 87.3588 77.9 86.7988 77.3C86.2388 76.6867 85.9588 75.8133 85.9588 74.68V64H88.1587V74.84C88.1587 75.32 88.2521 75.6667 88.4388 75.88C88.6388 76.0933 88.9188 76.2 89.2788 76.2C89.6388 76.2 89.9121 76.0933 90.0988 75.88C90.2988 75.6667 90.3988 75.32 90.3988 74.84V64H92.5188V74.68C92.5188 75.8133 92.2388 76.6867 91.6788 77.3C91.1188 77.9 90.3054 78.2 89.2388 78.2ZM96.1056 72.04L93.4456 64H95.7856L97.2856 69.14H97.3256L98.8256 64H100.966L98.3056 72.04V78H96.1056V72.04ZM101.957 64H107.957V66H104.157V69.7H107.177V71.7H104.157V76H107.957V78H101.957V64ZM109.222 64H112.482C113.616 64 114.442 64.2667 114.962 64.8C115.482 65.32 115.742 66.1267 115.742 67.22V68.08C115.742 69.5333 115.262 70.4533 114.302 70.84V70.88C114.836 71.04 115.209 71.3667 115.422 71.86C115.649 72.3533 115.762 73.0133 115.762 73.84V76.3C115.762 76.7 115.776 77.0267 115.802 77.28C115.829 77.52 115.896 77.76 116.002 78H113.762C113.682 77.7733 113.629 77.56 113.602 77.36C113.576 77.16 113.562 76.8 113.562 76.28V73.72C113.562 73.08 113.456 72.6333 113.242 72.38C113.042 72.1267 112.689 72 112.182 72H111.422V78H109.222V64ZM112.222 70C112.662 70 112.989 69.8867 113.202 69.66C113.429 69.4333 113.542 69.0533 113.542 68.52V67.44C113.542 66.9333 113.449 66.5667 113.262 66.34C113.089 66.1133 112.809 66 112.422 66H111.422V70H112.222ZM120.149 78.2C119.082 78.2 118.275 77.9 117.729 77.3C117.182 76.6867 116.909 75.8133 116.909 74.68V73.88H118.989V74.84C118.989 75.7467 119.369 76.2 120.129 76.2C120.502 76.2 120.782 76.0933 120.969 75.88C121.169 75.6533 121.269 75.2933 121.269 74.8C121.269 74.2133 121.135 73.7 120.869 73.26C120.602 72.8067 120.109 72.2667 119.389 71.64C118.482 70.84 117.849 70.12 117.489 69.48C117.129 68.8267 116.949 68.0933 116.949 67.28C116.949 66.1733 117.229 65.32 117.789 64.72C118.349 64.1067 119.162 63.8 120.229 63.8C121.282 63.8 122.075 64.1067 122.609 64.72C123.155 65.32 123.429 66.1867 123.429 67.32V67.9H121.349V67.18C121.349 66.7 121.255 66.3533 121.069 66.14C120.882 65.9133 120.609 65.8 120.249 65.8C119.515 65.8 119.149 66.2467 119.149 67.14C119.149 67.6467 119.282 68.12 119.549 68.56C119.829 69 120.329 69.5333 121.049 70.16C121.969 70.96 122.602 71.6867 122.949 72.34C123.295 72.9933 123.469 73.76 123.469 74.64C123.469 75.7867 123.182 76.6667 122.609 77.28C122.049 77.8933 121.229 78.2 120.149 78.2Z" fill="#030303"/>
<path d="M24.874 103.091C24.276 103.091 23.7387 102.987 23.262 102.779C22.794 102.562 22.4257 102.268 22.157 101.895C21.8883 101.514 21.7497 101.076 21.741 100.582H23.002C23.0453 101.007 23.2187 101.366 23.522 101.661C23.834 101.947 24.2847 102.09 24.874 102.09C25.4373 102.09 25.8793 101.951 26.2 101.674C26.5293 101.388 26.694 101.024 26.694 100.582C26.694 100.235 26.5987 99.9537 26.408 99.737C26.2173 99.5203 25.979 99.3557 25.693 99.243C25.407 99.1303 25.0213 99.009 24.536 98.879C23.938 98.723 23.457 98.567 23.093 98.411C22.7377 98.255 22.43 98.0123 22.17 97.683C21.9187 97.345 21.793 96.8943 21.793 96.331C21.793 95.837 21.9187 95.3993 22.17 95.018C22.4213 94.6367 22.7723 94.342 23.223 94.134C23.6823 93.926 24.2067 93.822 24.796 93.822C25.6453 93.822 26.3387 94.0343 26.876 94.459C27.422 94.8837 27.7297 95.447 27.799 96.149H26.499C26.4557 95.8023 26.2737 95.499 25.953 95.239C25.6323 94.9703 25.2077 94.836 24.679 94.836C24.185 94.836 23.782 94.966 23.47 95.226C23.158 95.4773 23.002 95.8327 23.002 96.292C23.002 96.6213 23.093 96.89 23.275 97.098C23.4657 97.306 23.6953 97.4663 23.964 97.579C24.2413 97.683 24.627 97.8043 25.121 97.943C25.719 98.1077 26.2 98.2723 26.564 98.437C26.928 98.593 27.24 98.84 27.5 99.178C27.76 99.5073 27.89 99.958 27.89 100.53C27.89 100.972 27.773 101.388 27.539 101.778C27.305 102.168 26.9583 102.484 26.499 102.727C26.0397 102.97 25.498 103.091 24.874 103.091ZM36.1309 99.165C36.1309 99.3903 36.1179 99.6287 36.0919 99.88H30.3979C30.4412 100.582 30.6795 101.132 31.1129 101.531C31.5549 101.921 32.0879 102.116 32.7119 102.116C33.2232 102.116 33.6479 101.999 33.9859 101.765C34.3325 101.522 34.5752 101.202 34.7139 100.803H35.9879C35.7972 101.488 35.4159 102.047 34.8439 102.48C34.2719 102.905 33.5612 103.117 32.7119 103.117C32.0359 103.117 31.4292 102.965 30.8919 102.662C30.3632 102.359 29.9472 101.93 29.6439 101.375C29.3405 100.812 29.1889 100.162 29.1889 99.425C29.1889 98.6883 29.3362 98.0427 29.6309 97.488C29.9255 96.9333 30.3372 96.5087 30.8659 96.214C31.4032 95.9107 32.0185 95.759 32.7119 95.759C33.3879 95.759 33.9859 95.9063 34.5059 96.201C35.0259 96.4957 35.4245 96.903 35.7019 97.423C35.9879 97.9343 36.1309 98.515 36.1309 99.165ZM34.9089 98.918C34.9089 98.4673 34.8092 98.0817 34.6099 97.761C34.4105 97.4317 34.1375 97.1847 33.7909 97.02C33.4529 96.8467 33.0759 96.76 32.6599 96.76C32.0619 96.76 31.5505 96.9507 31.1259 97.332C30.7099 97.7133 30.4715 98.242 30.4109 98.918H34.9089ZM37.2504 99.425C37.2504 98.6883 37.3977 98.047 37.6924 97.501C37.9871 96.9463 38.3944 96.5173 38.9144 96.214C39.4431 95.9107 40.0454 95.759 40.7214 95.759C41.5967 95.759 42.3161 95.9713 42.8794 96.396C43.4514 96.8207 43.8284 97.41 44.0104 98.164H42.7364C42.6151 97.7307 42.3767 97.3883 42.0214 97.137C41.6747 96.8857 41.2414 96.76 40.7214 96.76C40.0454 96.76 39.4994 96.994 39.0834 97.462C38.6674 97.9213 38.4594 98.5757 38.4594 99.425C38.4594 100.283 38.6674 100.946 39.0834 101.414C39.4994 101.882 40.0454 102.116 40.7214 102.116C41.2414 102.116 41.6747 101.995 42.0214 101.752C42.3681 101.509 42.6064 101.163 42.7364 100.712H44.0104C43.8197 101.44 43.4384 102.025 42.8664 102.467C42.2944 102.9 41.5794 103.117 40.7214 103.117C40.0454 103.117 39.4431 102.965 38.9144 102.662C38.3944 102.359 37.9871 101.93 37.6924 101.375C37.3977 100.82 37.2504 100.17 37.2504 99.425ZM51.9069 95.876V103H50.7239V101.947C50.4986 102.311 50.1822 102.597 49.7749 102.805C49.3762 103.004 48.9342 103.104 48.4489 103.104C47.8942 103.104 47.3959 102.991 46.9539 102.766C46.5119 102.532 46.1609 102.185 45.9009 101.726C45.6496 101.267 45.5239 100.708 45.5239 100.049V95.876H46.6939V99.893C46.6939 100.595 46.8716 101.137 47.2269 101.518C47.5822 101.891 48.0676 102.077 48.6829 102.077C49.3156 102.077 49.8139 101.882 50.1779 101.492C50.5419 101.102 50.7239 100.534 50.7239 99.789V95.876H51.9069ZM55.0873 97.033C55.2953 96.6257 55.59 96.3093 55.9713 96.084C56.3613 95.8587 56.8337 95.746 57.3883 95.746V96.968H57.0763C55.7503 96.968 55.0873 97.6873 55.0873 99.126V103H53.9043V95.876H55.0873V97.033ZM65.2539 99.165C65.2539 99.3903 65.2409 99.6287 65.2149 99.88H59.5209C59.5643 100.582 59.8026 101.132 60.2359 101.531C60.6779 101.921 61.2109 102.116 61.8349 102.116C62.3463 102.116 62.7709 101.999 63.1089 101.765C63.4556 101.522 63.6983 101.202 63.8369 100.803H65.1109C64.9203 101.488 64.5389 102.047 63.9669 102.48C63.3949 102.905 62.6843 103.117 61.8349 103.117C61.1589 103.117 60.5523 102.965 60.0149 102.662C59.4863 102.359 59.0703 101.93 58.7669 101.375C58.4636 100.812 58.3119 100.162 58.3119 99.425C58.3119 98.6883 58.4593 98.0427 58.7539 97.488C59.0486 96.9333 59.4603 96.5087 59.9889 96.214C60.5263 95.9107 61.1416 95.759 61.8349 95.759C62.5109 95.759 63.1089 95.9063 63.6289 96.201C64.1489 96.4957 64.5476 96.903 64.8249 97.423C65.1109 97.9343 65.2539 98.515 65.2539 99.165ZM64.0319 98.918C64.0319 98.4673 63.9323 98.0817 63.7329 97.761C63.5336 97.4317 63.2606 97.1847 62.9139 97.02C62.5759 96.8467 62.1989 96.76 61.7829 96.76C61.1849 96.76 60.6736 96.9507 60.2489 97.332C59.8329 97.7133 59.5946 98.242 59.5339 98.918H64.0319ZM69.8393 99.412C69.8393 98.684 69.9866 98.047 70.2813 97.501C70.5759 96.9463 70.9789 96.5173 71.4903 96.214C72.0103 95.9107 72.5866 95.759 73.2193 95.759C73.8433 95.759 74.3849 95.8933 74.8443 96.162C75.3036 96.4307 75.6459 96.7687 75.8713 97.176V95.876H77.0673V103H75.8713V101.674C75.6373 102.09 75.2863 102.437 74.8183 102.714C74.3589 102.983 73.8216 103.117 73.2063 103.117C72.5736 103.117 72.0016 102.961 71.4903 102.649C70.9789 102.337 70.5759 101.899 70.2813 101.336C69.9866 100.773 69.8393 100.131 69.8393 99.412ZM75.8713 99.425C75.8713 98.8877 75.7629 98.4197 75.5463 98.021C75.3296 97.6223 75.0349 97.319 74.6623 97.111C74.2983 96.8943 73.8953 96.786 73.4533 96.786C73.0113 96.786 72.6083 96.89 72.2443 97.098C71.8803 97.306 71.5899 97.6093 71.3733 98.008C71.1566 98.4067 71.0483 98.8747 71.0483 99.412C71.0483 99.958 71.1566 100.435 71.3733 100.842C71.5899 101.241 71.8803 101.548 72.2443 101.765C72.6083 101.973 73.0113 102.077 73.4533 102.077C73.8953 102.077 74.2983 101.973 74.6623 101.765C75.0349 101.548 75.3296 101.241 75.5463 100.842C75.7629 100.435 75.8713 99.9623 75.8713 99.425ZM82.5374 95.746C83.4041 95.746 84.1061 96.0103 84.6434 96.539C85.1808 97.059 85.4494 97.813 85.4494 98.801V103H84.2794V98.97C84.2794 98.2593 84.1018 97.7177 83.7464 97.345C83.3911 96.9637 82.9058 96.773 82.2904 96.773C81.6664 96.773 81.1681 96.968 80.7954 97.358C80.4314 97.748 80.2494 98.3157 80.2494 99.061V103H79.0664V95.876H80.2494V96.89C80.4834 96.526 80.7998 96.2443 81.1984 96.045C81.6058 95.8457 82.0521 95.746 82.5374 95.746ZM86.9399 99.412C86.9399 98.684 87.0872 98.047 87.3819 97.501C87.6765 96.9463 88.0795 96.5173 88.5909 96.214C89.1109 95.9107 89.6915 95.759 90.3329 95.759C90.8875 95.759 91.4032 95.889 91.8799 96.149C92.3565 96.4003 92.7205 96.734 92.9719 97.15V93.38H94.1679V103H92.9719V101.661C92.7379 102.086 92.3912 102.437 91.9319 102.714C91.4725 102.983 90.9352 103.117 90.3199 103.117C89.6872 103.117 89.1109 102.961 88.5909 102.649C88.0795 102.337 87.6765 101.899 87.3819 101.336C87.0872 100.773 86.9399 100.131 86.9399 99.412ZM92.9719 99.425C92.9719 98.8877 92.8635 98.4197 92.6469 98.021C92.4302 97.6223 92.1355 97.319 91.7629 97.111C91.3989 96.8943 90.9959 96.786 90.5539 96.786C90.1119 96.786 89.7089 96.89 89.3449 97.098C88.9809 97.306 88.6905 97.6093 88.4739 98.008C88.2572 98.4067 88.1489 98.8747 88.1489 99.412C88.1489 99.958 88.2572 100.435 88.4739 100.842C88.6905 101.241 88.9809 101.548 89.3449 101.765C89.7089 101.973 90.1119 102.077 90.5539 102.077C90.9959 102.077 91.3989 101.973 91.7629 101.765C92.1355 101.548 92.4302 101.241 92.6469 100.842C92.8635 100.435 92.9719 99.9623 92.9719 99.425ZM102.285 101.908L104.495 95.876H105.756L102.961 103H101.583L98.7878 95.876H100.062L102.285 101.908ZM113.42 99.165C113.42 99.3903 113.407 99.6287 113.381 99.88H107.687C107.73 100.582 107.969 101.132 108.402 101.531C108.844 101.921 109.377 102.116 110.001 102.116C110.512 102.116 110.937 101.999 111.275 101.765C111.622 101.522 111.864 101.202 112.003 100.803H113.277C113.086 101.488 112.705 102.047 112.133 102.48C111.561 102.905 110.85 103.117 110.001 103.117C109.325 103.117 108.718 102.965 108.181 102.662C107.652 102.359 107.236 101.93 106.933 101.375C106.63 100.812 106.478 100.162 106.478 99.425C106.478 98.6883 106.625 98.0427 106.92 97.488C107.215 96.9333 107.626 96.5087 108.155 96.214C108.692 95.9107 109.308 95.759 110.001 95.759C110.677 95.759 111.275 95.9063 111.795 96.201C112.315 96.4957 112.714 96.903 112.991 97.423C113.277 97.9343 113.42 98.515 113.42 99.165ZM112.198 98.918C112.198 98.4673 112.098 98.0817 111.899 97.761C111.7 97.4317 111.427 97.1847 111.08 97.02C110.742 96.8467 110.365 96.76 109.949 96.76C109.351 96.76 108.84 96.9507 108.415 97.332C107.999 97.7133 107.761 98.242 107.7 98.918H112.198ZM116.164 97.033C116.372 96.6257 116.667 96.3093 117.048 96.084C117.438 95.8587 117.911 95.746 118.465 95.746V96.968H118.153C116.827 96.968 116.164 97.6873 116.164 99.126V103H114.981V95.876H116.164V97.033ZM120.442 94.719C120.217 94.719 120.026 94.641 119.87 94.485C119.714 94.329 119.636 94.1383 119.636 93.913C119.636 93.6877 119.714 93.497 119.87 93.341C120.026 93.185 120.217 93.107 120.442 93.107C120.659 93.107 120.841 93.185 120.988 93.341C121.144 93.497 121.222 93.6877 121.222 93.913C121.222 94.1383 121.144 94.329 120.988 94.485C120.841 94.641 120.659 94.719 120.442 94.719ZM121.014 95.876V103H119.831V95.876H121.014ZM125.929 96.851H124.434V103H123.251V96.851H122.328V95.876H123.251V95.369C123.251 94.5717 123.455 93.991 123.862 93.627C124.278 93.2543 124.941 93.068 125.851 93.068V94.056C125.331 94.056 124.963 94.16 124.746 94.368C124.538 94.5673 124.434 94.901 124.434 95.369V95.876H125.929V96.851ZM127.92 94.719C127.694 94.719 127.504 94.641 127.348 94.485C127.192 94.329 127.114 94.1383 127.114 93.913C127.114 93.6877 127.192 93.497 127.348 93.341C127.504 93.185 127.694 93.107 127.92 93.107C128.136 93.107 128.318 93.185 128.466 93.341C128.622 93.497 128.7 93.6877 128.7 93.913C128.7 94.1383 128.622 94.329 128.466 94.485C128.318 94.641 128.136 94.719 127.92 94.719ZM128.492 95.876V103H127.309V95.876H128.492ZM137.008 99.165C137.008 99.3903 136.995 99.6287 136.969 99.88H131.275C131.318 100.582 131.557 101.132 131.99 101.531C132.432 101.921 132.965 102.116 133.589 102.116C134.1 102.116 134.525 101.999 134.863 101.765C135.21 101.522 135.452 101.202 135.591 100.803H136.865C136.674 101.488 136.293 102.047 135.721 102.48C135.149 102.905 134.438 103.117 133.589 103.117C132.913 103.117 132.306 102.965 131.769 102.662C131.24 102.359 130.824 101.93 130.521 101.375C130.218 100.812 130.066 100.162 130.066 99.425C130.066 98.6883 130.213 98.0427 130.508 97.488C130.803 96.9333 131.214 96.5087 131.743 96.214C132.28 95.9107 132.896 95.759 133.589 95.759C134.265 95.759 134.863 95.9063 135.383 96.201C135.903 96.4957 136.302 96.903 136.579 97.423C136.865 97.9343 137.008 98.515 137.008 99.165ZM135.786 98.918C135.786 98.4673 135.686 98.0817 135.487 97.761C135.288 97.4317 135.015 97.1847 134.668 97.02C134.33 96.8467 133.953 96.76 133.537 96.76C132.939 96.76 132.428 96.9507 132.003 97.332C131.587 97.7133 131.349 98.242 131.288 98.918H135.786ZM138.127 99.412C138.127 98.684 138.275 98.047 138.569 97.501C138.864 96.9463 139.267 96.5173 139.778 96.214C140.298 95.9107 140.879 95.759 141.52 95.759C142.075 95.759 142.591 95.889 143.067 96.149C143.544 96.4003 143.908 96.734 144.159 97.15V93.38H145.355V103H144.159V101.661C143.925 102.086 143.579 102.437 143.119 102.714C142.66 102.983 142.123 103.117 141.507 103.117C140.875 103.117 140.298 102.961 139.778 102.649C139.267 102.337 138.864 101.899 138.569 101.336C138.275 100.773 138.127 100.131 138.127 99.412ZM144.159 99.425C144.159 98.8877 144.051 98.4197 143.834 98.021C143.618 97.6223 143.323 97.319 142.95 97.111C142.586 96.8943 142.183 96.786 141.741 96.786C141.299 96.786 140.896 96.89 140.532 97.098C140.168 97.306 139.878 97.6093 139.661 98.008C139.445 98.4067 139.336 98.8747 139.336 99.412C139.336 99.958 139.445 100.435 139.661 100.842C139.878 101.241 140.168 101.548 140.532 101.765C140.896 101.973 141.299 102.077 141.741 102.077C142.183 102.077 142.586 101.973 142.95 101.765C143.323 101.548 143.618 101.241 143.834 100.842C144.051 100.435 144.159 99.9623 144.159 99.425ZM23.184 115.033C23.392 114.626 23.6867 114.309 24.068 114.084C24.458 113.859 24.9303 113.746 25.485 113.746V114.968H25.173C23.847 114.968 23.184 115.687 23.184 117.126V121H22.001V113.876H23.184V115.033ZM33.3506 117.165C33.3506 117.39 33.3376 117.629 33.3116 117.88H27.6176C27.6609 118.582 27.8993 119.132 28.3326 119.531C28.7746 119.921 29.3076 120.116 29.9316 120.116C30.4429 120.116 30.8676 119.999 31.2056 119.765C31.5523 119.522 31.7949 119.202 31.9336 118.803H33.2076C33.0169 119.488 32.6356 120.047 32.0636 120.48C31.4916 120.905 30.7809 121.117 29.9316 121.117C29.2556 121.117 28.6489 120.965 28.1116 120.662C27.5829 120.359 27.1669 119.93 26.8636 119.375C26.5603 118.812 26.4086 118.162 26.4086 117.425C26.4086 116.688 26.5559 116.043 26.8506 115.488C27.1453 114.933 27.5569 114.509 28.0856 114.214C28.6229 113.911 29.2383 113.759 29.9316 113.759C30.6076 113.759 31.2056 113.906 31.7256 114.201C32.2456 114.496 32.6443 114.903 32.9216 115.423C33.2076 115.934 33.3506 116.515 33.3506 117.165ZM32.1286 116.918C32.1286 116.467 32.0289 116.082 31.8296 115.761C31.6303 115.432 31.3573 115.185 31.0106 115.02C30.6726 114.847 30.2956 114.76 29.8796 114.76C29.2816 114.76 28.7703 114.951 28.3456 115.332C27.9296 115.713 27.6913 116.242 27.6306 116.918H32.1286ZM37.8501 113.759C38.4655 113.759 39.0028 113.893 39.4621 114.162C39.9301 114.431 40.2768 114.769 40.5021 115.176V113.876H41.6981V121.156C41.6981 121.806 41.5595 122.382 41.2821 122.885C41.0048 123.396 40.6061 123.795 40.0861 124.081C39.5748 124.367 38.9768 124.51 38.2921 124.51C37.3561 124.51 36.5761 124.289 35.9521 123.847C35.3281 123.405 34.9598 122.803 34.8471 122.04H36.0171C36.1471 122.473 36.4158 122.82 36.8231 123.08C37.2305 123.349 37.7201 123.483 38.2921 123.483C38.9421 123.483 39.4708 123.279 39.8781 122.872C40.2941 122.465 40.5021 121.893 40.5021 121.156V119.661C40.2681 120.077 39.9215 120.424 39.4621 120.701C39.0028 120.978 38.4655 121.117 37.8501 121.117C37.2175 121.117 36.6411 120.961 36.1211 120.649C35.6098 120.337 35.2068 119.899 34.9121 119.336C34.6175 118.773 34.4701 118.131 34.4701 117.412C34.4701 116.684 34.6175 116.047 34.9121 115.501C35.2068 114.946 35.6098 114.517 36.1211 114.214C36.6411 113.911 37.2175 113.759 37.8501 113.759ZM40.5021 117.425C40.5021 116.888 40.3938 116.42 40.1771 116.021C39.9605 115.622 39.6658 115.319 39.2931 115.111C38.9291 114.894 38.5261 114.786 38.0841 114.786C37.6421 114.786 37.2391 114.89 36.8751 115.098C36.5111 115.306 36.2208 115.609 36.0041 116.008C35.7875 116.407 35.6791 116.875 35.6791 117.412C35.6791 117.958 35.7875 118.435 36.0041 118.842C36.2208 119.241 36.5111 119.548 36.8751 119.765C37.2391 119.973 37.6421 120.077 38.0841 120.077C38.5261 120.077 38.9291 119.973 39.2931 119.765C39.6658 119.548 39.9605 119.241 40.1771 118.842C40.3938 118.435 40.5021 117.962 40.5021 117.425ZM44.3083 112.719C44.083 112.719 43.8923 112.641 43.7363 112.485C43.5803 112.329 43.5023 112.138 43.5023 111.913C43.5023 111.688 43.5803 111.497 43.7363 111.341C43.8923 111.185 44.083 111.107 44.3083 111.107C44.525 111.107 44.707 111.185 44.8543 111.341C45.0103 111.497 45.0883 111.688 45.0883 111.913C45.0883 112.138 45.0103 112.329 44.8543 112.485C44.707 112.641 44.525 112.719 44.3083 112.719ZM44.8803 113.876V121H43.6973V113.876H44.8803ZM49.4185 121.117C48.8725 121.117 48.3828 121.026 47.9495 120.844C47.5162 120.653 47.1738 120.393 46.9225 120.064C46.6712 119.726 46.5325 119.34 46.5065 118.907H47.7285C47.7632 119.262 47.9278 119.553 48.2225 119.778C48.5258 120.003 48.9202 120.116 49.4055 120.116C49.8562 120.116 50.2115 120.016 50.4715 119.817C50.7315 119.618 50.8615 119.366 50.8615 119.063C50.8615 118.751 50.7228 118.521 50.4455 118.374C50.1682 118.218 49.7392 118.066 49.1585 117.919C48.6298 117.78 48.1965 117.642 47.8585 117.503C47.5292 117.356 47.2432 117.143 47.0005 116.866C46.7665 116.58 46.6495 116.207 46.6495 115.748C46.6495 115.384 46.7578 115.05 46.9745 114.747C47.1912 114.444 47.4988 114.205 47.8975 114.032C48.2962 113.85 48.7512 113.759 49.2625 113.759C50.0512 113.759 50.6882 113.958 51.1735 114.357C51.6588 114.756 51.9188 115.302 51.9535 115.995H50.7705C50.7445 115.622 50.5928 115.323 50.3155 115.098C50.0468 114.873 49.6828 114.76 49.2235 114.76C48.7988 114.76 48.4608 114.851 48.2095 115.033C47.9582 115.215 47.8325 115.453 47.8325 115.748C47.8325 115.982 47.9062 116.177 48.0535 116.333C48.2095 116.48 48.4002 116.602 48.6255 116.697C48.8595 116.784 49.1802 116.883 49.5875 116.996C50.0988 117.135 50.5148 117.273 50.8355 117.412C51.1562 117.542 51.4292 117.741 51.6545 118.01C51.8885 118.279 52.0098 118.63 52.0185 119.063C52.0185 119.453 51.9102 119.804 51.6935 120.116C51.4768 120.428 51.1692 120.675 50.7705 120.857C50.3805 121.03 49.9298 121.117 49.4185 121.117ZM55.1315 114.851V119.05C55.1315 119.397 55.2052 119.644 55.3525 119.791C55.4998 119.93 55.7555 119.999 56.1195 119.999H56.9905V121H55.9245C55.2658 121 54.7718 120.848 54.4425 120.545C54.1132 120.242 53.9485 119.743 53.9485 119.05V114.851H53.0255V113.876H53.9485V112.082H55.1315V113.876H56.9905V114.851H55.1315ZM59.6069 115.033C59.8149 114.626 60.1095 114.309 60.4909 114.084C60.8809 113.859 61.3532 113.746 61.9079 113.746V114.968H61.5959C60.2699 114.968 59.6069 115.687 59.6069 117.126V121H58.4239V113.876H59.6069V115.033ZM62.8315 117.412C62.8315 116.684 62.9788 116.047 63.2735 115.501C63.5681 114.946 63.9711 114.517 64.4825 114.214C65.0025 113.911 65.5788 113.759 66.2115 113.759C66.8355 113.759 67.3771 113.893 67.8365 114.162C68.2958 114.431 68.6381 114.769 68.8635 115.176V113.876H70.0595V121H68.8635V119.674C68.6295 120.09 68.2785 120.437 67.8105 120.714C67.3511 120.983 66.8138 121.117 66.1985 121.117C65.5658 121.117 64.9938 120.961 64.4825 120.649C63.9711 120.337 63.5681 119.899 63.2735 119.336C62.9788 118.773 62.8315 118.131 62.8315 117.412ZM68.8635 117.425C68.8635 116.888 68.7551 116.42 68.5385 116.021C68.3218 115.622 68.0271 115.319 67.6545 115.111C67.2905 114.894 66.8875 114.786 66.4455 114.786C66.0035 114.786 65.6005 114.89 65.2365 115.098C64.8725 115.306 64.5821 115.609 64.3655 116.008C64.1488 116.407 64.0405 116.875 64.0405 117.412C64.0405 117.958 64.1488 118.435 64.3655 118.842C64.5821 119.241 64.8725 119.548 65.2365 119.765C65.6005 119.973 66.0035 120.077 66.4455 120.077C66.8875 120.077 67.2905 119.973 67.6545 119.765C68.0271 119.548 68.3218 119.241 68.5385 118.842C68.7551 118.435 68.8635 117.962 68.8635 117.425ZM73.5016 114.851V119.05C73.5016 119.397 73.5753 119.644 73.7226 119.791C73.87 119.93 74.1256 119.999 74.4896 119.999H75.3606V121H74.2946C73.636 121 73.142 120.848 72.8126 120.545C72.4833 120.242 72.3186 119.743 72.3186 119.05V114.851H71.3956V113.876H72.3186V112.082H73.5016V113.876H75.3606V114.851H73.5016ZM77.405 112.719C77.1796 112.719 76.989 112.641 76.833 112.485C76.677 112.329 76.599 112.138 76.599 111.913C76.599 111.688 76.677 111.497 76.833 111.341C76.989 111.185 77.1796 111.107 77.405 111.107C77.6216 111.107 77.8036 111.185 77.951 111.341C78.107 111.497 78.185 111.688 78.185 111.913C78.185 112.138 78.107 112.329 77.951 112.485C77.8036 112.641 77.6216 112.719 77.405 112.719ZM77.977 113.876V121H76.794V113.876H77.977ZM83.1002 121.117C82.4329 121.117 81.8262 120.965 81.2802 120.662C80.7429 120.359 80.3182 119.93 80.0062 119.375C79.7029 118.812 79.5512 118.162 79.5512 117.425C79.5512 116.697 79.7072 116.056 80.0192 115.501C80.3399 114.938 80.7732 114.509 81.3192 114.214C81.8652 113.911 82.4762 113.759 83.1522 113.759C83.8282 113.759 84.4392 113.911 84.9852 114.214C85.5312 114.509 85.9602 114.933 86.2722 115.488C86.5929 116.043 86.7532 116.688 86.7532 117.425C86.7532 118.162 86.5885 118.812 86.2592 119.375C85.9385 119.93 85.5009 120.359 84.9462 120.662C84.3915 120.965 83.7762 121.117 83.1002 121.117ZM83.1002 120.077C83.5249 120.077 83.9235 119.977 84.2962 119.778C84.6689 119.579 84.9679 119.28 85.1932 118.881C85.4272 118.482 85.5442 117.997 85.5442 117.425C85.5442 116.853 85.4315 116.368 85.2062 115.969C84.9809 115.57 84.6862 115.276 84.3222 115.085C83.9582 114.886 83.5639 114.786 83.1392 114.786C82.7059 114.786 82.3072 114.886 81.9432 115.085C81.5879 115.276 81.3019 115.57 81.0852 115.969C80.8685 116.368 80.7602 116.853 80.7602 117.425C80.7602 118.006 80.8642 118.495 81.0722 118.894C81.2889 119.293 81.5749 119.592 81.9302 119.791C82.2855 119.982 82.6755 120.077 83.1002 120.077ZM91.7796 113.746C92.6463 113.746 93.3483 114.01 93.8856 114.539C94.423 115.059 94.6916 115.813 94.6916 116.801V121H93.5216V116.97C93.5216 116.259 93.344 115.718 92.9886 115.345C92.6333 114.964 92.148 114.773 91.5326 114.773C90.9086 114.773 90.4103 114.968 90.0376 115.358C89.6736 115.748 89.4916 116.316 89.4916 117.061V121H88.3086V113.876H89.4916V114.89C89.7256 114.526 90.042 114.244 90.4406 114.045C90.848 113.846 91.2943 113.746 91.7796 113.746Z" fill="#030303"/>
</g>
<defs>
<filter id="filter0_d_1_361" x="0" y="0" width="180" height="150" filterUnits="userSpaceOnUse" color-interpolation-filters="sRGB">
<feFlood flood-opacity="0" result="BackgroundImageFix"/>
<feColorMatrix in="SourceAlpha" type="matrix" values="0 0 0 0 0 0 0 0 0 0 0 0 0 0 0 0 0 0 127 0" result="hardAlpha"/>
<feOffset dy="2"/>
<feGaussianBlur stdDeviation="2"/>
<feColorMatrix type="matrix" values="0 0 0 0 0 0 0 0 0 0 0 0 0 0 0 0 0 0 0.15 0"/>
<feBlend mode="normal" in2="BackgroundImageFix" result="effect1_dropShadow_1_361"/>
<feBlend mode="normal" in="SourceGraphic" in2="effect1_dropShadow_1_361" result="shape"/>
</filter>
</defs>
</svg>
